M48
; DRILL file {KiCad 8.0.8} date 2025-02-26T00:31:42-0800
; FORMAT={-:-/ absolute / metric / decimal}
; #@! TF.CreationDate,2025-02-26T00:31:42-08:00
; #@! TF.GenerationSoftware,Kicad,Pcbnew,8.0.8
; #@! TF.FileFunction,Plated,1,2,PTH
FMAT,2
METRIC
; #@! TA.AperFunction,Plated,PTH,ViaDrill
T1C0.300
; #@! TA.AperFunction,Plated,PTH,ComponentDrill
T2C0.800
; #@! TA.AperFunction,Plated,PTH,ComponentDrill
T3C0.864
; #@! TA.AperFunction,Plated,PTH,ComponentDrill
T4C1.000
; #@! TA.AperFunction,Plated,PTH,ComponentDrill
T5C1.092
; #@! TA.AperFunction,Plated,PTH,ComponentDrill
T6C1.100
; #@! TA.AperFunction,Plated,PTH,ComponentDrill
T7C1.300
; #@! TA.AperFunction,Plated,PTH,ComponentDrill
T8C2.057
%
G90
G05
T1
X64.211Y-127.914
X70.866Y-73.914
X71.145Y-118.821
X71.145Y-120.472
X72.034Y-108.788
X72.847Y-61.976
X73.0Y-63.144
X73.457Y-65.481
X74.219Y-67.31
X74.828Y-84.277
X75.032Y-61.062
X76.302Y-77.47
X76.352Y-101.422
X76.352Y-113.233
X79.654Y-116.916
X79.781Y-89.23
X80.772Y-70.002
X80.772Y-71.476
X81.026Y-119.482
X81.026Y-120.193
X81.178Y-99.644
X81.178Y-113.64
X81.305Y-75.641
X81.559Y-83.134
X81.737Y-85.75
X81.813Y-94.564
X81.89Y-70.002
X81.89Y-71.476
X82.091Y-122.479
X83.16Y-75.184
X83.591Y-122.504
X84.48Y-122.504
X84.988Y-116.916
X85.293Y-85.801
X85.598Y-69.977
X85.598Y-72.517
X85.903Y-87.579
X86.512Y-115.9
X86.817Y-69.164
X86.817Y-73.076
X87.3Y-87.655
X87.782Y-115.9
X87.986Y-69.113
X87.986Y-74.778
X88.798Y-82.88
X88.798Y-101.549
X89.37Y-103.899
X89.56Y-96.586
X89.814Y-106.121
X89.967Y-69.139
X91.338Y-63.652
X91.338Y-69.342
X92.1Y-119.583
X92.177Y-77.14
X92.939Y-79.426
X93.523Y-132.911
X93.574Y-62.653
X93.624Y-69.952
X93.878Y-74.473
X93.98Y-83.769
X94.234Y-68.478
X94.844Y-69.342
X94.844Y-80.315
X95.098Y-55.067
X95.275Y-100.66
X95.606Y-80.315
X95.99Y-69.364
X96.114Y-121.971
X96.291Y-105.359
X96.291Y-109.423
X96.368Y-80.315
X97.111Y-51.765
X98.044Y-57.76
X98.069Y-55.321
X98.146Y-121.717
X98.958Y-72.136
X99.924Y-91.745
X101.244Y-111.963
X101.625Y-88.087
X101.905Y-73.609
X102.514Y-109.931
X102.514Y-113.233
X102.972Y-69.647
X103.327Y-83.261
X103.734Y-61.011
X105.004Y-44.602
X105.41Y-82.042
X105.766Y-80.442
X106.274Y-77.673
X106.324Y-78.918
X106.832Y-54.432
X106.985Y-44.602
X107.798Y-49.2
X109.677Y-54.762
X110.515Y-54.762
X111.354Y-54.762
X112.776Y-53.442
X112.878Y-132.467
X113.132Y-127.457
X113.64Y-50.089
X118.262Y-110.947
X118.466Y-58.583
X119.761Y-68.453
X120.244Y-77.394
X120.498Y-80.442
X122.174Y-66.04
X122.936Y-58.42
X123.342Y-126.695
X124.714Y-129.794
X125.73Y-129.794
X126.746Y-129.794
X127.508Y-130.556
X128.651Y-74.549
X128.651Y-78.74
X130.277Y-57.252
X130.429Y-64.008
X131.663Y-62.466
X132.679Y-62.466
X133.223Y-79.248
X133.695Y-62.466
X133.985Y-81.915
X134.493Y-88.646
X135.763Y-84.582
X135.89Y-89.281
X136.398Y-84.582
X136.398Y-85.471
X137.033Y-84.582
X138.284Y-74.549
X138.284Y-77.978
X139.065Y-79.629
X139.065Y-84.582
X141.224Y-86.36
X141.224Y-90.297
T2
X73.838Y-69.467
X73.838Y-72.007
X73.838Y-74.547
X73.838Y-77.087
X73.838Y-79.627
X73.838Y-82.167
X78.791Y-69.467
X78.791Y-72.007
X78.791Y-74.547
X78.791Y-77.087
X78.791Y-79.627
X78.791Y-82.167
X78.842Y-92.405
X78.842Y-94.945
X78.842Y-97.485
X78.842Y-100.025
X78.842Y-102.565
X78.842Y-105.105
X78.842Y-107.645
X78.842Y-110.185
X83.835Y-81.991
X83.835Y-84.531
X83.835Y-87.071
X83.835Y-89.611
X83.835Y-92.151
X83.835Y-94.691
X83.835Y-97.231
X83.835Y-99.771
X83.835Y-102.311
X83.835Y-104.851
X83.835Y-107.391
X83.835Y-109.931
X83.835Y-112.471
X83.835Y-115.011
X91.455Y-81.991
X91.455Y-84.531
X91.455Y-87.071
X91.455Y-89.611
X91.455Y-92.151
X91.455Y-94.691
X91.455Y-97.231
X91.455Y-99.771
X91.455Y-102.311
X91.455Y-104.851
X91.455Y-107.391
X91.455Y-109.931
X91.455Y-112.471
X91.455Y-115.011
X97.561Y-85.625
X97.561Y-90.625
T3
X108.132Y-122.987
X113.132Y-122.987
X119.866Y-117.094
X124.866Y-117.094
T4
X66.04Y-77.165
X66.04Y-79.705
X66.04Y-82.245
X66.04Y-84.785
X66.04Y-87.325
X66.04Y-89.865
X66.04Y-92.405
X66.04Y-94.945
X66.04Y-97.485
X66.04Y-100.025
X66.04Y-102.565
X66.04Y-105.105
X66.04Y-107.645
X66.04Y-110.185
X66.04Y-112.725
X66.04Y-115.265
X66.04Y-117.805
X66.04Y-120.345
X66.04Y-122.885
X66.04Y-125.425
X66.853Y-56.927
X66.857Y-49.437
X68.58Y-77.165
X68.58Y-79.705
X68.58Y-82.245
X68.58Y-84.785
X68.58Y-87.325
X68.58Y-89.865
X68.58Y-92.405
X68.58Y-94.945
X68.58Y-97.485
X68.58Y-100.025
X68.58Y-102.565
X68.58Y-105.105
X68.58Y-107.645
X68.58Y-110.185
X68.58Y-112.725
X68.58Y-115.265
X68.58Y-117.805
X68.58Y-120.345
X68.58Y-122.885
X68.58Y-125.425
X72.542Y-131.775
X73.685Y-113.106
X73.812Y-87.224
X75.082Y-131.775
X75.747Y-44.738
X75.747Y-57.438
X77.622Y-131.775
X78.13Y-120.244
X78.765Y-115.138
X78.892Y-87.224
X80.162Y-131.775
X81.331Y-63.906
X82.702Y-131.775
X84.099Y-69.545
X85.242Y-131.775
X85.747Y-44.738
X85.747Y-57.438
X86.512Y-125.374
X86.665Y-63.906
X89.611Y-77.318
X94.339Y-44.272
X95.783Y-130.759
X96.291Y-112.979
X100.33Y-45.395
X100.355Y-50.622
X101.37Y-122.733
X101.37Y-125.273
X101.371Y-117.678
X103.53Y-130.632
X108.204Y-89.535
X111.404Y-75.946
X117.602Y-89.535
X122.428Y-94.945
X123.19Y-89.535
X125.327Y-47.659
X125.603Y-71.501
X130.937Y-71.501
X131.724Y-119.837
X140.843Y-82.042
X140.97Y-71.882
X140.97Y-74.422
X140.97Y-76.962
X142.342Y-118.923
X142.342Y-121.463
X142.342Y-129.083
X142.342Y-131.623
X142.85Y-43.993
X143.408Y-49.073
X143.408Y-51.613
X143.51Y-71.882
X143.51Y-74.422
X143.51Y-76.962
X145.39Y-43.993
T5
X137.966Y-59.69
X137.966Y-62.23
X137.966Y-64.77
T6
X73.965Y-102.667
X73.965Y-105.207
X73.965Y-107.747
X74.066Y-92.202
X74.066Y-94.742
X74.066Y-97.282
X112.776Y-66.599
X113.03Y-83.439
X115.316Y-66.599
X115.57Y-83.439
X117.856Y-66.599
X118.11Y-83.439
X125.222Y-66.599
X125.324Y-83.439
X127.762Y-66.599
X127.864Y-83.439
X130.302Y-66.599
X130.404Y-83.439
T7
X131.206Y-128.321
X131.714Y-49.581
X136.206Y-128.321
X136.714Y-49.581
T8
X109.22Y-94.691
X109.22Y-113.741
X135.585Y-94.691
X135.585Y-113.741
M30
