G04 #@! TF.GenerationSoftware,KiCad,Pcbnew,8.0.8*
G04 #@! TF.CreationDate,2025-02-26T00:31:11-08:00*
G04 #@! TF.ProjectId,AtInverter_v1,4174496e-7665-4727-9465-725f76312e6b,v1*
G04 #@! TF.SameCoordinates,Original*
G04 #@! TF.FileFunction,Legend,Bot*
G04 #@! TF.FilePolarity,Positive*
%FSLAX46Y46*%
G04 Gerber Fmt 4.6, Leading zero omitted, Abs format (unit mm)*
G04 Created by KiCad (PCBNEW 8.0.8) date 2025-02-26 00:31:11*
%MOMM*%
%LPD*%
G01*
G04 APERTURE LIST*
G04 Aperture macros list*
%AMRoundRect*
0 Rectangle with rounded corners*
0 $1 Rounding radius*
0 $2 $3 $4 $5 $6 $7 $8 $9 X,Y pos of 4 corners*
0 Add a 4 corners polygon primitive as box body*
4,1,4,$2,$3,$4,$5,$6,$7,$8,$9,$2,$3,0*
0 Add four circle primitives for the rounded corners*
1,1,$1+$1,$2,$3*
1,1,$1+$1,$4,$5*
1,1,$1+$1,$6,$7*
1,1,$1+$1,$8,$9*
0 Add four rect primitives between the rounded corners*
20,1,$1+$1,$2,$3,$4,$5,0*
20,1,$1+$1,$4,$5,$6,$7,0*
20,1,$1+$1,$6,$7,$8,$9,0*
20,1,$1+$1,$8,$9,$2,$3,0*%
G04 Aperture macros list end*
%ADD10C,0.200000*%
%ADD11C,0.150000*%
%ADD12C,0.000000*%
%ADD13C,0.120000*%
%ADD14R,1.600200X1.600200*%
%ADD15C,1.600200*%
%ADD16R,1.700000X1.700000*%
%ADD17R,1.905000X2.000000*%
%ADD18O,1.905000X2.000000*%
%ADD19R,1.600000X1.600000*%
%ADD20O,1.600000X1.600000*%
%ADD21C,2.100000*%
%ADD22O,1.700000X1.700000*%
%ADD23C,1.500000*%
%ADD24C,1.371600*%
%ADD25RoundRect,0.102000X-0.754000X-0.754000X0.754000X-0.754000X0.754000X0.754000X-0.754000X0.754000X0*%
%ADD26C,1.712000*%
%ADD27R,2.500000X2.500000*%
%ADD28C,2.500000*%
%ADD29C,2.565400*%
G04 APERTURE END LIST*
D10*
X146169543Y-135224619D02*
X146169543Y-134224619D01*
X146169543Y-134224619D02*
X145931448Y-134224619D01*
X145931448Y-134224619D02*
X145788591Y-134272238D01*
X145788591Y-134272238D02*
X145693353Y-134367476D01*
X145693353Y-134367476D02*
X145645734Y-134462714D01*
X145645734Y-134462714D02*
X145598115Y-134653190D01*
X145598115Y-134653190D02*
X145598115Y-134796047D01*
X145598115Y-134796047D02*
X145645734Y-134986523D01*
X145645734Y-134986523D02*
X145693353Y-135081761D01*
X145693353Y-135081761D02*
X145788591Y-135177000D01*
X145788591Y-135177000D02*
X145931448Y-135224619D01*
X145931448Y-135224619D02*
X146169543Y-135224619D01*
X144788591Y-135177000D02*
X144883829Y-135224619D01*
X144883829Y-135224619D02*
X145074305Y-135224619D01*
X145074305Y-135224619D02*
X145169543Y-135177000D01*
X145169543Y-135177000D02*
X145217162Y-135081761D01*
X145217162Y-135081761D02*
X145217162Y-134700809D01*
X145217162Y-134700809D02*
X145169543Y-134605571D01*
X145169543Y-134605571D02*
X145074305Y-134557952D01*
X145074305Y-134557952D02*
X144883829Y-134557952D01*
X144883829Y-134557952D02*
X144788591Y-134605571D01*
X144788591Y-134605571D02*
X144740972Y-134700809D01*
X144740972Y-134700809D02*
X144740972Y-134796047D01*
X144740972Y-134796047D02*
X145217162Y-134891285D01*
X144360019Y-135177000D02*
X144264781Y-135224619D01*
X144264781Y-135224619D02*
X144074305Y-135224619D01*
X144074305Y-135224619D02*
X143979067Y-135177000D01*
X143979067Y-135177000D02*
X143931448Y-135081761D01*
X143931448Y-135081761D02*
X143931448Y-135034142D01*
X143931448Y-135034142D02*
X143979067Y-134938904D01*
X143979067Y-134938904D02*
X144074305Y-134891285D01*
X144074305Y-134891285D02*
X144217162Y-134891285D01*
X144217162Y-134891285D02*
X144312400Y-134843666D01*
X144312400Y-134843666D02*
X144360019Y-134748428D01*
X144360019Y-134748428D02*
X144360019Y-134700809D01*
X144360019Y-134700809D02*
X144312400Y-134605571D01*
X144312400Y-134605571D02*
X144217162Y-134557952D01*
X144217162Y-134557952D02*
X144074305Y-134557952D01*
X144074305Y-134557952D02*
X143979067Y-134605571D01*
X143502876Y-135224619D02*
X143502876Y-134557952D01*
X143502876Y-134224619D02*
X143550495Y-134272238D01*
X143550495Y-134272238D02*
X143502876Y-134319857D01*
X143502876Y-134319857D02*
X143455257Y-134272238D01*
X143455257Y-134272238D02*
X143502876Y-134224619D01*
X143502876Y-134224619D02*
X143502876Y-134319857D01*
X142598115Y-134557952D02*
X142598115Y-135367476D01*
X142598115Y-135367476D02*
X142645734Y-135462714D01*
X142645734Y-135462714D02*
X142693353Y-135510333D01*
X142693353Y-135510333D02*
X142788591Y-135557952D01*
X142788591Y-135557952D02*
X142931448Y-135557952D01*
X142931448Y-135557952D02*
X143026686Y-135510333D01*
X142598115Y-135177000D02*
X142693353Y-135224619D01*
X142693353Y-135224619D02*
X142883829Y-135224619D01*
X142883829Y-135224619D02*
X142979067Y-135177000D01*
X142979067Y-135177000D02*
X143026686Y-135129380D01*
X143026686Y-135129380D02*
X143074305Y-135034142D01*
X143074305Y-135034142D02*
X143074305Y-134748428D01*
X143074305Y-134748428D02*
X143026686Y-134653190D01*
X143026686Y-134653190D02*
X142979067Y-134605571D01*
X142979067Y-134605571D02*
X142883829Y-134557952D01*
X142883829Y-134557952D02*
X142693353Y-134557952D01*
X142693353Y-134557952D02*
X142598115Y-134605571D01*
X142121924Y-134557952D02*
X142121924Y-135224619D01*
X142121924Y-134653190D02*
X142074305Y-134605571D01*
X142074305Y-134605571D02*
X141979067Y-134557952D01*
X141979067Y-134557952D02*
X141836210Y-134557952D01*
X141836210Y-134557952D02*
X141740972Y-134605571D01*
X141740972Y-134605571D02*
X141693353Y-134700809D01*
X141693353Y-134700809D02*
X141693353Y-135224619D01*
X140836210Y-135177000D02*
X140931448Y-135224619D01*
X140931448Y-135224619D02*
X141121924Y-135224619D01*
X141121924Y-135224619D02*
X141217162Y-135177000D01*
X141217162Y-135177000D02*
X141264781Y-135081761D01*
X141264781Y-135081761D02*
X141264781Y-134700809D01*
X141264781Y-134700809D02*
X141217162Y-134605571D01*
X141217162Y-134605571D02*
X141121924Y-134557952D01*
X141121924Y-134557952D02*
X140931448Y-134557952D01*
X140931448Y-134557952D02*
X140836210Y-134605571D01*
X140836210Y-134605571D02*
X140788591Y-134700809D01*
X140788591Y-134700809D02*
X140788591Y-134796047D01*
X140788591Y-134796047D02*
X141264781Y-134891285D01*
X140360019Y-135224619D02*
X140360019Y-134557952D01*
X140360019Y-134748428D02*
X140312400Y-134653190D01*
X140312400Y-134653190D02*
X140264781Y-134605571D01*
X140264781Y-134605571D02*
X140169543Y-134557952D01*
X140169543Y-134557952D02*
X140074305Y-134557952D01*
X139740971Y-135129380D02*
X139693352Y-135177000D01*
X139693352Y-135177000D02*
X139740971Y-135224619D01*
X139740971Y-135224619D02*
X139788590Y-135177000D01*
X139788590Y-135177000D02*
X139740971Y-135129380D01*
X139740971Y-135129380D02*
X139740971Y-135224619D01*
X139740971Y-134605571D02*
X139693352Y-134653190D01*
X139693352Y-134653190D02*
X139740971Y-134700809D01*
X139740971Y-134700809D02*
X139788590Y-134653190D01*
X139788590Y-134653190D02*
X139740971Y-134605571D01*
X139740971Y-134605571D02*
X139740971Y-134700809D01*
X138169543Y-134700809D02*
X138026686Y-134748428D01*
X138026686Y-134748428D02*
X137979067Y-134796047D01*
X137979067Y-134796047D02*
X137931448Y-134891285D01*
X137931448Y-134891285D02*
X137931448Y-135034142D01*
X137931448Y-135034142D02*
X137979067Y-135129380D01*
X137979067Y-135129380D02*
X138026686Y-135177000D01*
X138026686Y-135177000D02*
X138121924Y-135224619D01*
X138121924Y-135224619D02*
X138502876Y-135224619D01*
X138502876Y-135224619D02*
X138502876Y-134224619D01*
X138502876Y-134224619D02*
X138169543Y-134224619D01*
X138169543Y-134224619D02*
X138074305Y-134272238D01*
X138074305Y-134272238D02*
X138026686Y-134319857D01*
X138026686Y-134319857D02*
X137979067Y-134415095D01*
X137979067Y-134415095D02*
X137979067Y-134510333D01*
X137979067Y-134510333D02*
X138026686Y-134605571D01*
X138026686Y-134605571D02*
X138074305Y-134653190D01*
X138074305Y-134653190D02*
X138169543Y-134700809D01*
X138169543Y-134700809D02*
X138502876Y-134700809D01*
X137502876Y-135224619D02*
X137502876Y-134557952D01*
X137502876Y-134748428D02*
X137455257Y-134653190D01*
X137455257Y-134653190D02*
X137407638Y-134605571D01*
X137407638Y-134605571D02*
X137312400Y-134557952D01*
X137312400Y-134557952D02*
X137217162Y-134557952D01*
X136979066Y-134557952D02*
X136740971Y-135224619D01*
X136502876Y-134557952D02*
X136740971Y-135224619D01*
X136740971Y-135224619D02*
X136836209Y-135462714D01*
X136836209Y-135462714D02*
X136883828Y-135510333D01*
X136883828Y-135510333D02*
X136979066Y-135557952D01*
X135693352Y-135224619D02*
X135693352Y-134700809D01*
X135693352Y-134700809D02*
X135740971Y-134605571D01*
X135740971Y-134605571D02*
X135836209Y-134557952D01*
X135836209Y-134557952D02*
X136026685Y-134557952D01*
X136026685Y-134557952D02*
X136121923Y-134605571D01*
X135693352Y-135177000D02*
X135788590Y-135224619D01*
X135788590Y-135224619D02*
X136026685Y-135224619D01*
X136026685Y-135224619D02*
X136121923Y-135177000D01*
X136121923Y-135177000D02*
X136169542Y-135081761D01*
X136169542Y-135081761D02*
X136169542Y-134986523D01*
X136169542Y-134986523D02*
X136121923Y-134891285D01*
X136121923Y-134891285D02*
X136026685Y-134843666D01*
X136026685Y-134843666D02*
X135788590Y-134843666D01*
X135788590Y-134843666D02*
X135693352Y-134796047D01*
X135217161Y-134557952D02*
X135217161Y-135224619D01*
X135217161Y-134653190D02*
X135169542Y-134605571D01*
X135169542Y-134605571D02*
X135074304Y-134557952D01*
X135074304Y-134557952D02*
X134931447Y-134557952D01*
X134931447Y-134557952D02*
X134836209Y-134605571D01*
X134836209Y-134605571D02*
X134788590Y-134700809D01*
X134788590Y-134700809D02*
X134788590Y-135224619D01*
X132979066Y-135129380D02*
X133026685Y-135177000D01*
X133026685Y-135177000D02*
X133169542Y-135224619D01*
X133169542Y-135224619D02*
X133264780Y-135224619D01*
X133264780Y-135224619D02*
X133407637Y-135177000D01*
X133407637Y-135177000D02*
X133502875Y-135081761D01*
X133502875Y-135081761D02*
X133550494Y-134986523D01*
X133550494Y-134986523D02*
X133598113Y-134796047D01*
X133598113Y-134796047D02*
X133598113Y-134653190D01*
X133598113Y-134653190D02*
X133550494Y-134462714D01*
X133550494Y-134462714D02*
X133502875Y-134367476D01*
X133502875Y-134367476D02*
X133407637Y-134272238D01*
X133407637Y-134272238D02*
X133264780Y-134224619D01*
X133264780Y-134224619D02*
X133169542Y-134224619D01*
X133169542Y-134224619D02*
X133026685Y-134272238D01*
X133026685Y-134272238D02*
X132979066Y-134319857D01*
X132121923Y-135224619D02*
X132121923Y-134700809D01*
X132121923Y-134700809D02*
X132169542Y-134605571D01*
X132169542Y-134605571D02*
X132264780Y-134557952D01*
X132264780Y-134557952D02*
X132455256Y-134557952D01*
X132455256Y-134557952D02*
X132550494Y-134605571D01*
X132121923Y-135177000D02*
X132217161Y-135224619D01*
X132217161Y-135224619D02*
X132455256Y-135224619D01*
X132455256Y-135224619D02*
X132550494Y-135177000D01*
X132550494Y-135177000D02*
X132598113Y-135081761D01*
X132598113Y-135081761D02*
X132598113Y-134986523D01*
X132598113Y-134986523D02*
X132550494Y-134891285D01*
X132550494Y-134891285D02*
X132455256Y-134843666D01*
X132455256Y-134843666D02*
X132217161Y-134843666D01*
X132217161Y-134843666D02*
X132121923Y-134796047D01*
X131645732Y-135224619D02*
X131645732Y-134557952D01*
X131645732Y-134748428D02*
X131598113Y-134653190D01*
X131598113Y-134653190D02*
X131550494Y-134605571D01*
X131550494Y-134605571D02*
X131455256Y-134557952D01*
X131455256Y-134557952D02*
X131360018Y-134557952D01*
X131026684Y-135224619D02*
X131026684Y-134557952D01*
X131026684Y-134748428D02*
X130979065Y-134653190D01*
X130979065Y-134653190D02*
X130931446Y-134605571D01*
X130931446Y-134605571D02*
X130836208Y-134557952D01*
X130836208Y-134557952D02*
X130740970Y-134557952D01*
X130407636Y-135224619D02*
X130407636Y-134557952D01*
X130407636Y-134224619D02*
X130455255Y-134272238D01*
X130455255Y-134272238D02*
X130407636Y-134319857D01*
X130407636Y-134319857D02*
X130360017Y-134272238D01*
X130360017Y-134272238D02*
X130407636Y-134224619D01*
X130407636Y-134224619D02*
X130407636Y-134319857D01*
X129788589Y-135224619D02*
X129883827Y-135177000D01*
X129883827Y-135177000D02*
X129931446Y-135081761D01*
X129931446Y-135081761D02*
X129931446Y-134224619D01*
X129264779Y-135224619D02*
X129360017Y-135177000D01*
X129360017Y-135177000D02*
X129407636Y-135081761D01*
X129407636Y-135081761D02*
X129407636Y-134224619D01*
X128740969Y-135224619D02*
X128836207Y-135177000D01*
X128836207Y-135177000D02*
X128883826Y-135129380D01*
X128883826Y-135129380D02*
X128931445Y-135034142D01*
X128931445Y-135034142D02*
X128931445Y-134748428D01*
X128931445Y-134748428D02*
X128883826Y-134653190D01*
X128883826Y-134653190D02*
X128836207Y-134605571D01*
X128836207Y-134605571D02*
X128740969Y-134557952D01*
X128740969Y-134557952D02*
X128598112Y-134557952D01*
X128598112Y-134557952D02*
X128502874Y-134605571D01*
X128502874Y-134605571D02*
X128455255Y-134653190D01*
X128455255Y-134653190D02*
X128407636Y-134748428D01*
X128407636Y-134748428D02*
X128407636Y-135034142D01*
X128407636Y-135034142D02*
X128455255Y-135129380D01*
X128455255Y-135129380D02*
X128502874Y-135177000D01*
X128502874Y-135177000D02*
X128598112Y-135224619D01*
X128598112Y-135224619D02*
X128740969Y-135224619D01*
D11*
X82665295Y-66393219D02*
X82665295Y-65393219D01*
X82665295Y-65393219D02*
X82284343Y-65393219D01*
X82284343Y-65393219D02*
X82189105Y-65440838D01*
X82189105Y-65440838D02*
X82141486Y-65488457D01*
X82141486Y-65488457D02*
X82093867Y-65583695D01*
X82093867Y-65583695D02*
X82093867Y-65726552D01*
X82093867Y-65726552D02*
X82141486Y-65821790D01*
X82141486Y-65821790D02*
X82189105Y-65869409D01*
X82189105Y-65869409D02*
X82284343Y-65917028D01*
X82284343Y-65917028D02*
X82665295Y-65917028D01*
X81665295Y-66393219D02*
X81665295Y-65726552D01*
X81665295Y-65393219D02*
X81712914Y-65440838D01*
X81712914Y-65440838D02*
X81665295Y-65488457D01*
X81665295Y-65488457D02*
X81617676Y-65440838D01*
X81617676Y-65440838D02*
X81665295Y-65393219D01*
X81665295Y-65393219D02*
X81665295Y-65488457D01*
X80617677Y-66297980D02*
X80665296Y-66345600D01*
X80665296Y-66345600D02*
X80808153Y-66393219D01*
X80808153Y-66393219D02*
X80903391Y-66393219D01*
X80903391Y-66393219D02*
X81046248Y-66345600D01*
X81046248Y-66345600D02*
X81141486Y-66250361D01*
X81141486Y-66250361D02*
X81189105Y-66155123D01*
X81189105Y-66155123D02*
X81236724Y-65964647D01*
X81236724Y-65964647D02*
X81236724Y-65821790D01*
X81236724Y-65821790D02*
X81189105Y-65631314D01*
X81189105Y-65631314D02*
X81141486Y-65536076D01*
X81141486Y-65536076D02*
X81046248Y-65440838D01*
X81046248Y-65440838D02*
X80903391Y-65393219D01*
X80903391Y-65393219D02*
X80808153Y-65393219D01*
X80808153Y-65393219D02*
X80665296Y-65440838D01*
X80665296Y-65440838D02*
X80617677Y-65488457D01*
X80046248Y-66393219D02*
X80141486Y-66345600D01*
X80141486Y-66345600D02*
X80189105Y-66297980D01*
X80189105Y-66297980D02*
X80236724Y-66202742D01*
X80236724Y-66202742D02*
X80236724Y-65917028D01*
X80236724Y-65917028D02*
X80189105Y-65821790D01*
X80189105Y-65821790D02*
X80141486Y-65774171D01*
X80141486Y-65774171D02*
X80046248Y-65726552D01*
X80046248Y-65726552D02*
X79903391Y-65726552D01*
X79903391Y-65726552D02*
X79808153Y-65774171D01*
X79808153Y-65774171D02*
X79760534Y-65821790D01*
X79760534Y-65821790D02*
X79712915Y-65917028D01*
X79712915Y-65917028D02*
X79712915Y-66202742D01*
X79712915Y-66202742D02*
X79760534Y-66297980D01*
X79760534Y-66297980D02*
X79808153Y-66345600D01*
X79808153Y-66345600D02*
X79903391Y-66393219D01*
X79903391Y-66393219D02*
X80046248Y-66393219D01*
X79284343Y-65726552D02*
X79284343Y-66393219D01*
X79284343Y-65821790D02*
X79236724Y-65774171D01*
X79236724Y-65774171D02*
X79141486Y-65726552D01*
X79141486Y-65726552D02*
X78998629Y-65726552D01*
X78998629Y-65726552D02*
X78903391Y-65774171D01*
X78903391Y-65774171D02*
X78855772Y-65869409D01*
X78855772Y-65869409D02*
X78855772Y-66393219D01*
X78379581Y-65726552D02*
X78379581Y-66393219D01*
X78379581Y-65821790D02*
X78331962Y-65774171D01*
X78331962Y-65774171D02*
X78236724Y-65726552D01*
X78236724Y-65726552D02*
X78093867Y-65726552D01*
X78093867Y-65726552D02*
X77998629Y-65774171D01*
X77998629Y-65774171D02*
X77951010Y-65869409D01*
X77951010Y-65869409D02*
X77951010Y-66393219D01*
X77093867Y-66345600D02*
X77189105Y-66393219D01*
X77189105Y-66393219D02*
X77379581Y-66393219D01*
X77379581Y-66393219D02*
X77474819Y-66345600D01*
X77474819Y-66345600D02*
X77522438Y-66250361D01*
X77522438Y-66250361D02*
X77522438Y-65869409D01*
X77522438Y-65869409D02*
X77474819Y-65774171D01*
X77474819Y-65774171D02*
X77379581Y-65726552D01*
X77379581Y-65726552D02*
X77189105Y-65726552D01*
X77189105Y-65726552D02*
X77093867Y-65774171D01*
X77093867Y-65774171D02*
X77046248Y-65869409D01*
X77046248Y-65869409D02*
X77046248Y-65964647D01*
X77046248Y-65964647D02*
X77522438Y-66059885D01*
X76189105Y-66345600D02*
X76284343Y-66393219D01*
X76284343Y-66393219D02*
X76474819Y-66393219D01*
X76474819Y-66393219D02*
X76570057Y-66345600D01*
X76570057Y-66345600D02*
X76617676Y-66297980D01*
X76617676Y-66297980D02*
X76665295Y-66202742D01*
X76665295Y-66202742D02*
X76665295Y-65917028D01*
X76665295Y-65917028D02*
X76617676Y-65821790D01*
X76617676Y-65821790D02*
X76570057Y-65774171D01*
X76570057Y-65774171D02*
X76474819Y-65726552D01*
X76474819Y-65726552D02*
X76284343Y-65726552D01*
X76284343Y-65726552D02*
X76189105Y-65774171D01*
X75903390Y-65726552D02*
X75522438Y-65726552D01*
X75760533Y-65393219D02*
X75760533Y-66250361D01*
X75760533Y-66250361D02*
X75712914Y-66345600D01*
X75712914Y-66345600D02*
X75617676Y-66393219D01*
X75617676Y-66393219D02*
X75522438Y-66393219D01*
X75046247Y-66393219D02*
X75141485Y-66345600D01*
X75141485Y-66345600D02*
X75189104Y-66297980D01*
X75189104Y-66297980D02*
X75236723Y-66202742D01*
X75236723Y-66202742D02*
X75236723Y-65917028D01*
X75236723Y-65917028D02*
X75189104Y-65821790D01*
X75189104Y-65821790D02*
X75141485Y-65774171D01*
X75141485Y-65774171D02*
X75046247Y-65726552D01*
X75046247Y-65726552D02*
X74903390Y-65726552D01*
X74903390Y-65726552D02*
X74808152Y-65774171D01*
X74808152Y-65774171D02*
X74760533Y-65821790D01*
X74760533Y-65821790D02*
X74712914Y-65917028D01*
X74712914Y-65917028D02*
X74712914Y-66202742D01*
X74712914Y-66202742D02*
X74760533Y-66297980D01*
X74760533Y-66297980D02*
X74808152Y-66345600D01*
X74808152Y-66345600D02*
X74903390Y-66393219D01*
X74903390Y-66393219D02*
X75046247Y-66393219D01*
X74284342Y-66393219D02*
X74284342Y-65726552D01*
X74284342Y-65917028D02*
X74236723Y-65821790D01*
X74236723Y-65821790D02*
X74189104Y-65774171D01*
X74189104Y-65774171D02*
X74093866Y-65726552D01*
X74093866Y-65726552D02*
X73998628Y-65726552D01*
X73141485Y-66393219D02*
X73712913Y-66393219D01*
X73427199Y-66393219D02*
X73427199Y-65393219D01*
X73427199Y-65393219D02*
X73522437Y-65536076D01*
X73522437Y-65536076D02*
X73617675Y-65631314D01*
X73617675Y-65631314D02*
X73712913Y-65678933D01*
D12*
G36*
X117470970Y-104374680D02*
G01*
X117589093Y-104409234D01*
X117625419Y-104496460D01*
X117587584Y-104648552D01*
X117528001Y-104704681D01*
X117383977Y-104729067D01*
X117373894Y-104729053D01*
X117263398Y-104719347D01*
X117219262Y-104670357D01*
X117211266Y-104550911D01*
X117211722Y-104498341D01*
X117226577Y-104411450D01*
X117284511Y-104378148D01*
X117414874Y-104372755D01*
X117470970Y-104374680D01*
G37*
G36*
X118522823Y-104830893D02*
G01*
X118635082Y-104840652D01*
X118679539Y-104889621D01*
X118687419Y-105009027D01*
X118687397Y-105022588D01*
X118677638Y-105134847D01*
X118628668Y-105179304D01*
X118509262Y-105187184D01*
X118495702Y-105187162D01*
X118383442Y-105177403D01*
X118338986Y-105128433D01*
X118331106Y-105009027D01*
X118331128Y-104995467D01*
X118340887Y-104883207D01*
X118389856Y-104838751D01*
X118509262Y-104830871D01*
X118522823Y-104830893D01*
G37*
G36*
X120214473Y-98971249D02*
G01*
X120214367Y-99011109D01*
X120205502Y-99180531D01*
X120168678Y-99284252D01*
X120084735Y-99352745D01*
X119934513Y-99416481D01*
X119870746Y-99435346D01*
X119698523Y-99465525D01*
X119509544Y-99480109D01*
X119428529Y-99480923D01*
X119288900Y-99468190D01*
X119190095Y-99422376D01*
X119089605Y-99328093D01*
X119020430Y-99247069D01*
X118969548Y-99151205D01*
X118947015Y-99026378D01*
X118942111Y-98843111D01*
X119319787Y-98843111D01*
X119339905Y-98955878D01*
X119349142Y-99034428D01*
X119356097Y-99046972D01*
X119426797Y-99070161D01*
X119539737Y-99078372D01*
X119652439Y-99070398D01*
X119722422Y-99045033D01*
X119743015Y-98993889D01*
X119751918Y-98869975D01*
X119740350Y-98722709D01*
X119709559Y-98595647D01*
X119672840Y-98535247D01*
X119583432Y-98492999D01*
X119480694Y-98517092D01*
X119387354Y-98593096D01*
X119326142Y-98706579D01*
X119319787Y-98843111D01*
X118942111Y-98843111D01*
X118941928Y-98836273D01*
X118942036Y-98817286D01*
X118974067Y-98526527D01*
X119058172Y-98291141D01*
X119187127Y-98125057D01*
X119353712Y-98042202D01*
X119492196Y-98020081D01*
X119724270Y-98009865D01*
X119908733Y-98036898D01*
X120021254Y-98099108D01*
X120093448Y-98228449D01*
X120156515Y-98438664D01*
X120198941Y-98695673D01*
X120208765Y-98869975D01*
X120214473Y-98971249D01*
G37*
G36*
X127914799Y-97868681D02*
G01*
X128024840Y-97900200D01*
X128119999Y-97969480D01*
X128133484Y-97981987D01*
X128306110Y-98197932D01*
X128429768Y-98458274D01*
X128497464Y-98735248D01*
X128502205Y-99001089D01*
X128436997Y-99228032D01*
X128372711Y-99328198D01*
X128281281Y-99401031D01*
X128141271Y-99450012D01*
X127926096Y-99488703D01*
X127862306Y-99496841D01*
X127525017Y-99504239D01*
X127223237Y-99453647D01*
X127159734Y-99407092D01*
X127146884Y-99290930D01*
X127154855Y-99240523D01*
X127181020Y-99190826D01*
X127243942Y-99159867D01*
X127365202Y-99138787D01*
X127566382Y-99118727D01*
X127625927Y-99113116D01*
X127852349Y-99083085D01*
X127992997Y-99039019D01*
X128061124Y-98969167D01*
X128069981Y-98861776D01*
X128032821Y-98705094D01*
X127978147Y-98543459D01*
X127904027Y-98405815D01*
X127807500Y-98327771D01*
X127668286Y-98286012D01*
X127521729Y-98240299D01*
X127418040Y-98143982D01*
X127400445Y-98000106D01*
X127410722Y-97953830D01*
X127449715Y-97905898D01*
X127538933Y-97880928D01*
X127704166Y-97867676D01*
X127751373Y-97865496D01*
X127914799Y-97868681D01*
G37*
G36*
X126424493Y-98805430D02*
G01*
X126419832Y-98904462D01*
X126386475Y-99026132D01*
X126308855Y-99106736D01*
X126172820Y-99153113D01*
X125964215Y-99172101D01*
X125668887Y-99170541D01*
X125578261Y-99168488D01*
X125329610Y-99170555D01*
X125170706Y-99187290D01*
X125092934Y-99219424D01*
X125075140Y-99232560D01*
X124965958Y-99268249D01*
X124817174Y-99282574D01*
X124707369Y-99286033D01*
X124624390Y-99312607D01*
X124564811Y-99386105D01*
X124497991Y-99530311D01*
X124460092Y-99615398D01*
X124400657Y-99718499D01*
X124340962Y-99757276D01*
X124258483Y-99752636D01*
X124175637Y-99728639D01*
X124118749Y-99677974D01*
X124098894Y-99584744D01*
X124112682Y-99430405D01*
X124156718Y-99196413D01*
X124173198Y-99109524D01*
X124210263Y-98877445D01*
X124250479Y-98587168D01*
X124289998Y-98267288D01*
X124324970Y-97946402D01*
X124410860Y-97093797D01*
X124548916Y-97093797D01*
X124572727Y-97094433D01*
X124647753Y-97111233D01*
X124701576Y-97159553D01*
X124735739Y-97250989D01*
X124751783Y-97397138D01*
X124751252Y-97609597D01*
X124735687Y-97899962D01*
X124706630Y-98279830D01*
X124696556Y-98415763D01*
X124686496Y-98611571D01*
X124684904Y-98754101D01*
X124692414Y-98819323D01*
X124708581Y-98829075D01*
X124797572Y-98824866D01*
X124930175Y-98790285D01*
X125073196Y-98736986D01*
X125193441Y-98676623D01*
X125221201Y-98652535D01*
X125711868Y-98652535D01*
X125721242Y-98685771D01*
X125789818Y-98722655D01*
X125853968Y-98699808D01*
X125904734Y-98617108D01*
X125890003Y-98519013D01*
X125872116Y-98501486D01*
X125806442Y-98506993D01*
X125741350Y-98566095D01*
X125711868Y-98652535D01*
X125221201Y-98652535D01*
X125257716Y-98620851D01*
X125275668Y-98585045D01*
X125334766Y-98465265D01*
X125407974Y-98315440D01*
X125495904Y-98150715D01*
X125577087Y-98059223D01*
X125681445Y-98020255D01*
X125839122Y-98012639D01*
X125937821Y-98021077D01*
X126141996Y-98103321D01*
X126295053Y-98266724D01*
X126391161Y-98503392D01*
X126403710Y-98617108D01*
X126424493Y-98805430D01*
G37*
G36*
X122334466Y-98300448D02*
G01*
X122326407Y-98701689D01*
X122288913Y-100351512D01*
X122169716Y-100351512D01*
X122087580Y-100331824D01*
X121989225Y-100236983D01*
X121950971Y-100158319D01*
X121936533Y-100109729D01*
X121936588Y-100109635D01*
X121939908Y-100055446D01*
X121942626Y-99919993D01*
X121944461Y-99723497D01*
X121945134Y-99486182D01*
X121945134Y-98875360D01*
X121790794Y-98875360D01*
X121596279Y-98849303D01*
X121357738Y-98732119D01*
X121161101Y-98526183D01*
X121153271Y-98514852D01*
X121077920Y-98394850D01*
X121039984Y-98290080D01*
X121031251Y-98161798D01*
X121043515Y-97971261D01*
X121045455Y-97955281D01*
X121451734Y-97955281D01*
X121485324Y-98165947D01*
X121582390Y-98346646D01*
X121727979Y-98464307D01*
X121828944Y-98507345D01*
X121880626Y-98513416D01*
X121906521Y-98480871D01*
X121916835Y-98413808D01*
X121922367Y-98274980D01*
X121922999Y-98094385D01*
X121919295Y-97900731D01*
X121911820Y-97722729D01*
X121901136Y-97589090D01*
X121887809Y-97528523D01*
X121877519Y-97523847D01*
X121796867Y-97535560D01*
X121674610Y-97583116D01*
X121587291Y-97631108D01*
X121501702Y-97722942D01*
X121459381Y-97870263D01*
X121451734Y-97955281D01*
X121045455Y-97955281D01*
X121064744Y-97796422D01*
X121102154Y-97600481D01*
X121144262Y-97459747D01*
X121157832Y-97430604D01*
X121296512Y-97257544D01*
X121494570Y-97138247D01*
X121718904Y-97093797D01*
X121853224Y-97075180D01*
X121926727Y-97017444D01*
X121931288Y-97008419D01*
X122008077Y-96960793D01*
X122130770Y-96941330D01*
X122253318Y-96952427D01*
X122329670Y-96996479D01*
X122334248Y-97022041D01*
X122339773Y-97139001D01*
X122342534Y-97337826D01*
X122342554Y-97606012D01*
X122339857Y-97931054D01*
X122337473Y-98094385D01*
X122334466Y-98300448D01*
G37*
G36*
X118211321Y-97791216D02*
G01*
X118210719Y-97801170D01*
X118178571Y-98222583D01*
X118138886Y-98558379D01*
X118092454Y-98803206D01*
X118040065Y-98951713D01*
X118021006Y-98981525D01*
X117930679Y-99093620D01*
X117813540Y-99216067D01*
X117755072Y-99265223D01*
X117567971Y-99364806D01*
X117313615Y-99433251D01*
X116981472Y-99472825D01*
X116561009Y-99485797D01*
X116392498Y-99486842D01*
X116248298Y-99494089D01*
X116165149Y-99513883D01*
X116120105Y-99552598D01*
X116090220Y-99616610D01*
X116083399Y-99637539D01*
X116055732Y-99769903D01*
X116028788Y-99961118D01*
X116007554Y-100177353D01*
X116006452Y-100191812D01*
X115993813Y-100413162D01*
X115998228Y-100565766D01*
X116022865Y-100680116D01*
X116070893Y-100786699D01*
X116134505Y-100880509D01*
X116297349Y-101005951D01*
X116490676Y-101046127D01*
X116691456Y-100993366D01*
X116784682Y-100954979D01*
X116942705Y-100918583D01*
X117085314Y-100912574D01*
X117173175Y-100941210D01*
X117179503Y-101004024D01*
X117152664Y-101115248D01*
X117074431Y-101233683D01*
X116906834Y-101351622D01*
X116676797Y-101434974D01*
X116624392Y-101445791D01*
X116357669Y-101451497D01*
X116099222Y-101385452D01*
X115877481Y-101258207D01*
X115720881Y-101080310D01*
X115708830Y-101058220D01*
X115627749Y-100811372D01*
X115595371Y-100480066D01*
X115611825Y-100068818D01*
X115677245Y-99582145D01*
X115718897Y-99328681D01*
X115756828Y-99075232D01*
X115784764Y-98863480D01*
X115798580Y-98722655D01*
X115811467Y-98493596D01*
X116025176Y-98478072D01*
X116238885Y-98462548D01*
X116254234Y-98758032D01*
X116261067Y-98864823D01*
X116279062Y-98985180D01*
X116312591Y-99040314D01*
X116370846Y-99053516D01*
X116420296Y-99043453D01*
X116460878Y-98994706D01*
X116492317Y-98886241D01*
X116523551Y-98697204D01*
X116540357Y-98583308D01*
X116567030Y-98443734D01*
X116600376Y-98369408D01*
X116653729Y-98337440D01*
X116740425Y-98324941D01*
X116839109Y-98321077D01*
X116894327Y-98351848D01*
X116905856Y-98442380D01*
X116911316Y-98526324D01*
X116937786Y-98692407D01*
X116978265Y-98868321D01*
X117023810Y-99017123D01*
X117065482Y-99101873D01*
X117088263Y-99119957D01*
X117109463Y-99089148D01*
X117139099Y-99049540D01*
X117232812Y-99028065D01*
X117341961Y-98999696D01*
X117488029Y-98912819D01*
X117617838Y-98796180D01*
X117692425Y-98679343D01*
X117706636Y-98612808D01*
X117731202Y-98461255D01*
X117760752Y-98253824D01*
X117791629Y-98014995D01*
X117819686Y-97807723D01*
X117852511Y-97607556D01*
X117882594Y-97464625D01*
X117905846Y-97400919D01*
X117975100Y-97364624D01*
X118095342Y-97326946D01*
X118241342Y-97292443D01*
X118211321Y-97791216D01*
G37*
G36*
X121816572Y-103051836D02*
G01*
X121738913Y-103202013D01*
X122160472Y-103202013D01*
X122186547Y-103202137D01*
X122427191Y-103210704D01*
X122721412Y-103230796D01*
X123043333Y-103259656D01*
X123367079Y-103294527D01*
X123666774Y-103332652D01*
X123916541Y-103371275D01*
X124090504Y-103407638D01*
X124170295Y-103432769D01*
X124347948Y-103533602D01*
X124431499Y-103667907D01*
X124418760Y-103829584D01*
X124307543Y-104012537D01*
X124277021Y-104049491D01*
X124212161Y-104134991D01*
X124195997Y-104169148D01*
X124209435Y-104165775D01*
X124298245Y-104136362D01*
X124449571Y-104083212D01*
X124640581Y-104014279D01*
X124739098Y-103980502D01*
X125082212Y-103890131D01*
X125435019Y-103832629D01*
X125763999Y-103812336D01*
X126035629Y-103833595D01*
X126145544Y-103861402D01*
X126206957Y-103913060D01*
X126220886Y-104011703D01*
X126216208Y-104052208D01*
X126177323Y-104193020D01*
X126144360Y-104282280D01*
X126107570Y-104381903D01*
X126017278Y-104589542D01*
X125969737Y-104691157D01*
X125872457Y-104909832D01*
X125826101Y-105058068D01*
X125836626Y-105151899D01*
X125909987Y-105207355D01*
X126052139Y-105240469D01*
X126269038Y-105267273D01*
X126425236Y-105279648D01*
X126622952Y-105267575D01*
X126813367Y-105212624D01*
X126831147Y-105205900D01*
X126990477Y-105157665D01*
X127131724Y-105150854D01*
X127311835Y-105181964D01*
X127590760Y-105264546D01*
X127986138Y-105449972D01*
X128353420Y-105699472D01*
X128677911Y-105998835D01*
X128944918Y-106333852D01*
X129139747Y-106690315D01*
X129237365Y-107019178D01*
X129247706Y-107054014D01*
X129260629Y-107169621D01*
X129238791Y-107344104D01*
X129150592Y-107445173D01*
X128993062Y-107477765D01*
X128816516Y-107477765D01*
X128837239Y-107933834D01*
X128850053Y-108215841D01*
X128883590Y-108953917D01*
X128731852Y-108953917D01*
X128674886Y-108951018D01*
X128610568Y-108933943D01*
X128544136Y-108892412D01*
X128466753Y-108816236D01*
X128369585Y-108695229D01*
X128243794Y-108519201D01*
X128080545Y-108277964D01*
X127871003Y-107961332D01*
X127736431Y-107758281D01*
X127531890Y-107457452D01*
X127414748Y-107294873D01*
X128015668Y-107294873D01*
X128019751Y-107319420D01*
X128067333Y-107406987D01*
X128151405Y-107531569D01*
X128208043Y-107614016D01*
X128279802Y-107735705D01*
X128307860Y-107810031D01*
X128323401Y-107858939D01*
X128392197Y-107942374D01*
X128407803Y-107955009D01*
X128450532Y-107976823D01*
X128459566Y-107933834D01*
X128441299Y-107808627D01*
X128372500Y-107616885D01*
X128221225Y-107439587D01*
X128156275Y-107383871D01*
X128061758Y-107313461D01*
X128015668Y-107294873D01*
X127414748Y-107294873D01*
X127363067Y-107223145D01*
X127219153Y-107042141D01*
X127089341Y-106901221D01*
X126962820Y-106787167D01*
X126828782Y-106686760D01*
X126806178Y-106671210D01*
X126685900Y-106597319D01*
X126616756Y-106580997D01*
X126575035Y-106615596D01*
X126534032Y-106706565D01*
X126494224Y-106861413D01*
X126459444Y-107081560D01*
X126428550Y-107376133D01*
X126400402Y-107754257D01*
X126373859Y-108225058D01*
X126349802Y-108668185D01*
X126315550Y-109187307D01*
X126279579Y-109610609D01*
X126242041Y-109936596D01*
X126203088Y-110163774D01*
X126162874Y-110290649D01*
X126161052Y-110294018D01*
X126128154Y-110338547D01*
X126075191Y-110365430D01*
X125981781Y-110377420D01*
X125827544Y-110377270D01*
X125592101Y-110367731D01*
X125585351Y-110367409D01*
X125289020Y-110343961D01*
X125044632Y-110306521D01*
X124877016Y-110258869D01*
X124678437Y-110174323D01*
X124710940Y-109643095D01*
X124726276Y-109448303D01*
X124788257Y-109038112D01*
X124896794Y-108633138D01*
X124925516Y-108541489D01*
X125009259Y-108233833D01*
X125045902Y-108012563D01*
X125035324Y-107878903D01*
X124977400Y-107834077D01*
X124952590Y-107843178D01*
X124897275Y-107935943D01*
X124847430Y-108126763D01*
X124821733Y-108255378D01*
X124702577Y-108783258D01*
X124578749Y-109224751D01*
X124451498Y-109576777D01*
X124322072Y-109836255D01*
X124191721Y-110000103D01*
X124061694Y-110065241D01*
X123916297Y-110065033D01*
X123698720Y-110019816D01*
X123500513Y-109935056D01*
X123362573Y-109824816D01*
X123318796Y-109762585D01*
X123287836Y-109686048D01*
X123273732Y-109579907D01*
X123273567Y-109420202D01*
X123284423Y-109182975D01*
X123327783Y-108759910D01*
X123443195Y-108244413D01*
X123446756Y-108232708D01*
X123509889Y-108001080D01*
X123535501Y-107848688D01*
X123522359Y-107782724D01*
X123498688Y-107776232D01*
X123387566Y-107760514D01*
X123203475Y-107740892D01*
X122963851Y-107718672D01*
X122686131Y-107695163D01*
X122387750Y-107671669D01*
X122086144Y-107649498D01*
X121798750Y-107629956D01*
X121543002Y-107614350D01*
X121336337Y-107603985D01*
X121196191Y-107600170D01*
X121139999Y-107604209D01*
X121136179Y-107632554D01*
X121136647Y-107747900D01*
X121143684Y-107935401D01*
X121156582Y-108177618D01*
X121174633Y-108457112D01*
X121184931Y-108609605D01*
X121211819Y-109079913D01*
X121227172Y-109484865D01*
X121230993Y-109817302D01*
X121223290Y-110070065D01*
X121204065Y-110235995D01*
X121173325Y-110307934D01*
X121086889Y-110344279D01*
X120956992Y-110382080D01*
X120797133Y-110411661D01*
X120584745Y-110424271D01*
X120414492Y-110403533D01*
X120313843Y-110350785D01*
X120288208Y-110282873D01*
X120264904Y-110136772D01*
X120244003Y-109907131D01*
X120224956Y-109587861D01*
X120207211Y-109172878D01*
X120191094Y-108778464D01*
X120173621Y-108472194D01*
X120151905Y-108244696D01*
X120122974Y-108084432D01*
X120083860Y-107979866D01*
X120031593Y-107919460D01*
X119963203Y-107891676D01*
X119875722Y-107884979D01*
X119756357Y-107884979D01*
X119756608Y-108788486D01*
X119756357Y-108939576D01*
X119752658Y-109258099D01*
X119743512Y-109499289D01*
X119727601Y-109680637D01*
X119703603Y-109819636D01*
X119670200Y-109933777D01*
X119583540Y-110175560D01*
X119010016Y-110175560D01*
X118885919Y-110175374D01*
X118675618Y-110172413D01*
X118538909Y-110163107D01*
X118456354Y-110143988D01*
X118408515Y-110111589D01*
X118375952Y-110062442D01*
X118359121Y-110009279D01*
X118344754Y-109893492D01*
X118336721Y-109712622D01*
X118334841Y-109457526D01*
X118338934Y-109119063D01*
X118348818Y-108688093D01*
X118355314Y-108413752D01*
X118360729Y-108094952D01*
X118362929Y-107823183D01*
X118361900Y-107612125D01*
X118357627Y-107475459D01*
X118350098Y-107426863D01*
X118348842Y-107426930D01*
X118283262Y-107444928D01*
X118150976Y-107488629D01*
X117979120Y-107549094D01*
X117904630Y-107575167D01*
X117489423Y-107686517D01*
X117134190Y-107719228D01*
X116840355Y-107673716D01*
X116609343Y-107550396D01*
X116442580Y-107349684D01*
X116341490Y-107071994D01*
X116328869Y-106998126D01*
X116311738Y-106742120D01*
X116316777Y-106413260D01*
X116319912Y-106365931D01*
X116710700Y-106365931D01*
X116718449Y-106459554D01*
X116754927Y-106511923D01*
X116828052Y-106551609D01*
X116901184Y-106574780D01*
X117067257Y-106601875D01*
X117255377Y-106612434D01*
X117420107Y-106609102D01*
X117517690Y-106589718D01*
X117574691Y-106540334D01*
X117622020Y-106447003D01*
X117664934Y-106364425D01*
X117746976Y-106292905D01*
X117885715Y-106265774D01*
X117935551Y-106261875D01*
X118034007Y-106265863D01*
X118070974Y-106315011D01*
X118076597Y-106436238D01*
X118058241Y-106599911D01*
X117997053Y-106782874D01*
X117907134Y-106924599D01*
X117803301Y-106994805D01*
X117766434Y-107000750D01*
X117629858Y-107013120D01*
X117435062Y-107024299D01*
X117211266Y-107032430D01*
X116727699Y-107045099D01*
X116870836Y-107190550D01*
X116945838Y-107261500D01*
X117026915Y-107307174D01*
X117132159Y-107316853D01*
X117299717Y-107300299D01*
X117517214Y-107257117D01*
X117874268Y-107137592D01*
X118280204Y-106953425D01*
X118373210Y-106876962D01*
X118423397Y-106725539D01*
X118425400Y-106707391D01*
X118465155Y-106586982D01*
X118556990Y-106532330D01*
X118666572Y-106462031D01*
X118754035Y-106329639D01*
X118789222Y-106177374D01*
X118789249Y-106175478D01*
X118833715Y-106120968D01*
X118967379Y-106103416D01*
X119145535Y-106103416D01*
X119144613Y-106370651D01*
X119140964Y-106465582D01*
X119097871Y-106681200D01*
X118993969Y-106909482D01*
X118931228Y-107032980D01*
X118882017Y-107164115D01*
X118846455Y-107318204D01*
X118818606Y-107521502D01*
X118792533Y-107800264D01*
X118773033Y-108063224D01*
X118751357Y-108419746D01*
X118732969Y-108788529D01*
X118720477Y-109121698D01*
X118700135Y-109823949D01*
X118978695Y-109808873D01*
X119138936Y-109796758D01*
X119230067Y-109769434D01*
X119282515Y-109707174D01*
X119327883Y-109590190D01*
X119341099Y-109545004D01*
X119367230Y-109390236D01*
X119385212Y-109164148D01*
X119395682Y-108856644D01*
X119399278Y-108457625D01*
X119400044Y-107528667D01*
X119879460Y-107528667D01*
X120358875Y-107528667D01*
X120459735Y-107694097D01*
X120491417Y-107753309D01*
X120518385Y-107829961D01*
X120538462Y-107933167D01*
X120553129Y-108077978D01*
X120563863Y-108279443D01*
X120572143Y-108552610D01*
X120579448Y-108912531D01*
X120581119Y-108999982D01*
X120588795Y-109309446D01*
X120598184Y-109579425D01*
X120608566Y-109794341D01*
X120619224Y-109938616D01*
X120629438Y-109996672D01*
X120679913Y-110009306D01*
X120785965Y-109996339D01*
X120831728Y-109983114D01*
X120875660Y-109953072D01*
X120896172Y-109890122D01*
X120898867Y-109771370D01*
X120889348Y-109573922D01*
X120888695Y-109562618D01*
X120870453Y-109344902D01*
X120844513Y-109144974D01*
X120816267Y-109004819D01*
X120805504Y-108952517D01*
X120785891Y-108792999D01*
X120766909Y-108566395D01*
X120750288Y-108294833D01*
X120737756Y-108000438D01*
X120734199Y-107891230D01*
X120726478Y-107611431D01*
X120724735Y-107413510D01*
X120730038Y-107282448D01*
X120743455Y-107203225D01*
X120766054Y-107160823D01*
X120798902Y-107140221D01*
X120824628Y-107132935D01*
X120873510Y-107127530D01*
X120950184Y-107127215D01*
X121065142Y-107132801D01*
X121228876Y-107145093D01*
X121451878Y-107164901D01*
X121744639Y-107193032D01*
X122117651Y-107230295D01*
X122581407Y-107277497D01*
X122724963Y-107292131D01*
X123029342Y-107322911D01*
X123328331Y-107352873D01*
X123573992Y-107377202D01*
X123653373Y-107385026D01*
X123836489Y-107403420D01*
X123966535Y-107416991D01*
X124019383Y-107423245D01*
X124033536Y-107440765D01*
X124041293Y-107536754D01*
X124026145Y-107694862D01*
X123991791Y-107891591D01*
X123941932Y-108103441D01*
X123880265Y-108306913D01*
X123831797Y-108453131D01*
X123744157Y-108760269D01*
X123682864Y-109039358D01*
X123650577Y-109273698D01*
X123649957Y-109446589D01*
X123683662Y-109541333D01*
X123690196Y-109547548D01*
X123816312Y-109622414D01*
X123922267Y-109601970D01*
X123995293Y-109488386D01*
X124047902Y-109362611D01*
X124112156Y-109258576D01*
X124141178Y-109214940D01*
X124180385Y-109123375D01*
X124224269Y-108982284D01*
X124275373Y-108781513D01*
X124336239Y-108510905D01*
X124409411Y-108160302D01*
X124497429Y-107719548D01*
X124555037Y-107426863D01*
X125006198Y-107426863D01*
X125457359Y-107426863D01*
X125457359Y-107877384D01*
X125454548Y-108061116D01*
X125433679Y-108321026D01*
X125386561Y-108545496D01*
X125306259Y-108775761D01*
X125293841Y-108809063D01*
X125249919Y-108944166D01*
X125202713Y-109106623D01*
X125187696Y-109161114D01*
X125137244Y-109339739D01*
X125095108Y-109483256D01*
X125079712Y-109538243D01*
X125052329Y-109709059D01*
X125066434Y-109826483D01*
X125120678Y-109870150D01*
X125213280Y-109892471D01*
X125337011Y-109946189D01*
X125476405Y-109997463D01*
X125640093Y-110022541D01*
X125741455Y-110011832D01*
X125806564Y-109957835D01*
X125856375Y-109831973D01*
X125872812Y-109738749D01*
X125891675Y-109555742D01*
X125911006Y-109301389D01*
X125929758Y-108991339D01*
X125946881Y-108641241D01*
X125961325Y-108266743D01*
X125965618Y-108139278D01*
X125979501Y-107750319D01*
X125992529Y-107444760D01*
X126006148Y-107208294D01*
X126021805Y-107026611D01*
X126040948Y-106885402D01*
X126065022Y-106770358D01*
X126095476Y-106667171D01*
X126133755Y-106561532D01*
X126202988Y-106392465D01*
X126302153Y-106175632D01*
X126341606Y-106099769D01*
X126915335Y-106099769D01*
X126934957Y-106163980D01*
X127008590Y-106239666D01*
X127151364Y-106349648D01*
X127280697Y-106448816D01*
X127410185Y-106556262D01*
X127486998Y-106630134D01*
X127550634Y-106693183D01*
X127616667Y-106701236D01*
X127660885Y-106612434D01*
X127675804Y-106577522D01*
X127765072Y-106515471D01*
X127902564Y-106508779D01*
X128061978Y-106555495D01*
X128217010Y-106653668D01*
X128238413Y-106671588D01*
X128406495Y-106797580D01*
X128578004Y-106908177D01*
X128631457Y-106938462D01*
X128740034Y-106996574D01*
X128793076Y-107019649D01*
X128795703Y-107019178D01*
X128794461Y-106972112D01*
X128753294Y-106865768D01*
X128683475Y-106725517D01*
X128596276Y-106576732D01*
X128504088Y-106449116D01*
X128305524Y-106233089D01*
X128067512Y-106023677D01*
X127810673Y-105835446D01*
X127555630Y-105682962D01*
X127323005Y-105580790D01*
X127133419Y-105543496D01*
X127038222Y-105552094D01*
X126993461Y-105600029D01*
X126984413Y-105718339D01*
X126981972Y-105745860D01*
X126970294Y-105877511D01*
X126934971Y-106023223D01*
X126934596Y-106024210D01*
X126915335Y-106099769D01*
X126341606Y-106099769D01*
X126392652Y-106001613D01*
X126466411Y-105869324D01*
X126515505Y-105745860D01*
X126493209Y-105678680D01*
X126390214Y-105650817D01*
X126197214Y-105645300D01*
X125933514Y-105627491D01*
X125544540Y-105531736D01*
X125205151Y-105359474D01*
X125178213Y-105341390D01*
X125121444Y-105307719D01*
X125058118Y-105282285D01*
X124974630Y-105263923D01*
X124857372Y-105251471D01*
X124692738Y-105243764D01*
X124467120Y-105239639D01*
X124166913Y-105237933D01*
X123778508Y-105237481D01*
X123621723Y-105237252D01*
X123232372Y-105234672D01*
X122925981Y-105228657D01*
X122688577Y-105218452D01*
X122506185Y-105203305D01*
X122364833Y-105182463D01*
X122250545Y-105155174D01*
X122145654Y-105129790D01*
X121927130Y-105091004D01*
X121667171Y-105056056D01*
X121401912Y-105030265D01*
X121259695Y-105017493D01*
X120905711Y-104971322D01*
X120556949Y-104908116D01*
X120245597Y-104834194D01*
X120003843Y-104755871D01*
X119974530Y-104733302D01*
X119911288Y-104631253D01*
X119858607Y-104484026D01*
X119825470Y-104375195D01*
X119771542Y-104232315D01*
X120236781Y-104232315D01*
X120243790Y-104305733D01*
X120334949Y-104378620D01*
X120503540Y-104452056D01*
X120725412Y-104518746D01*
X120976442Y-104571439D01*
X121232509Y-104602885D01*
X121509903Y-104627399D01*
X121930066Y-104678446D01*
X122324723Y-104741895D01*
X122655728Y-104812139D01*
X122671872Y-104815994D01*
X122824860Y-104840761D01*
X123043755Y-104859315D01*
X123337503Y-104872063D01*
X123715055Y-104879413D01*
X124185358Y-104881773D01*
X125437059Y-104881773D01*
X125550188Y-104567357D01*
X125593083Y-104436856D01*
X125626529Y-104282280D01*
X125615066Y-104204691D01*
X125554275Y-104177515D01*
X125405208Y-104181577D01*
X125196995Y-104231797D01*
X124945782Y-104323930D01*
X124667717Y-104453732D01*
X124561821Y-104507543D01*
X124370350Y-104597338D01*
X124225586Y-104648203D01*
X124098907Y-104668818D01*
X123961688Y-104667865D01*
X123939194Y-104666448D01*
X123796152Y-104646080D01*
X123712171Y-104597480D01*
X123680762Y-104503640D01*
X123695435Y-104347548D01*
X123749702Y-104112196D01*
X123785536Y-103958883D01*
X123807851Y-103832275D01*
X123807974Y-103775341D01*
X123788463Y-103760804D01*
X123673340Y-103721237D01*
X123470600Y-103687463D01*
X123176721Y-103659112D01*
X122788178Y-103635813D01*
X122301447Y-103617196D01*
X121207058Y-103583777D01*
X121190859Y-103415021D01*
X121190451Y-103410528D01*
X121197056Y-103272949D01*
X121233418Y-103175467D01*
X121263401Y-103129619D01*
X121255163Y-103056398D01*
X121150805Y-103012823D01*
X120949545Y-102998406D01*
X120793076Y-103000952D01*
X120709347Y-103017728D01*
X120677581Y-103062393D01*
X120672589Y-103148606D01*
X120661955Y-103263187D01*
X120647555Y-103418358D01*
X120646679Y-103427798D01*
X120546744Y-103750181D01*
X120380764Y-104016508D01*
X120296868Y-104121855D01*
X120236781Y-104232315D01*
X119771542Y-104232315D01*
X119746479Y-104165912D01*
X119655967Y-103965540D01*
X119605158Y-103869362D01*
X119511862Y-103734316D01*
X119393982Y-103634873D01*
X119316350Y-103591886D01*
X119944668Y-103591886D01*
X119978322Y-103644071D01*
X120052310Y-103645942D01*
X120163571Y-103558326D01*
X120205597Y-103513112D01*
X120262111Y-103418358D01*
X120235026Y-103371069D01*
X120125905Y-103378687D01*
X120045129Y-103405409D01*
X119946842Y-103484110D01*
X119944668Y-103591886D01*
X119316350Y-103591886D01*
X119215833Y-103536227D01*
X119143227Y-103500551D01*
X119021318Y-103447634D01*
X118906910Y-103415379D01*
X118772693Y-103399573D01*
X118591361Y-103396006D01*
X118335604Y-103400464D01*
X118202592Y-103404144D01*
X117956448Y-103417840D01*
X117776156Y-103444622D01*
X117636635Y-103491710D01*
X117512806Y-103566323D01*
X117379591Y-103675681D01*
X117374938Y-103679886D01*
X117285533Y-103819667D01*
X117234315Y-104043496D01*
X117216482Y-104156726D01*
X117174478Y-104284059D01*
X117112848Y-104335716D01*
X117057186Y-104374475D01*
X116998454Y-104478934D01*
X116942872Y-104653789D01*
X116889126Y-104905311D01*
X116835903Y-105239768D01*
X116781887Y-105663432D01*
X116725765Y-106182571D01*
X116723759Y-106202481D01*
X116710700Y-106365931D01*
X116319912Y-106365931D01*
X116342143Y-106030349D01*
X116385991Y-105612189D01*
X116446479Y-105177583D01*
X116521760Y-104745334D01*
X116609993Y-104334245D01*
X116722447Y-103863070D01*
X116610544Y-103482713D01*
X116594911Y-103427056D01*
X116524492Y-103078534D01*
X116508420Y-102871152D01*
X116844581Y-102871152D01*
X116875520Y-103044457D01*
X116876920Y-103052062D01*
X116915335Y-103190438D01*
X116963292Y-103286240D01*
X116997229Y-103320062D01*
X117064794Y-103354719D01*
X117099113Y-103338537D01*
X117105222Y-103263187D01*
X117061569Y-103149632D01*
X116975191Y-103023857D01*
X116954018Y-102999102D01*
X117970458Y-102999102D01*
X118546763Y-102966187D01*
X118715794Y-102957411D01*
X118932858Y-102951668D01*
X119084846Y-102958604D01*
X119194479Y-102979776D01*
X119284479Y-103016741D01*
X119359966Y-103053675D01*
X119468176Y-103086637D01*
X119581102Y-103078802D01*
X119743631Y-103031624D01*
X119793017Y-103014379D01*
X119889867Y-102965000D01*
X119887448Y-102927873D01*
X119787292Y-102904361D01*
X119590926Y-102895823D01*
X119513509Y-102895179D01*
X119333913Y-102884491D01*
X119225103Y-102852303D01*
X119163856Y-102787825D01*
X119126952Y-102680270D01*
X119122978Y-102664961D01*
X119068583Y-102567041D01*
X118963248Y-102540290D01*
X118775963Y-102565645D01*
X118540665Y-102637864D01*
X118312975Y-102739876D01*
X118138057Y-102854485D01*
X117970458Y-102999102D01*
X116954018Y-102999102D01*
X116844581Y-102871152D01*
X116508420Y-102871152D01*
X116498641Y-102744970D01*
X116498641Y-102387584D01*
X116703386Y-102387584D01*
X116726109Y-102387827D01*
X116859969Y-102406626D01*
X116981595Y-102468350D01*
X117129018Y-102591192D01*
X117229707Y-102679346D01*
X117338552Y-102762632D01*
X117400841Y-102794799D01*
X117429910Y-102785289D01*
X117525504Y-102727680D01*
X117649658Y-102635193D01*
X117843815Y-102498417D01*
X118243776Y-102302023D01*
X118712870Y-102162203D01*
X118905479Y-102118176D01*
X119121598Y-102065325D01*
X119288281Y-102020935D01*
X119435090Y-101990580D01*
X119537845Y-102013437D01*
X119588676Y-102109497D01*
X119602872Y-102291929D01*
X119603651Y-102476234D01*
X119947238Y-102509954D01*
X119956711Y-102510876D01*
X120147094Y-102527677D01*
X120404370Y-102548204D01*
X120695990Y-102569944D01*
X120989404Y-102590385D01*
X121319702Y-102615742D01*
X121576910Y-102646473D01*
X121751353Y-102686729D01*
X121852786Y-102741951D01*
X121890963Y-102817581D01*
X121875640Y-102919062D01*
X121855203Y-102965000D01*
X121816572Y-103051836D01*
G37*
D13*
X63750000Y-130795200D02*
X63750000Y-71795200D01*
X64710000Y-75835200D02*
X64710000Y-126755200D01*
X66810000Y-68735200D02*
X70250000Y-68735200D01*
X67310000Y-124155200D02*
X67310000Y-126755200D01*
X67310000Y-126755200D02*
X64710000Y-126755200D01*
X69910000Y-75835200D02*
X64710000Y-75835200D01*
X69910000Y-75835200D02*
X69910000Y-124155200D01*
X69910000Y-124155200D02*
X67310000Y-124155200D01*
X69910000Y-125425200D02*
X69910000Y-126755200D01*
X69910000Y-126755200D02*
X68580000Y-126755200D01*
X70250000Y-67535200D02*
X70250000Y-68735200D01*
X87370000Y-67535200D02*
X70250000Y-67535200D01*
X87370000Y-68735200D02*
X87370000Y-67535200D01*
X90810000Y-68735200D02*
X87370000Y-68735200D01*
X90810000Y-133855200D02*
X66810000Y-133855200D01*
X93870000Y-75735200D02*
X93870000Y-71795200D01*
X93870000Y-83855200D02*
X95670000Y-83855200D01*
X93870000Y-88335200D02*
X93870000Y-83855200D01*
X93870000Y-96455200D02*
X95670000Y-96455200D01*
X93870000Y-115685200D02*
X93870000Y-96455200D01*
X93870000Y-127105200D02*
X94570000Y-127105200D01*
X93870000Y-130795200D02*
X93870000Y-127105200D01*
X94570000Y-115685200D02*
X93870000Y-115685200D01*
X94570000Y-127105200D02*
X94570000Y-115685200D01*
X95670000Y-75735200D02*
X93870000Y-75735200D01*
X95670000Y-83855200D02*
X95670000Y-75735200D01*
X95670000Y-88335200D02*
X93870000Y-88335200D01*
X95670000Y-96455200D02*
X95670000Y-88335200D01*
X63750000Y-71795200D02*
G75*
G02*
X66810000Y-68735200I3059999J1D01*
G01*
X66810000Y-133855200D02*
G75*
G02*
X63750000Y-130795200I-1J3059999D01*
G01*
X90810000Y-68735200D02*
G75*
G02*
X93870000Y-71795200I0J-3060000D01*
G01*
X93870000Y-130795200D02*
G75*
G02*
X90810000Y-133855200I-3060000J0D01*
G01*
%LPC*%
D14*
X137966000Y-59690000D03*
D15*
X137966000Y-62230000D03*
X137966000Y-64770000D03*
D16*
X125327400Y-47659400D03*
D17*
X125222000Y-66598800D03*
D18*
X127762000Y-66598800D03*
X130302000Y-66598800D03*
D16*
X100330000Y-45395000D03*
X81330800Y-63906400D03*
X125603000Y-71501000D03*
D19*
X91455400Y-115011200D03*
D20*
X91455400Y-112471200D03*
X91455400Y-109931200D03*
X91455400Y-107391200D03*
X91455400Y-104851200D03*
X91455400Y-102311200D03*
X91455400Y-99771200D03*
X91455400Y-97231200D03*
X91455400Y-94691200D03*
X91455400Y-92151200D03*
X91455400Y-89611200D03*
X91455400Y-87071200D03*
X91455400Y-84531200D03*
X91455400Y-81991200D03*
X83835400Y-81991200D03*
X83835400Y-84531200D03*
X83835400Y-87071200D03*
X83835400Y-89611200D03*
X83835400Y-92151200D03*
X83835400Y-94691200D03*
X83835400Y-97231200D03*
X83835400Y-99771200D03*
X83835400Y-102311200D03*
X83835400Y-104851200D03*
X83835400Y-107391200D03*
X83835400Y-109931200D03*
X83835400Y-112471200D03*
X83835400Y-115011200D03*
D16*
X89611200Y-77317600D03*
D17*
X112776000Y-66598800D03*
D18*
X115316000Y-66598800D03*
X117856000Y-66598800D03*
D16*
X78130400Y-120243600D03*
D21*
X73964800Y-107746800D03*
X73964800Y-105206800D03*
X73964800Y-102666800D03*
D16*
X78892400Y-87223600D03*
X100355400Y-50622200D03*
D21*
X74066400Y-97282000D03*
X74066400Y-94742000D03*
X74066400Y-92202000D03*
D16*
X140843000Y-82042000D03*
D22*
X140970000Y-71882000D03*
X143510000Y-71882000D03*
X140970000Y-74422000D03*
X143510000Y-74422000D03*
X140970000Y-76962000D03*
D16*
X143510000Y-76962000D03*
X101371400Y-117678200D03*
X95783400Y-130759200D03*
D23*
X97561400Y-85624800D03*
X97561400Y-90624800D03*
D16*
X84099400Y-69545200D03*
D19*
X78790800Y-69467400D03*
D20*
X78790800Y-72007400D03*
X78790800Y-74547400D03*
X78790800Y-77087400D03*
X78790800Y-79627400D03*
X78790800Y-82167400D03*
D24*
X124866400Y-117094000D03*
X119866400Y-117094000D03*
D16*
X73685400Y-113106200D03*
D24*
X113131600Y-122986800D03*
X108131600Y-122986800D03*
D17*
X113030000Y-83439000D03*
D18*
X115570000Y-83439000D03*
X118110000Y-83439000D03*
D19*
X78841600Y-110185200D03*
D20*
X78841600Y-107645200D03*
X78841600Y-105105200D03*
X78841600Y-102565200D03*
X78841600Y-100025200D03*
X78841600Y-97485200D03*
X78841600Y-94945200D03*
X78841600Y-92405200D03*
D16*
X142341600Y-118922800D03*
D22*
X142341600Y-121462800D03*
D16*
X108204000Y-89535000D03*
X123190000Y-89535000D03*
X122428000Y-94945200D03*
X66852800Y-56926600D03*
X142341600Y-129082800D03*
D22*
X142341600Y-131622800D03*
D25*
X75746600Y-44738400D03*
D26*
X75746600Y-57438400D03*
X85746600Y-57438400D03*
X85746600Y-44738400D03*
D16*
X111404400Y-75946000D03*
X94339400Y-44272200D03*
D27*
X131713600Y-49580800D03*
D28*
X136713600Y-49580800D03*
D16*
X103530400Y-130632200D03*
X130937000Y-71501000D03*
X86512400Y-125374400D03*
D29*
X135585200Y-113741200D03*
X135585200Y-94691200D03*
D17*
X125323600Y-83439000D03*
D18*
X127863600Y-83439000D03*
X130403600Y-83439000D03*
D16*
X117602000Y-89535000D03*
X85242400Y-131775200D03*
D22*
X82702400Y-131775200D03*
X80162400Y-131775200D03*
X77622400Y-131775200D03*
X75082400Y-131775200D03*
X72542400Y-131775200D03*
D16*
X143408400Y-49072800D03*
D22*
X143408400Y-51612800D03*
D16*
X131724400Y-119837200D03*
X66856600Y-49437400D03*
X101369600Y-122732800D03*
D22*
X101369600Y-125272800D03*
D16*
X73812400Y-87223600D03*
D27*
X131205600Y-128320800D03*
D28*
X136205600Y-128320800D03*
D16*
X142849600Y-43992800D03*
D22*
X145389600Y-43992800D03*
D16*
X78765400Y-115138200D03*
D19*
X73837800Y-69467400D03*
D20*
X73837800Y-72007400D03*
X73837800Y-74547400D03*
X73837800Y-77087400D03*
X73837800Y-79627400D03*
X73837800Y-82167400D03*
D16*
X86664800Y-63906400D03*
X96291400Y-112979200D03*
D29*
X109220000Y-94691200D03*
X109220000Y-113741200D03*
D16*
X68580000Y-125425200D03*
D22*
X66040000Y-125425200D03*
X68580000Y-122885200D03*
X66040000Y-122885200D03*
X68580000Y-120345200D03*
X66040000Y-120345200D03*
X68580000Y-117805200D03*
X66040000Y-117805200D03*
X68580000Y-115265200D03*
X66040000Y-115265200D03*
X68580000Y-112725200D03*
X66040000Y-112725200D03*
X68580000Y-110185200D03*
X66040000Y-110185200D03*
X68580000Y-107645200D03*
X66040000Y-107645200D03*
X68580000Y-105105200D03*
X66040000Y-105105200D03*
X68580000Y-102565200D03*
X66040000Y-102565200D03*
X68580000Y-100025200D03*
X66040000Y-100025200D03*
X68580000Y-97485200D03*
X66040000Y-97485200D03*
X68580000Y-94945200D03*
X66040000Y-94945200D03*
X68580000Y-92405200D03*
X66040000Y-92405200D03*
X68580000Y-89865200D03*
X66040000Y-89865200D03*
X68580000Y-87325200D03*
X66040000Y-87325200D03*
X68580000Y-84785200D03*
X66040000Y-84785200D03*
X68580000Y-82245200D03*
X66040000Y-82245200D03*
X68580000Y-79705200D03*
X66040000Y-79705200D03*
X68580000Y-77165200D03*
X66040000Y-77165200D03*
%LPD*%
M02*
