%TF.GenerationSoftware,KiCad,Pcbnew,8.0.8*%
%TF.CreationDate,2025-04-15T10:24:54-07:00*%
%TF.ProjectId,AtInverter_v2,4174496e-7665-4727-9465-725f76322e6b,v1*%
%TF.SameCoordinates,Original*%
%TF.FileFunction,Drillmap*%
%TF.FilePolarity,Positive*%
%FSLAX45Y45*%
G04 Gerber Fmt 4.5, Leading zero omitted, Abs format (unit mm)*
G04 Created by KiCad (PCBNEW 8.0.8) date 2025-04-15 10:24:54*
%MOMM*%
%LPD*%
G01*
G04 APERTURE LIST*
%ADD10C,0.038100*%
%ADD11C,0.200000*%
%ADD12C,0.275000*%
G04 APERTURE END LIST*
D10*
X6350000Y-4191000D02*
X14732000Y-4191000D01*
X14732000Y-13652500D01*
X6350000Y-13652500D01*
X6350000Y-4191000D01*
D11*
D12*
X6593500Y-7092020D02*
X6868500Y-7367020D01*
X6868500Y-7092020D02*
X6593500Y-7367020D01*
X6593500Y-12892020D02*
X6868500Y-13167020D01*
X6868500Y-12892020D02*
X6593500Y-13167020D01*
X8893500Y-7092020D02*
X9168500Y-7367020D01*
X9168500Y-7092020D02*
X8893500Y-7367020D01*
X8893500Y-12892020D02*
X9168500Y-13167020D01*
X9168500Y-12892020D02*
X8893500Y-13167020D01*
X11493500Y-7092020D02*
X11768500Y-7367020D01*
X11768500Y-7092020D02*
X11493500Y-7367020D01*
X11493500Y-12892020D02*
X11768500Y-13167020D01*
X11768500Y-12892020D02*
X11493500Y-13167020D01*
D11*
X6608872Y-13965889D02*
X6608872Y-13765889D01*
X6608872Y-13765889D02*
X6656491Y-13765889D01*
X6656491Y-13765889D02*
X6685062Y-13775413D01*
X6685062Y-13775413D02*
X6704110Y-13794460D01*
X6704110Y-13794460D02*
X6713634Y-13813508D01*
X6713634Y-13813508D02*
X6723157Y-13851603D01*
X6723157Y-13851603D02*
X6723157Y-13880174D01*
X6723157Y-13880174D02*
X6713634Y-13918270D01*
X6713634Y-13918270D02*
X6704110Y-13937317D01*
X6704110Y-13937317D02*
X6685062Y-13956365D01*
X6685062Y-13956365D02*
X6656491Y-13965889D01*
X6656491Y-13965889D02*
X6608872Y-13965889D01*
X6808872Y-13965889D02*
X6808872Y-13832555D01*
X6808872Y-13870651D02*
X6818396Y-13851603D01*
X6818396Y-13851603D02*
X6827919Y-13842079D01*
X6827919Y-13842079D02*
X6846967Y-13832555D01*
X6846967Y-13832555D02*
X6866015Y-13832555D01*
X6932681Y-13965889D02*
X6932681Y-13832555D01*
X6932681Y-13765889D02*
X6923157Y-13775413D01*
X6923157Y-13775413D02*
X6932681Y-13784936D01*
X6932681Y-13784936D02*
X6942205Y-13775413D01*
X6942205Y-13775413D02*
X6932681Y-13765889D01*
X6932681Y-13765889D02*
X6932681Y-13784936D01*
X7056491Y-13965889D02*
X7037443Y-13956365D01*
X7037443Y-13956365D02*
X7027919Y-13937317D01*
X7027919Y-13937317D02*
X7027919Y-13765889D01*
X7161253Y-13965889D02*
X7142205Y-13956365D01*
X7142205Y-13956365D02*
X7132681Y-13937317D01*
X7132681Y-13937317D02*
X7132681Y-13765889D01*
X7389824Y-13965889D02*
X7389824Y-13765889D01*
X7389824Y-13765889D02*
X7456491Y-13908746D01*
X7456491Y-13908746D02*
X7523157Y-13765889D01*
X7523157Y-13765889D02*
X7523157Y-13965889D01*
X7704110Y-13965889D02*
X7704110Y-13861127D01*
X7704110Y-13861127D02*
X7694586Y-13842079D01*
X7694586Y-13842079D02*
X7675538Y-13832555D01*
X7675538Y-13832555D02*
X7637443Y-13832555D01*
X7637443Y-13832555D02*
X7618396Y-13842079D01*
X7704110Y-13956365D02*
X7685062Y-13965889D01*
X7685062Y-13965889D02*
X7637443Y-13965889D01*
X7637443Y-13965889D02*
X7618396Y-13956365D01*
X7618396Y-13956365D02*
X7608872Y-13937317D01*
X7608872Y-13937317D02*
X7608872Y-13918270D01*
X7608872Y-13918270D02*
X7618396Y-13899222D01*
X7618396Y-13899222D02*
X7637443Y-13889698D01*
X7637443Y-13889698D02*
X7685062Y-13889698D01*
X7685062Y-13889698D02*
X7704110Y-13880174D01*
X7799348Y-13832555D02*
X7799348Y-14032555D01*
X7799348Y-13842079D02*
X7818396Y-13832555D01*
X7818396Y-13832555D02*
X7856491Y-13832555D01*
X7856491Y-13832555D02*
X7875538Y-13842079D01*
X7875538Y-13842079D02*
X7885062Y-13851603D01*
X7885062Y-13851603D02*
X7894586Y-13870651D01*
X7894586Y-13870651D02*
X7894586Y-13927793D01*
X7894586Y-13927793D02*
X7885062Y-13946841D01*
X7885062Y-13946841D02*
X7875538Y-13956365D01*
X7875538Y-13956365D02*
X7856491Y-13965889D01*
X7856491Y-13965889D02*
X7818396Y-13965889D01*
X7818396Y-13965889D02*
X7799348Y-13956365D01*
X7980300Y-13946841D02*
X7989824Y-13956365D01*
X7989824Y-13956365D02*
X7980300Y-13965889D01*
X7980300Y-13965889D02*
X7970777Y-13956365D01*
X7970777Y-13956365D02*
X7980300Y-13946841D01*
X7980300Y-13946841D02*
X7980300Y-13965889D01*
X7980300Y-13842079D02*
X7989824Y-13851603D01*
X7989824Y-13851603D02*
X7980300Y-13861127D01*
X7980300Y-13861127D02*
X7970777Y-13851603D01*
X7970777Y-13851603D02*
X7980300Y-13842079D01*
X7980300Y-13842079D02*
X7980300Y-13861127D01*
X6148095Y-14194405D02*
X6348095Y-14394405D01*
X6348095Y-14194405D02*
X6148095Y-14394405D01*
X6599348Y-14204936D02*
X6608872Y-14195413D01*
X6608872Y-14195413D02*
X6627919Y-14185889D01*
X6627919Y-14185889D02*
X6675538Y-14185889D01*
X6675538Y-14185889D02*
X6694586Y-14195413D01*
X6694586Y-14195413D02*
X6704110Y-14204936D01*
X6704110Y-14204936D02*
X6713634Y-14223984D01*
X6713634Y-14223984D02*
X6713634Y-14243032D01*
X6713634Y-14243032D02*
X6704110Y-14271603D01*
X6704110Y-14271603D02*
X6589824Y-14385889D01*
X6589824Y-14385889D02*
X6713634Y-14385889D01*
X6799348Y-14366841D02*
X6808872Y-14376365D01*
X6808872Y-14376365D02*
X6799348Y-14385889D01*
X6799348Y-14385889D02*
X6789824Y-14376365D01*
X6789824Y-14376365D02*
X6799348Y-14366841D01*
X6799348Y-14366841D02*
X6799348Y-14385889D01*
X6875538Y-14185889D02*
X7008872Y-14185889D01*
X7008872Y-14185889D02*
X6923157Y-14385889D01*
X7180300Y-14185889D02*
X7085062Y-14185889D01*
X7085062Y-14185889D02*
X7075538Y-14281127D01*
X7075538Y-14281127D02*
X7085062Y-14271603D01*
X7085062Y-14271603D02*
X7104110Y-14262079D01*
X7104110Y-14262079D02*
X7151729Y-14262079D01*
X7151729Y-14262079D02*
X7170777Y-14271603D01*
X7170777Y-14271603D02*
X7180300Y-14281127D01*
X7180300Y-14281127D02*
X7189824Y-14300174D01*
X7189824Y-14300174D02*
X7189824Y-14347793D01*
X7189824Y-14347793D02*
X7180300Y-14366841D01*
X7180300Y-14366841D02*
X7170777Y-14376365D01*
X7170777Y-14376365D02*
X7151729Y-14385889D01*
X7151729Y-14385889D02*
X7104110Y-14385889D01*
X7104110Y-14385889D02*
X7085062Y-14376365D01*
X7085062Y-14376365D02*
X7075538Y-14366841D01*
X7313634Y-14185889D02*
X7332681Y-14185889D01*
X7332681Y-14185889D02*
X7351729Y-14195413D01*
X7351729Y-14195413D02*
X7361253Y-14204936D01*
X7361253Y-14204936D02*
X7370777Y-14223984D01*
X7370777Y-14223984D02*
X7380300Y-14262079D01*
X7380300Y-14262079D02*
X7380300Y-14309698D01*
X7380300Y-14309698D02*
X7370777Y-14347793D01*
X7370777Y-14347793D02*
X7361253Y-14366841D01*
X7361253Y-14366841D02*
X7351729Y-14376365D01*
X7351729Y-14376365D02*
X7332681Y-14385889D01*
X7332681Y-14385889D02*
X7313634Y-14385889D01*
X7313634Y-14385889D02*
X7294586Y-14376365D01*
X7294586Y-14376365D02*
X7285062Y-14366841D01*
X7285062Y-14366841D02*
X7275538Y-14347793D01*
X7275538Y-14347793D02*
X7266015Y-14309698D01*
X7266015Y-14309698D02*
X7266015Y-14262079D01*
X7266015Y-14262079D02*
X7275538Y-14223984D01*
X7275538Y-14223984D02*
X7285062Y-14204936D01*
X7285062Y-14204936D02*
X7294586Y-14195413D01*
X7294586Y-14195413D02*
X7313634Y-14185889D01*
X7466015Y-14385889D02*
X7466015Y-14252555D01*
X7466015Y-14271603D02*
X7475538Y-14262079D01*
X7475538Y-14262079D02*
X7494586Y-14252555D01*
X7494586Y-14252555D02*
X7523158Y-14252555D01*
X7523158Y-14252555D02*
X7542205Y-14262079D01*
X7542205Y-14262079D02*
X7551729Y-14281127D01*
X7551729Y-14281127D02*
X7551729Y-14385889D01*
X7551729Y-14281127D02*
X7561253Y-14262079D01*
X7561253Y-14262079D02*
X7580300Y-14252555D01*
X7580300Y-14252555D02*
X7608872Y-14252555D01*
X7608872Y-14252555D02*
X7627919Y-14262079D01*
X7627919Y-14262079D02*
X7637443Y-14281127D01*
X7637443Y-14281127D02*
X7637443Y-14385889D01*
X7732681Y-14385889D02*
X7732681Y-14252555D01*
X7732681Y-14271603D02*
X7742205Y-14262079D01*
X7742205Y-14262079D02*
X7761253Y-14252555D01*
X7761253Y-14252555D02*
X7789824Y-14252555D01*
X7789824Y-14252555D02*
X7808872Y-14262079D01*
X7808872Y-14262079D02*
X7818396Y-14281127D01*
X7818396Y-14281127D02*
X7818396Y-14385889D01*
X7818396Y-14281127D02*
X7827919Y-14262079D01*
X7827919Y-14262079D02*
X7846967Y-14252555D01*
X7846967Y-14252555D02*
X7875538Y-14252555D01*
X7875538Y-14252555D02*
X7894586Y-14262079D01*
X7894586Y-14262079D02*
X7904110Y-14281127D01*
X7904110Y-14281127D02*
X7904110Y-14385889D01*
X8294586Y-14176365D02*
X8123158Y-14433508D01*
X8551729Y-14185889D02*
X8570777Y-14185889D01*
X8570777Y-14185889D02*
X8589824Y-14195413D01*
X8589824Y-14195413D02*
X8599348Y-14204936D01*
X8599348Y-14204936D02*
X8608872Y-14223984D01*
X8608872Y-14223984D02*
X8618396Y-14262079D01*
X8618396Y-14262079D02*
X8618396Y-14309698D01*
X8618396Y-14309698D02*
X8608872Y-14347793D01*
X8608872Y-14347793D02*
X8599348Y-14366841D01*
X8599348Y-14366841D02*
X8589824Y-14376365D01*
X8589824Y-14376365D02*
X8570777Y-14385889D01*
X8570777Y-14385889D02*
X8551729Y-14385889D01*
X8551729Y-14385889D02*
X8532682Y-14376365D01*
X8532682Y-14376365D02*
X8523158Y-14366841D01*
X8523158Y-14366841D02*
X8513634Y-14347793D01*
X8513634Y-14347793D02*
X8504110Y-14309698D01*
X8504110Y-14309698D02*
X8504110Y-14262079D01*
X8504110Y-14262079D02*
X8513634Y-14223984D01*
X8513634Y-14223984D02*
X8523158Y-14204936D01*
X8523158Y-14204936D02*
X8532682Y-14195413D01*
X8532682Y-14195413D02*
X8551729Y-14185889D01*
X8704110Y-14366841D02*
X8713634Y-14376365D01*
X8713634Y-14376365D02*
X8704110Y-14385889D01*
X8704110Y-14385889D02*
X8694586Y-14376365D01*
X8694586Y-14376365D02*
X8704110Y-14366841D01*
X8704110Y-14366841D02*
X8704110Y-14385889D01*
X8904110Y-14385889D02*
X8789824Y-14385889D01*
X8846967Y-14385889D02*
X8846967Y-14185889D01*
X8846967Y-14185889D02*
X8827920Y-14214460D01*
X8827920Y-14214460D02*
X8808872Y-14233508D01*
X8808872Y-14233508D02*
X8789824Y-14243032D01*
X9027920Y-14185889D02*
X9046967Y-14185889D01*
X9046967Y-14185889D02*
X9066015Y-14195413D01*
X9066015Y-14195413D02*
X9075539Y-14204936D01*
X9075539Y-14204936D02*
X9085063Y-14223984D01*
X9085063Y-14223984D02*
X9094586Y-14262079D01*
X9094586Y-14262079D02*
X9094586Y-14309698D01*
X9094586Y-14309698D02*
X9085063Y-14347793D01*
X9085063Y-14347793D02*
X9075539Y-14366841D01*
X9075539Y-14366841D02*
X9066015Y-14376365D01*
X9066015Y-14376365D02*
X9046967Y-14385889D01*
X9046967Y-14385889D02*
X9027920Y-14385889D01*
X9027920Y-14385889D02*
X9008872Y-14376365D01*
X9008872Y-14376365D02*
X8999348Y-14366841D01*
X8999348Y-14366841D02*
X8989824Y-14347793D01*
X8989824Y-14347793D02*
X8980301Y-14309698D01*
X8980301Y-14309698D02*
X8980301Y-14262079D01*
X8980301Y-14262079D02*
X8989824Y-14223984D01*
X8989824Y-14223984D02*
X8999348Y-14204936D01*
X8999348Y-14204936D02*
X9008872Y-14195413D01*
X9008872Y-14195413D02*
X9027920Y-14185889D01*
X9208872Y-14271603D02*
X9189824Y-14262079D01*
X9189824Y-14262079D02*
X9180301Y-14252555D01*
X9180301Y-14252555D02*
X9170777Y-14233508D01*
X9170777Y-14233508D02*
X9170777Y-14223984D01*
X9170777Y-14223984D02*
X9180301Y-14204936D01*
X9180301Y-14204936D02*
X9189824Y-14195413D01*
X9189824Y-14195413D02*
X9208872Y-14185889D01*
X9208872Y-14185889D02*
X9246967Y-14185889D01*
X9246967Y-14185889D02*
X9266015Y-14195413D01*
X9266015Y-14195413D02*
X9275539Y-14204936D01*
X9275539Y-14204936D02*
X9285063Y-14223984D01*
X9285063Y-14223984D02*
X9285063Y-14233508D01*
X9285063Y-14233508D02*
X9275539Y-14252555D01*
X9275539Y-14252555D02*
X9266015Y-14262079D01*
X9266015Y-14262079D02*
X9246967Y-14271603D01*
X9246967Y-14271603D02*
X9208872Y-14271603D01*
X9208872Y-14271603D02*
X9189824Y-14281127D01*
X9189824Y-14281127D02*
X9180301Y-14290651D01*
X9180301Y-14290651D02*
X9170777Y-14309698D01*
X9170777Y-14309698D02*
X9170777Y-14347793D01*
X9170777Y-14347793D02*
X9180301Y-14366841D01*
X9180301Y-14366841D02*
X9189824Y-14376365D01*
X9189824Y-14376365D02*
X9208872Y-14385889D01*
X9208872Y-14385889D02*
X9246967Y-14385889D01*
X9246967Y-14385889D02*
X9266015Y-14376365D01*
X9266015Y-14376365D02*
X9275539Y-14366841D01*
X9275539Y-14366841D02*
X9285063Y-14347793D01*
X9285063Y-14347793D02*
X9285063Y-14309698D01*
X9285063Y-14309698D02*
X9275539Y-14290651D01*
X9275539Y-14290651D02*
X9266015Y-14281127D01*
X9266015Y-14281127D02*
X9246967Y-14271603D01*
X9351729Y-14185889D02*
X9475539Y-14185889D01*
X9475539Y-14185889D02*
X9408872Y-14262079D01*
X9408872Y-14262079D02*
X9437444Y-14262079D01*
X9437444Y-14262079D02*
X9456491Y-14271603D01*
X9456491Y-14271603D02*
X9466015Y-14281127D01*
X9466015Y-14281127D02*
X9475539Y-14300174D01*
X9475539Y-14300174D02*
X9475539Y-14347793D01*
X9475539Y-14347793D02*
X9466015Y-14366841D01*
X9466015Y-14366841D02*
X9456491Y-14376365D01*
X9456491Y-14376365D02*
X9437444Y-14385889D01*
X9437444Y-14385889D02*
X9380301Y-14385889D01*
X9380301Y-14385889D02*
X9361253Y-14376365D01*
X9361253Y-14376365D02*
X9351729Y-14366841D01*
X9551729Y-14185889D02*
X9551729Y-14223984D01*
X9627920Y-14185889D02*
X9627920Y-14223984D01*
X9923158Y-14462079D02*
X9913634Y-14452555D01*
X9913634Y-14452555D02*
X9894586Y-14423984D01*
X9894586Y-14423984D02*
X9885063Y-14404936D01*
X9885063Y-14404936D02*
X9875539Y-14376365D01*
X9875539Y-14376365D02*
X9866015Y-14328746D01*
X9866015Y-14328746D02*
X9866015Y-14290651D01*
X9866015Y-14290651D02*
X9875539Y-14243032D01*
X9875539Y-14243032D02*
X9885063Y-14214460D01*
X9885063Y-14214460D02*
X9894586Y-14195413D01*
X9894586Y-14195413D02*
X9913634Y-14166841D01*
X9913634Y-14166841D02*
X9923158Y-14157317D01*
X10085063Y-14185889D02*
X10046967Y-14185889D01*
X10046967Y-14185889D02*
X10027920Y-14195413D01*
X10027920Y-14195413D02*
X10018396Y-14204936D01*
X10018396Y-14204936D02*
X9999348Y-14233508D01*
X9999348Y-14233508D02*
X9989825Y-14271603D01*
X9989825Y-14271603D02*
X9989825Y-14347793D01*
X9989825Y-14347793D02*
X9999348Y-14366841D01*
X9999348Y-14366841D02*
X10008872Y-14376365D01*
X10008872Y-14376365D02*
X10027920Y-14385889D01*
X10027920Y-14385889D02*
X10066015Y-14385889D01*
X10066015Y-14385889D02*
X10085063Y-14376365D01*
X10085063Y-14376365D02*
X10094586Y-14366841D01*
X10094586Y-14366841D02*
X10104110Y-14347793D01*
X10104110Y-14347793D02*
X10104110Y-14300174D01*
X10104110Y-14300174D02*
X10094586Y-14281127D01*
X10094586Y-14281127D02*
X10085063Y-14271603D01*
X10085063Y-14271603D02*
X10066015Y-14262079D01*
X10066015Y-14262079D02*
X10027920Y-14262079D01*
X10027920Y-14262079D02*
X10008872Y-14271603D01*
X10008872Y-14271603D02*
X9999348Y-14281127D01*
X9999348Y-14281127D02*
X9989825Y-14300174D01*
X10342206Y-14385889D02*
X10342206Y-14185889D01*
X10427920Y-14385889D02*
X10427920Y-14281127D01*
X10427920Y-14281127D02*
X10418396Y-14262079D01*
X10418396Y-14262079D02*
X10399348Y-14252555D01*
X10399348Y-14252555D02*
X10370777Y-14252555D01*
X10370777Y-14252555D02*
X10351729Y-14262079D01*
X10351729Y-14262079D02*
X10342206Y-14271603D01*
X10551729Y-14385889D02*
X10532682Y-14376365D01*
X10532682Y-14376365D02*
X10523158Y-14366841D01*
X10523158Y-14366841D02*
X10513634Y-14347793D01*
X10513634Y-14347793D02*
X10513634Y-14290651D01*
X10513634Y-14290651D02*
X10523158Y-14271603D01*
X10523158Y-14271603D02*
X10532682Y-14262079D01*
X10532682Y-14262079D02*
X10551729Y-14252555D01*
X10551729Y-14252555D02*
X10580301Y-14252555D01*
X10580301Y-14252555D02*
X10599348Y-14262079D01*
X10599348Y-14262079D02*
X10608872Y-14271603D01*
X10608872Y-14271603D02*
X10618396Y-14290651D01*
X10618396Y-14290651D02*
X10618396Y-14347793D01*
X10618396Y-14347793D02*
X10608872Y-14366841D01*
X10608872Y-14366841D02*
X10599348Y-14376365D01*
X10599348Y-14376365D02*
X10580301Y-14385889D01*
X10580301Y-14385889D02*
X10551729Y-14385889D01*
X10732682Y-14385889D02*
X10713634Y-14376365D01*
X10713634Y-14376365D02*
X10704110Y-14357317D01*
X10704110Y-14357317D02*
X10704110Y-14185889D01*
X10885063Y-14376365D02*
X10866015Y-14385889D01*
X10866015Y-14385889D02*
X10827920Y-14385889D01*
X10827920Y-14385889D02*
X10808872Y-14376365D01*
X10808872Y-14376365D02*
X10799348Y-14357317D01*
X10799348Y-14357317D02*
X10799348Y-14281127D01*
X10799348Y-14281127D02*
X10808872Y-14262079D01*
X10808872Y-14262079D02*
X10827920Y-14252555D01*
X10827920Y-14252555D02*
X10866015Y-14252555D01*
X10866015Y-14252555D02*
X10885063Y-14262079D01*
X10885063Y-14262079D02*
X10894587Y-14281127D01*
X10894587Y-14281127D02*
X10894587Y-14300174D01*
X10894587Y-14300174D02*
X10799348Y-14319222D01*
X10970777Y-14376365D02*
X10989825Y-14385889D01*
X10989825Y-14385889D02*
X11027920Y-14385889D01*
X11027920Y-14385889D02*
X11046968Y-14376365D01*
X11046968Y-14376365D02*
X11056491Y-14357317D01*
X11056491Y-14357317D02*
X11056491Y-14347793D01*
X11056491Y-14347793D02*
X11046968Y-14328746D01*
X11046968Y-14328746D02*
X11027920Y-14319222D01*
X11027920Y-14319222D02*
X10999348Y-14319222D01*
X10999348Y-14319222D02*
X10980301Y-14309698D01*
X10980301Y-14309698D02*
X10970777Y-14290651D01*
X10970777Y-14290651D02*
X10970777Y-14281127D01*
X10970777Y-14281127D02*
X10980301Y-14262079D01*
X10980301Y-14262079D02*
X10999348Y-14252555D01*
X10999348Y-14252555D02*
X11027920Y-14252555D01*
X11027920Y-14252555D02*
X11046968Y-14262079D01*
X11123158Y-14462079D02*
X11132682Y-14452555D01*
X11132682Y-14452555D02*
X11151729Y-14423984D01*
X11151729Y-14423984D02*
X11161253Y-14404936D01*
X11161253Y-14404936D02*
X11170777Y-14376365D01*
X11170777Y-14376365D02*
X11180301Y-14328746D01*
X11180301Y-14328746D02*
X11180301Y-14290651D01*
X11180301Y-14290651D02*
X11170777Y-14243032D01*
X11170777Y-14243032D02*
X11161253Y-14214460D01*
X11161253Y-14214460D02*
X11151729Y-14195413D01*
X11151729Y-14195413D02*
X11132682Y-14166841D01*
X11132682Y-14166841D02*
X11123158Y-14157317D01*
X11485063Y-14462079D02*
X11475539Y-14452555D01*
X11475539Y-14452555D02*
X11456491Y-14423984D01*
X11456491Y-14423984D02*
X11446967Y-14404936D01*
X11446967Y-14404936D02*
X11437444Y-14376365D01*
X11437444Y-14376365D02*
X11427920Y-14328746D01*
X11427920Y-14328746D02*
X11427920Y-14290651D01*
X11427920Y-14290651D02*
X11437444Y-14243032D01*
X11437444Y-14243032D02*
X11446967Y-14214460D01*
X11446967Y-14214460D02*
X11456491Y-14195413D01*
X11456491Y-14195413D02*
X11475539Y-14166841D01*
X11475539Y-14166841D02*
X11485063Y-14157317D01*
X11561253Y-14252555D02*
X11561253Y-14385889D01*
X11561253Y-14271603D02*
X11570777Y-14262079D01*
X11570777Y-14262079D02*
X11589825Y-14252555D01*
X11589825Y-14252555D02*
X11618396Y-14252555D01*
X11618396Y-14252555D02*
X11637444Y-14262079D01*
X11637444Y-14262079D02*
X11646967Y-14281127D01*
X11646967Y-14281127D02*
X11646967Y-14385889D01*
X11770777Y-14385889D02*
X11751729Y-14376365D01*
X11751729Y-14376365D02*
X11742206Y-14366841D01*
X11742206Y-14366841D02*
X11732682Y-14347793D01*
X11732682Y-14347793D02*
X11732682Y-14290651D01*
X11732682Y-14290651D02*
X11742206Y-14271603D01*
X11742206Y-14271603D02*
X11751729Y-14262079D01*
X11751729Y-14262079D02*
X11770777Y-14252555D01*
X11770777Y-14252555D02*
X11799348Y-14252555D01*
X11799348Y-14252555D02*
X11818396Y-14262079D01*
X11818396Y-14262079D02*
X11827920Y-14271603D01*
X11827920Y-14271603D02*
X11837444Y-14290651D01*
X11837444Y-14290651D02*
X11837444Y-14347793D01*
X11837444Y-14347793D02*
X11827920Y-14366841D01*
X11827920Y-14366841D02*
X11818396Y-14376365D01*
X11818396Y-14376365D02*
X11799348Y-14385889D01*
X11799348Y-14385889D02*
X11770777Y-14385889D01*
X11894587Y-14252555D02*
X11970777Y-14252555D01*
X11923158Y-14185889D02*
X11923158Y-14357317D01*
X11923158Y-14357317D02*
X11932682Y-14376365D01*
X11932682Y-14376365D02*
X11951729Y-14385889D01*
X11951729Y-14385889D02*
X11970777Y-14385889D01*
X12189825Y-14252555D02*
X12189825Y-14452555D01*
X12189825Y-14262079D02*
X12208872Y-14252555D01*
X12208872Y-14252555D02*
X12246968Y-14252555D01*
X12246968Y-14252555D02*
X12266015Y-14262079D01*
X12266015Y-14262079D02*
X12275539Y-14271603D01*
X12275539Y-14271603D02*
X12285063Y-14290651D01*
X12285063Y-14290651D02*
X12285063Y-14347793D01*
X12285063Y-14347793D02*
X12275539Y-14366841D01*
X12275539Y-14366841D02*
X12266015Y-14376365D01*
X12266015Y-14376365D02*
X12246968Y-14385889D01*
X12246968Y-14385889D02*
X12208872Y-14385889D01*
X12208872Y-14385889D02*
X12189825Y-14376365D01*
X12399348Y-14385889D02*
X12380301Y-14376365D01*
X12380301Y-14376365D02*
X12370777Y-14357317D01*
X12370777Y-14357317D02*
X12370777Y-14185889D01*
X12561253Y-14385889D02*
X12561253Y-14281127D01*
X12561253Y-14281127D02*
X12551729Y-14262079D01*
X12551729Y-14262079D02*
X12532682Y-14252555D01*
X12532682Y-14252555D02*
X12494587Y-14252555D01*
X12494587Y-14252555D02*
X12475539Y-14262079D01*
X12561253Y-14376365D02*
X12542206Y-14385889D01*
X12542206Y-14385889D02*
X12494587Y-14385889D01*
X12494587Y-14385889D02*
X12475539Y-14376365D01*
X12475539Y-14376365D02*
X12466015Y-14357317D01*
X12466015Y-14357317D02*
X12466015Y-14338270D01*
X12466015Y-14338270D02*
X12475539Y-14319222D01*
X12475539Y-14319222D02*
X12494587Y-14309698D01*
X12494587Y-14309698D02*
X12542206Y-14309698D01*
X12542206Y-14309698D02*
X12561253Y-14300174D01*
X12627920Y-14252555D02*
X12704110Y-14252555D01*
X12656491Y-14185889D02*
X12656491Y-14357317D01*
X12656491Y-14357317D02*
X12666015Y-14376365D01*
X12666015Y-14376365D02*
X12685063Y-14385889D01*
X12685063Y-14385889D02*
X12704110Y-14385889D01*
X12846968Y-14376365D02*
X12827920Y-14385889D01*
X12827920Y-14385889D02*
X12789825Y-14385889D01*
X12789825Y-14385889D02*
X12770777Y-14376365D01*
X12770777Y-14376365D02*
X12761253Y-14357317D01*
X12761253Y-14357317D02*
X12761253Y-14281127D01*
X12761253Y-14281127D02*
X12770777Y-14262079D01*
X12770777Y-14262079D02*
X12789825Y-14252555D01*
X12789825Y-14252555D02*
X12827920Y-14252555D01*
X12827920Y-14252555D02*
X12846968Y-14262079D01*
X12846968Y-14262079D02*
X12856491Y-14281127D01*
X12856491Y-14281127D02*
X12856491Y-14300174D01*
X12856491Y-14300174D02*
X12761253Y-14319222D01*
X13027920Y-14385889D02*
X13027920Y-14185889D01*
X13027920Y-14376365D02*
X13008872Y-14385889D01*
X13008872Y-14385889D02*
X12970777Y-14385889D01*
X12970777Y-14385889D02*
X12951729Y-14376365D01*
X12951729Y-14376365D02*
X12942206Y-14366841D01*
X12942206Y-14366841D02*
X12932682Y-14347793D01*
X12932682Y-14347793D02*
X12932682Y-14290651D01*
X12932682Y-14290651D02*
X12942206Y-14271603D01*
X12942206Y-14271603D02*
X12951729Y-14262079D01*
X12951729Y-14262079D02*
X12970777Y-14252555D01*
X12970777Y-14252555D02*
X13008872Y-14252555D01*
X13008872Y-14252555D02*
X13027920Y-14262079D01*
X13104110Y-14462079D02*
X13113634Y-14452555D01*
X13113634Y-14452555D02*
X13132682Y-14423984D01*
X13132682Y-14423984D02*
X13142206Y-14404936D01*
X13142206Y-14404936D02*
X13151729Y-14376365D01*
X13151729Y-14376365D02*
X13161253Y-14328746D01*
X13161253Y-14328746D02*
X13161253Y-14290651D01*
X13161253Y-14290651D02*
X13151729Y-14243032D01*
X13151729Y-14243032D02*
X13142206Y-14214460D01*
X13142206Y-14214460D02*
X13132682Y-14195413D01*
X13132682Y-14195413D02*
X13113634Y-14166841D01*
X13113634Y-14166841D02*
X13104110Y-14157317D01*
M02*
