G04 #@! TF.GenerationSoftware,KiCad,Pcbnew,8.0.8*
G04 #@! TF.CreationDate,2025-04-15T10:23:40-07:00*
G04 #@! TF.ProjectId,AtInverter_v2,4174496e-7665-4727-9465-725f76322e6b,v1*
G04 #@! TF.SameCoordinates,Original*
G04 #@! TF.FileFunction,Soldermask,Top*
G04 #@! TF.FilePolarity,Negative*
%FSLAX46Y46*%
G04 Gerber Fmt 4.6, Leading zero omitted, Abs format (unit mm)*
G04 Created by KiCad (PCBNEW 8.0.8) date 2025-04-15 10:23:40*
%MOMM*%
%LPD*%
G01*
G04 APERTURE LIST*
G04 Aperture macros list*
%AMRoundRect*
0 Rectangle with rounded corners*
0 $1 Rounding radius*
0 $2 $3 $4 $5 $6 $7 $8 $9 X,Y pos of 4 corners*
0 Add a 4 corners polygon primitive as box body*
4,1,4,$2,$3,$4,$5,$6,$7,$8,$9,$2,$3,0*
0 Add four circle primitives for the rounded corners*
1,1,$1+$1,$2,$3*
1,1,$1+$1,$4,$5*
1,1,$1+$1,$6,$7*
1,1,$1+$1,$8,$9*
0 Add four rect primitives between the rounded corners*
20,1,$1+$1,$2,$3,$4,$5,0*
20,1,$1+$1,$4,$5,$6,$7,0*
20,1,$1+$1,$6,$7,$8,$9,0*
20,1,$1+$1,$8,$9,$2,$3,0*%
G04 Aperture macros list end*
%ADD10R,1.700000X1.700000*%
%ADD11RoundRect,0.250000X0.650000X-0.325000X0.650000X0.325000X-0.650000X0.325000X-0.650000X-0.325000X0*%
%ADD12RoundRect,0.250000X0.312500X0.625000X-0.312500X0.625000X-0.312500X-0.625000X0.312500X-0.625000X0*%
%ADD13R,1.905000X2.000000*%
%ADD14O,1.905000X2.000000*%
%ADD15RoundRect,0.250000X-0.625000X0.312500X-0.625000X-0.312500X0.625000X-0.312500X0.625000X0.312500X0*%
%ADD16RoundRect,0.250000X-0.312500X-0.625000X0.312500X-0.625000X0.312500X0.625000X-0.312500X0.625000X0*%
%ADD17R,1.460500X0.533400*%
%ADD18RoundRect,0.225000X0.375000X-0.225000X0.375000X0.225000X-0.375000X0.225000X-0.375000X-0.225000X0*%
%ADD19R,1.981200X0.558800*%
%ADD20RoundRect,0.250000X-0.325000X-0.650000X0.325000X-0.650000X0.325000X0.650000X-0.325000X0.650000X0*%
%ADD21R,1.600000X1.600000*%
%ADD22O,1.600000X1.600000*%
%ADD23RoundRect,0.250000X0.625000X-0.312500X0.625000X0.312500X-0.625000X0.312500X-0.625000X-0.312500X0*%
%ADD24RoundRect,0.250000X0.325000X0.650000X-0.325000X0.650000X-0.325000X-0.650000X0.325000X-0.650000X0*%
%ADD25RoundRect,0.250000X-0.475000X0.250000X-0.475000X-0.250000X0.475000X-0.250000X0.475000X0.250000X0*%
%ADD26C,2.100000*%
%ADD27R,0.457200X1.371600*%
%ADD28RoundRect,0.150000X0.150000X-0.512500X0.150000X0.512500X-0.150000X0.512500X-0.150000X-0.512500X0*%
%ADD29R,1.473200X0.558800*%
%ADD30RoundRect,0.250000X0.450000X-0.262500X0.450000X0.262500X-0.450000X0.262500X-0.450000X-0.262500X0*%
%ADD31O,1.700000X1.700000*%
%ADD32R,1.600200X1.600200*%
%ADD33C,1.600200*%
%ADD34C,1.500000*%
%ADD35RoundRect,0.250000X-0.250000X-0.475000X0.250000X-0.475000X0.250000X0.475000X-0.250000X0.475000X0*%
%ADD36R,1.460500X0.558800*%
%ADD37C,1.371600*%
%ADD38RoundRect,0.250000X0.250000X0.475000X-0.250000X0.475000X-0.250000X-0.475000X0.250000X-0.475000X0*%
%ADD39RoundRect,0.225000X0.225000X0.375000X-0.225000X0.375000X-0.225000X-0.375000X0.225000X-0.375000X0*%
%ADD40R,1.193800X1.193800*%
%ADD41R,1.600200X1.498600*%
%ADD42O,0.599999X0.249999*%
%ADD43R,1.803400X4.495800*%
%ADD44RoundRect,0.102000X-0.754000X-0.754000X0.754000X-0.754000X0.754000X0.754000X-0.754000X0.754000X0*%
%ADD45C,1.712000*%
%ADD46R,2.500000X2.500000*%
%ADD47C,2.500000*%
%ADD48RoundRect,0.250000X-0.650000X0.325000X-0.650000X-0.325000X0.650000X-0.325000X0.650000X0.325000X0*%
%ADD49C,2.565400*%
%ADD50R,2.469157X0.622132*%
%ADD51RoundRect,0.250000X-0.450000X0.262500X-0.450000X-0.262500X0.450000X-0.262500X0.450000X0.262500X0*%
G04 APERTURE END LIST*
D10*
X125327400Y-47659400D03*
D11*
X100228400Y-57685200D03*
X100228400Y-54735200D03*
D12*
X96204500Y-53136800D03*
X93279500Y-53136800D03*
D13*
X125222000Y-66598800D03*
D14*
X127762000Y-66598800D03*
X130302000Y-66598800D03*
D15*
X73431400Y-117866700D03*
X73431400Y-120791700D03*
D16*
X121067100Y-58674000D03*
X123992100Y-58674000D03*
D10*
X100330000Y-45395000D03*
D17*
X71304150Y-65760600D03*
X71304150Y-64490600D03*
X71304150Y-63220600D03*
X71304150Y-61950600D03*
X65855850Y-61950600D03*
X65855850Y-63220600D03*
X65855850Y-64490600D03*
X65855850Y-65760600D03*
D10*
X81330800Y-63906400D03*
X125603000Y-71501000D03*
D18*
X104800400Y-74090800D03*
X104800400Y-70790800D03*
D19*
X110515400Y-49606200D03*
X110515400Y-50876200D03*
X110515400Y-52146200D03*
X110515400Y-53416200D03*
X115443000Y-53416200D03*
X115443000Y-52146200D03*
X115443000Y-50876200D03*
X115443000Y-49606200D03*
D12*
X114343900Y-46024800D03*
X111418900Y-46024800D03*
D20*
X97788200Y-72085200D03*
X100738200Y-72085200D03*
D21*
X91455400Y-115011200D03*
D22*
X91455400Y-112471200D03*
X91455400Y-109931200D03*
X91455400Y-107391200D03*
X91455400Y-104851200D03*
X91455400Y-102311200D03*
X91455400Y-99771200D03*
X91455400Y-97231200D03*
X91455400Y-94691200D03*
X91455400Y-92151200D03*
X91455400Y-89611200D03*
X91455400Y-87071200D03*
X91455400Y-84531200D03*
X91455400Y-81991200D03*
X83835400Y-81991200D03*
X83835400Y-84531200D03*
X83835400Y-87071200D03*
X83835400Y-89611200D03*
X83835400Y-92151200D03*
X83835400Y-94691200D03*
X83835400Y-97231200D03*
X83835400Y-99771200D03*
X83835400Y-102311200D03*
X83835400Y-104851200D03*
X83835400Y-107391200D03*
X83835400Y-109931200D03*
X83835400Y-112471200D03*
X83835400Y-115011200D03*
D23*
X77622400Y-127268700D03*
X77622400Y-124343700D03*
D11*
X73431400Y-127281200D03*
X73431400Y-124331200D03*
D24*
X90933800Y-119532400D03*
X87983800Y-119532400D03*
D10*
X89611200Y-77317600D03*
D16*
X115225100Y-56896000D03*
X118150100Y-56896000D03*
D13*
X112776000Y-66598800D03*
D14*
X115316000Y-66598800D03*
X117856000Y-66598800D03*
D10*
X78130400Y-120243600D03*
D25*
X94488000Y-71313000D03*
X94488000Y-73213000D03*
D26*
X73964800Y-107746800D03*
X73964800Y-105206800D03*
X73964800Y-102666800D03*
D10*
X78892400Y-87223600D03*
D23*
X91338400Y-126379700D03*
X91338400Y-123454700D03*
X95402400Y-126379700D03*
X95402400Y-123454700D03*
D27*
X85109598Y-73799700D03*
X84459600Y-73799700D03*
X83809598Y-73799700D03*
X83159600Y-73799700D03*
X83159600Y-78193900D03*
X83809598Y-78193900D03*
X84459600Y-78193900D03*
X85109598Y-78193900D03*
D10*
X100355400Y-50622200D03*
D26*
X74066400Y-97282000D03*
X74066400Y-94742000D03*
X74066400Y-92202000D03*
D23*
X112928400Y-90616500D03*
X112928400Y-87691500D03*
D10*
X140843000Y-82042000D03*
D28*
X135321000Y-83179500D03*
X136271000Y-83179500D03*
X137221000Y-83179500D03*
X137221000Y-80904500D03*
X136271000Y-80904500D03*
X135321000Y-80904500D03*
D24*
X120956600Y-45262800D03*
X118006600Y-45262800D03*
D29*
X74803000Y-63616799D03*
X74803000Y-64566800D03*
X74803000Y-65516801D03*
X77190600Y-65516801D03*
X77190600Y-63616799D03*
D30*
X132384800Y-77620500D03*
X132384800Y-75795500D03*
D11*
X103327200Y-85041000D03*
X103327200Y-82091000D03*
D31*
X140970000Y-71882000D03*
X143510000Y-71882000D03*
X140970000Y-74422000D03*
X143510000Y-74422000D03*
X140970000Y-76962000D03*
D10*
X143510000Y-76962000D03*
X101371400Y-117678200D03*
D32*
X137966000Y-59690000D03*
D33*
X137966000Y-62230000D03*
X137966000Y-64770000D03*
D10*
X95783400Y-130759200D03*
D15*
X105566200Y-50048700D03*
X105566200Y-52973700D03*
D34*
X97561400Y-85624800D03*
X97561400Y-90624800D03*
D16*
X121981500Y-77089000D03*
X124906500Y-77089000D03*
D35*
X135321000Y-74371200D03*
X137221000Y-74371200D03*
D10*
X84099400Y-69545200D03*
D16*
X93257900Y-57200800D03*
X96182900Y-57200800D03*
D21*
X78790800Y-69467400D03*
D22*
X78790800Y-72007400D03*
X78790800Y-74547400D03*
X78790800Y-77087400D03*
X78790800Y-79627400D03*
X78790800Y-82167400D03*
D35*
X135321000Y-77851000D03*
X137221000Y-77851000D03*
D36*
X95472250Y-64744600D03*
X95472250Y-66014600D03*
X95472250Y-67284600D03*
X95472250Y-68554600D03*
X100920550Y-68554600D03*
X100920550Y-67284600D03*
X100920550Y-66014600D03*
X100920550Y-64744600D03*
D37*
X124866400Y-117094000D03*
X119866400Y-117094000D03*
D10*
X73685400Y-113106200D03*
D23*
X120929400Y-73395300D03*
X120929400Y-70470300D03*
D24*
X142826000Y-90297000D03*
X139876000Y-90297000D03*
X111562400Y-57708800D03*
X108612400Y-57708800D03*
D37*
X113131600Y-122986800D03*
X108131600Y-122986800D03*
D13*
X113030000Y-83439000D03*
D14*
X115570000Y-83439000D03*
X118110000Y-83439000D03*
D38*
X137094000Y-87249000D03*
X135194000Y-87249000D03*
D21*
X78841600Y-110185200D03*
D22*
X78841600Y-107645200D03*
X78841600Y-105105200D03*
X78841600Y-102565200D03*
X78841600Y-100025200D03*
X78841600Y-97485200D03*
X78841600Y-94945200D03*
X78841600Y-92405200D03*
D10*
X142341600Y-118922800D03*
D31*
X142341600Y-121462800D03*
D10*
X108204000Y-89535000D03*
D39*
X99592400Y-61214000D03*
X96292400Y-61214000D03*
D10*
X123190000Y-89535000D03*
D40*
X105029000Y-46456600D03*
X107010200Y-46456600D03*
D41*
X106019600Y-43205400D03*
D10*
X122428000Y-94945200D03*
D42*
X82090000Y-119810401D03*
X82090000Y-120310400D03*
X82090000Y-120810402D03*
X82090000Y-121310400D03*
X85090000Y-121310400D03*
X85090000Y-120810402D03*
X85090000Y-120310400D03*
X85090000Y-119810401D03*
D43*
X127762000Y-88950800D03*
X131064000Y-88950800D03*
D10*
X66852800Y-56926600D03*
D35*
X89321600Y-67919600D03*
X91221600Y-67919600D03*
D12*
X97118900Y-119583200D03*
X94193900Y-119583200D03*
D10*
X142341600Y-129082800D03*
D31*
X142341600Y-131622800D03*
D44*
X75746600Y-44738400D03*
D45*
X75746600Y-57438400D03*
X85746600Y-57438400D03*
X85746600Y-44738400D03*
D10*
X111404400Y-75946000D03*
D12*
X96182900Y-49174400D03*
X93257900Y-49174400D03*
D10*
X94339400Y-44272200D03*
D46*
X131713600Y-49580800D03*
D47*
X136713600Y-49580800D03*
D36*
X95472250Y-75692000D03*
X95472250Y-76962000D03*
X95472250Y-78232000D03*
X95472250Y-79502000D03*
X100920550Y-79502000D03*
X100920550Y-78232000D03*
X100920550Y-76962000D03*
X100920550Y-75692000D03*
D10*
X103530400Y-130632200D03*
X130937000Y-71501000D03*
D38*
X137094000Y-90551000D03*
X135194000Y-90551000D03*
D48*
X124843000Y-52151600D03*
X124843000Y-55101600D03*
D10*
X86512400Y-125374400D03*
D49*
X135585200Y-113741200D03*
X135585200Y-94691200D03*
D25*
X104597200Y-66410800D03*
X104597200Y-68310800D03*
D48*
X91338400Y-61872600D03*
X91338400Y-64822600D03*
D13*
X125323600Y-83439000D03*
D14*
X127863600Y-83439000D03*
X130403600Y-83439000D03*
D10*
X117602000Y-89535000D03*
D16*
X109484700Y-71170800D03*
X112409700Y-71170800D03*
D25*
X104648000Y-76672400D03*
X104648000Y-78572400D03*
D12*
X68010500Y-44500800D03*
X65085500Y-44500800D03*
D10*
X85242400Y-131775200D03*
D31*
X82702400Y-131775200D03*
X80162400Y-131775200D03*
X77622400Y-131775200D03*
X75082400Y-131775200D03*
X72542400Y-131775200D03*
D50*
X127814800Y-57277000D03*
X127814800Y-58547000D03*
X127814800Y-59817000D03*
X127814800Y-61087000D03*
X132641998Y-61087000D03*
X132641998Y-59817000D03*
X132641998Y-58547000D03*
X132641998Y-57277000D03*
D10*
X143408400Y-49072800D03*
D31*
X143408400Y-51612800D03*
D10*
X131724400Y-119837200D03*
D12*
X118150100Y-60655200D03*
X115225100Y-60655200D03*
D16*
X104201500Y-62585600D03*
X107126500Y-62585600D03*
D10*
X66856600Y-49437400D03*
X101369600Y-122732800D03*
D31*
X101369600Y-125272800D03*
D24*
X142826000Y-86360000D03*
X139876000Y-86360000D03*
D15*
X95707200Y-96022700D03*
X95707200Y-98947700D03*
D10*
X73812400Y-87223600D03*
D46*
X131205600Y-128320800D03*
D47*
X136205600Y-128320800D03*
D23*
X120525000Y-53757600D03*
X120525000Y-50832600D03*
D31*
X145389600Y-43992800D03*
D10*
X142849600Y-43992800D03*
X78765400Y-115138200D03*
D21*
X73837800Y-69467400D03*
D22*
X73837800Y-72007400D03*
X73837800Y-74547400D03*
X73837800Y-77087400D03*
X73837800Y-79627400D03*
X73837800Y-82167400D03*
D23*
X104372400Y-58851900D03*
X104372400Y-55926900D03*
D10*
X86664800Y-63906400D03*
D48*
X103327200Y-88085400D03*
X103327200Y-91035400D03*
D51*
X128651000Y-75795500D03*
X128651000Y-77620500D03*
D23*
X81813400Y-127268700D03*
X81813400Y-124343700D03*
D50*
X120922402Y-124841000D03*
X120922402Y-126111000D03*
X120922402Y-127381000D03*
X120922402Y-128651000D03*
X125749600Y-128651000D03*
X125749600Y-127381000D03*
X125749600Y-126111000D03*
X125749600Y-124841000D03*
D10*
X96291400Y-112979200D03*
D49*
X109220000Y-94691200D03*
X109220000Y-113741200D03*
D31*
X66040000Y-77165200D03*
X68580000Y-77165200D03*
X66040000Y-79705200D03*
X68580000Y-79705200D03*
X66040000Y-82245200D03*
X68580000Y-82245200D03*
X66040000Y-84785200D03*
X68580000Y-84785200D03*
X66040000Y-87325200D03*
X68580000Y-87325200D03*
X66040000Y-89865200D03*
X68580000Y-89865200D03*
X66040000Y-92405200D03*
X68580000Y-92405200D03*
X66040000Y-94945200D03*
X68580000Y-94945200D03*
X66040000Y-97485200D03*
X68580000Y-97485200D03*
X66040000Y-100025200D03*
X68580000Y-100025200D03*
X66040000Y-102565200D03*
X68580000Y-102565200D03*
X66040000Y-105105200D03*
X68580000Y-105105200D03*
X66040000Y-107645200D03*
X68580000Y-107645200D03*
X66040000Y-110185200D03*
X68580000Y-110185200D03*
X66040000Y-112725200D03*
X68580000Y-112725200D03*
X66040000Y-115265200D03*
X68580000Y-115265200D03*
X66040000Y-117805200D03*
X68580000Y-117805200D03*
X66040000Y-120345200D03*
X68580000Y-120345200D03*
X66040000Y-122885200D03*
X68580000Y-122885200D03*
X66040000Y-125425200D03*
D10*
X68580000Y-125425200D03*
M02*
