G04 #@! TF.GenerationSoftware,KiCad,Pcbnew,8.0.8*
G04 #@! TF.CreationDate,2025-04-15T10:23:40-07:00*
G04 #@! TF.ProjectId,AtInverter_v2,4174496e-7665-4727-9465-725f76322e6b,v1*
G04 #@! TF.SameCoordinates,Original*
G04 #@! TF.FileFunction,Copper,L1,Top*
G04 #@! TF.FilePolarity,Positive*
%FSLAX46Y46*%
G04 Gerber Fmt 4.6, Leading zero omitted, Abs format (unit mm)*
G04 Created by KiCad (PCBNEW 8.0.8) date 2025-04-15 10:23:40*
%MOMM*%
%LPD*%
G01*
G04 APERTURE LIST*
G04 Aperture macros list*
%AMRoundRect*
0 Rectangle with rounded corners*
0 $1 Rounding radius*
0 $2 $3 $4 $5 $6 $7 $8 $9 X,Y pos of 4 corners*
0 Add a 4 corners polygon primitive as box body*
4,1,4,$2,$3,$4,$5,$6,$7,$8,$9,$2,$3,0*
0 Add four circle primitives for the rounded corners*
1,1,$1+$1,$2,$3*
1,1,$1+$1,$4,$5*
1,1,$1+$1,$6,$7*
1,1,$1+$1,$8,$9*
0 Add four rect primitives between the rounded corners*
20,1,$1+$1,$2,$3,$4,$5,0*
20,1,$1+$1,$4,$5,$6,$7,0*
20,1,$1+$1,$6,$7,$8,$9,0*
20,1,$1+$1,$8,$9,$2,$3,0*%
G04 Aperture macros list end*
G04 #@! TA.AperFunction,ComponentPad*
%ADD10R,1.700000X1.700000*%
G04 #@! TD*
G04 #@! TA.AperFunction,SMDPad,CuDef*
%ADD11RoundRect,0.250000X0.650000X-0.325000X0.650000X0.325000X-0.650000X0.325000X-0.650000X-0.325000X0*%
G04 #@! TD*
G04 #@! TA.AperFunction,SMDPad,CuDef*
%ADD12RoundRect,0.250000X0.312500X0.625000X-0.312500X0.625000X-0.312500X-0.625000X0.312500X-0.625000X0*%
G04 #@! TD*
G04 #@! TA.AperFunction,ComponentPad*
%ADD13R,1.905000X2.000000*%
G04 #@! TD*
G04 #@! TA.AperFunction,ComponentPad*
%ADD14O,1.905000X2.000000*%
G04 #@! TD*
G04 #@! TA.AperFunction,SMDPad,CuDef*
%ADD15RoundRect,0.250000X-0.625000X0.312500X-0.625000X-0.312500X0.625000X-0.312500X0.625000X0.312500X0*%
G04 #@! TD*
G04 #@! TA.AperFunction,SMDPad,CuDef*
%ADD16RoundRect,0.250000X-0.312500X-0.625000X0.312500X-0.625000X0.312500X0.625000X-0.312500X0.625000X0*%
G04 #@! TD*
G04 #@! TA.AperFunction,SMDPad,CuDef*
%ADD17R,1.460500X0.533400*%
G04 #@! TD*
G04 #@! TA.AperFunction,SMDPad,CuDef*
%ADD18RoundRect,0.225000X0.375000X-0.225000X0.375000X0.225000X-0.375000X0.225000X-0.375000X-0.225000X0*%
G04 #@! TD*
G04 #@! TA.AperFunction,SMDPad,CuDef*
%ADD19R,1.981200X0.558800*%
G04 #@! TD*
G04 #@! TA.AperFunction,SMDPad,CuDef*
%ADD20RoundRect,0.250000X-0.325000X-0.650000X0.325000X-0.650000X0.325000X0.650000X-0.325000X0.650000X0*%
G04 #@! TD*
G04 #@! TA.AperFunction,ComponentPad*
%ADD21R,1.600000X1.600000*%
G04 #@! TD*
G04 #@! TA.AperFunction,ComponentPad*
%ADD22O,1.600000X1.600000*%
G04 #@! TD*
G04 #@! TA.AperFunction,SMDPad,CuDef*
%ADD23RoundRect,0.250000X0.625000X-0.312500X0.625000X0.312500X-0.625000X0.312500X-0.625000X-0.312500X0*%
G04 #@! TD*
G04 #@! TA.AperFunction,SMDPad,CuDef*
%ADD24RoundRect,0.250000X0.325000X0.650000X-0.325000X0.650000X-0.325000X-0.650000X0.325000X-0.650000X0*%
G04 #@! TD*
G04 #@! TA.AperFunction,SMDPad,CuDef*
%ADD25RoundRect,0.250000X-0.475000X0.250000X-0.475000X-0.250000X0.475000X-0.250000X0.475000X0.250000X0*%
G04 #@! TD*
G04 #@! TA.AperFunction,ComponentPad*
%ADD26C,2.100000*%
G04 #@! TD*
G04 #@! TA.AperFunction,SMDPad,CuDef*
%ADD27R,0.457200X1.371600*%
G04 #@! TD*
G04 #@! TA.AperFunction,SMDPad,CuDef*
%ADD28RoundRect,0.150000X0.150000X-0.512500X0.150000X0.512500X-0.150000X0.512500X-0.150000X-0.512500X0*%
G04 #@! TD*
G04 #@! TA.AperFunction,SMDPad,CuDef*
%ADD29R,1.473200X0.558800*%
G04 #@! TD*
G04 #@! TA.AperFunction,SMDPad,CuDef*
%ADD30RoundRect,0.250000X0.450000X-0.262500X0.450000X0.262500X-0.450000X0.262500X-0.450000X-0.262500X0*%
G04 #@! TD*
G04 #@! TA.AperFunction,ComponentPad*
%ADD31O,1.700000X1.700000*%
G04 #@! TD*
G04 #@! TA.AperFunction,ComponentPad*
%ADD32R,1.600200X1.600200*%
G04 #@! TD*
G04 #@! TA.AperFunction,ComponentPad*
%ADD33C,1.600200*%
G04 #@! TD*
G04 #@! TA.AperFunction,ComponentPad*
%ADD34C,1.500000*%
G04 #@! TD*
G04 #@! TA.AperFunction,SMDPad,CuDef*
%ADD35RoundRect,0.250000X-0.250000X-0.475000X0.250000X-0.475000X0.250000X0.475000X-0.250000X0.475000X0*%
G04 #@! TD*
G04 #@! TA.AperFunction,SMDPad,CuDef*
%ADD36R,1.460500X0.558800*%
G04 #@! TD*
G04 #@! TA.AperFunction,ComponentPad*
%ADD37C,1.371600*%
G04 #@! TD*
G04 #@! TA.AperFunction,SMDPad,CuDef*
%ADD38RoundRect,0.250000X0.250000X0.475000X-0.250000X0.475000X-0.250000X-0.475000X0.250000X-0.475000X0*%
G04 #@! TD*
G04 #@! TA.AperFunction,SMDPad,CuDef*
%ADD39RoundRect,0.225000X0.225000X0.375000X-0.225000X0.375000X-0.225000X-0.375000X0.225000X-0.375000X0*%
G04 #@! TD*
G04 #@! TA.AperFunction,SMDPad,CuDef*
%ADD40R,1.193800X1.193800*%
G04 #@! TD*
G04 #@! TA.AperFunction,SMDPad,CuDef*
%ADD41R,1.600200X1.498600*%
G04 #@! TD*
G04 #@! TA.AperFunction,SMDPad,CuDef*
%ADD42O,0.599999X0.249999*%
G04 #@! TD*
G04 #@! TA.AperFunction,SMDPad,CuDef*
%ADD43R,1.803400X4.495800*%
G04 #@! TD*
G04 #@! TA.AperFunction,ComponentPad*
%ADD44R,1.508000X1.508000*%
G04 #@! TD*
G04 #@! TA.AperFunction,ComponentPad*
%ADD45C,1.508000*%
G04 #@! TD*
G04 #@! TA.AperFunction,ComponentPad*
%ADD46R,2.500000X2.500000*%
G04 #@! TD*
G04 #@! TA.AperFunction,ComponentPad*
%ADD47C,2.500000*%
G04 #@! TD*
G04 #@! TA.AperFunction,SMDPad,CuDef*
%ADD48RoundRect,0.250000X-0.650000X0.325000X-0.650000X-0.325000X0.650000X-0.325000X0.650000X0.325000X0*%
G04 #@! TD*
G04 #@! TA.AperFunction,ComponentPad*
%ADD49C,2.565400*%
G04 #@! TD*
G04 #@! TA.AperFunction,SMDPad,CuDef*
%ADD50R,2.469157X0.622132*%
G04 #@! TD*
G04 #@! TA.AperFunction,SMDPad,CuDef*
%ADD51RoundRect,0.250000X-0.450000X0.262500X-0.450000X-0.262500X0.450000X-0.262500X0.450000X0.262500X0*%
G04 #@! TD*
G04 #@! TA.AperFunction,ViaPad*
%ADD52C,0.600000*%
G04 #@! TD*
G04 #@! TA.AperFunction,Conductor*
%ADD53C,0.200000*%
G04 #@! TD*
G04 #@! TA.AperFunction,Conductor*
%ADD54C,0.150000*%
G04 #@! TD*
G04 #@! TA.AperFunction,Conductor*
%ADD55C,0.127000*%
G04 #@! TD*
G04 #@! TA.AperFunction,Conductor*
%ADD56C,0.400000*%
G04 #@! TD*
G04 #@! TA.AperFunction,Conductor*
%ADD57C,2.000000*%
G04 #@! TD*
G04 #@! TA.AperFunction,Conductor*
%ADD58C,0.600000*%
G04 #@! TD*
G04 #@! TA.AperFunction,Conductor*
%ADD59C,1.000000*%
G04 #@! TD*
G04 APERTURE END LIST*
D10*
X125327400Y-47659400D03*
D11*
X100228400Y-57685200D03*
X100228400Y-54735200D03*
D12*
X96204500Y-53136800D03*
X93279500Y-53136800D03*
D13*
X125222000Y-66598800D03*
D14*
X127762000Y-66598800D03*
X130302000Y-66598800D03*
D15*
X73431400Y-117866700D03*
X73431400Y-120791700D03*
D16*
X121067100Y-58674000D03*
X123992100Y-58674000D03*
D10*
X100330000Y-45395000D03*
D17*
X71304150Y-65760600D03*
X71304150Y-64490600D03*
X71304150Y-63220600D03*
X71304150Y-61950600D03*
X65855850Y-61950600D03*
X65855850Y-63220600D03*
X65855850Y-64490600D03*
X65855850Y-65760600D03*
D10*
X81330800Y-63906400D03*
X125603000Y-71501000D03*
D18*
X104800400Y-74090800D03*
X104800400Y-70790800D03*
D19*
X110515400Y-49606200D03*
X110515400Y-50876200D03*
X110515400Y-52146200D03*
X110515400Y-53416200D03*
X115443000Y-53416200D03*
X115443000Y-52146200D03*
X115443000Y-50876200D03*
X115443000Y-49606200D03*
D12*
X114343900Y-46024800D03*
X111418900Y-46024800D03*
D20*
X97788200Y-72085200D03*
X100738200Y-72085200D03*
D21*
X91455400Y-115011200D03*
D22*
X91455400Y-112471200D03*
X91455400Y-109931200D03*
X91455400Y-107391200D03*
X91455400Y-104851200D03*
X91455400Y-102311200D03*
X91455400Y-99771200D03*
X91455400Y-97231200D03*
X91455400Y-94691200D03*
X91455400Y-92151200D03*
X91455400Y-89611200D03*
X91455400Y-87071200D03*
X91455400Y-84531200D03*
X91455400Y-81991200D03*
X83835400Y-81991200D03*
X83835400Y-84531200D03*
X83835400Y-87071200D03*
X83835400Y-89611200D03*
X83835400Y-92151200D03*
X83835400Y-94691200D03*
X83835400Y-97231200D03*
X83835400Y-99771200D03*
X83835400Y-102311200D03*
X83835400Y-104851200D03*
X83835400Y-107391200D03*
X83835400Y-109931200D03*
X83835400Y-112471200D03*
X83835400Y-115011200D03*
D23*
X77622400Y-127268700D03*
X77622400Y-124343700D03*
D11*
X73431400Y-127281200D03*
X73431400Y-124331200D03*
D24*
X90933800Y-119532400D03*
X87983800Y-119532400D03*
D10*
X89611200Y-77317600D03*
D16*
X115225100Y-56896000D03*
X118150100Y-56896000D03*
D13*
X112776000Y-66598800D03*
D14*
X115316000Y-66598800D03*
X117856000Y-66598800D03*
D10*
X78130400Y-120243600D03*
D25*
X94488000Y-71313000D03*
X94488000Y-73213000D03*
D26*
X73964800Y-107746800D03*
X73964800Y-105206800D03*
X73964800Y-102666800D03*
D10*
X78892400Y-87223600D03*
D23*
X91338400Y-126379700D03*
X91338400Y-123454700D03*
X95402400Y-126379700D03*
X95402400Y-123454700D03*
D27*
X85109598Y-73799700D03*
X84459600Y-73799700D03*
X83809598Y-73799700D03*
X83159600Y-73799700D03*
X83159600Y-78193900D03*
X83809598Y-78193900D03*
X84459600Y-78193900D03*
X85109598Y-78193900D03*
D10*
X100355400Y-50622200D03*
D26*
X74066400Y-97282000D03*
X74066400Y-94742000D03*
X74066400Y-92202000D03*
D23*
X112928400Y-90616500D03*
X112928400Y-87691500D03*
D10*
X140843000Y-82042000D03*
D28*
X135321000Y-83179500D03*
X136271000Y-83179500D03*
X137221000Y-83179500D03*
X137221000Y-80904500D03*
X136271000Y-80904500D03*
X135321000Y-80904500D03*
D24*
X120956600Y-45262800D03*
X118006600Y-45262800D03*
D29*
X74803000Y-63616799D03*
X74803000Y-64566800D03*
X74803000Y-65516801D03*
X77190600Y-65516801D03*
X77190600Y-63616799D03*
D30*
X132384800Y-77620500D03*
X132384800Y-75795500D03*
D11*
X103327200Y-85041000D03*
X103327200Y-82091000D03*
D31*
X140970000Y-71882000D03*
X143510000Y-71882000D03*
X140970000Y-74422000D03*
X143510000Y-74422000D03*
X140970000Y-76962000D03*
D10*
X143510000Y-76962000D03*
X101371400Y-117678200D03*
D32*
X137966000Y-59690000D03*
D33*
X137966000Y-62230000D03*
X137966000Y-64770000D03*
D10*
X95783400Y-130759200D03*
D15*
X105566200Y-50048700D03*
X105566200Y-52973700D03*
D34*
X97561400Y-85624800D03*
X97561400Y-90624800D03*
D16*
X121981500Y-77089000D03*
X124906500Y-77089000D03*
D35*
X135321000Y-74371200D03*
X137221000Y-74371200D03*
D10*
X84099400Y-69545200D03*
D16*
X93257900Y-57200800D03*
X96182900Y-57200800D03*
D21*
X78790800Y-69467400D03*
D22*
X78790800Y-72007400D03*
X78790800Y-74547400D03*
X78790800Y-77087400D03*
X78790800Y-79627400D03*
X78790800Y-82167400D03*
D35*
X135321000Y-77851000D03*
X137221000Y-77851000D03*
D36*
X95472250Y-64744600D03*
X95472250Y-66014600D03*
X95472250Y-67284600D03*
X95472250Y-68554600D03*
X100920550Y-68554600D03*
X100920550Y-67284600D03*
X100920550Y-66014600D03*
X100920550Y-64744600D03*
D37*
X124866400Y-117094000D03*
X119866400Y-117094000D03*
D10*
X73685400Y-113106200D03*
D23*
X120929400Y-73395300D03*
X120929400Y-70470300D03*
D24*
X142826000Y-90297000D03*
X139876000Y-90297000D03*
X111562400Y-57708800D03*
X108612400Y-57708800D03*
D37*
X113131600Y-122986800D03*
X108131600Y-122986800D03*
D13*
X113030000Y-83439000D03*
D14*
X115570000Y-83439000D03*
X118110000Y-83439000D03*
D38*
X137094000Y-87249000D03*
X135194000Y-87249000D03*
D21*
X78841600Y-110185200D03*
D22*
X78841600Y-107645200D03*
X78841600Y-105105200D03*
X78841600Y-102565200D03*
X78841600Y-100025200D03*
X78841600Y-97485200D03*
X78841600Y-94945200D03*
X78841600Y-92405200D03*
D10*
X142341600Y-118922800D03*
D31*
X142341600Y-121462800D03*
D10*
X108204000Y-89535000D03*
D39*
X99592400Y-61214000D03*
X96292400Y-61214000D03*
D10*
X123190000Y-89535000D03*
D40*
X105029000Y-46456600D03*
X107010200Y-46456600D03*
D41*
X106019600Y-43205400D03*
D10*
X122428000Y-94945200D03*
D42*
X82090000Y-119810401D03*
X82090000Y-120310400D03*
X82090000Y-120810402D03*
X82090000Y-121310400D03*
X85090000Y-121310400D03*
X85090000Y-120810402D03*
X85090000Y-120310400D03*
X85090000Y-119810401D03*
D43*
X127762000Y-88950800D03*
X131064000Y-88950800D03*
D10*
X66852800Y-56926600D03*
D35*
X89321600Y-67919600D03*
X91221600Y-67919600D03*
D12*
X97118900Y-119583200D03*
X94193900Y-119583200D03*
D10*
X142341600Y-129082800D03*
D31*
X142341600Y-131622800D03*
D44*
X75746600Y-44738400D03*
D45*
X75746600Y-57438400D03*
X85746600Y-57438400D03*
X85746600Y-44738400D03*
D10*
X111404400Y-75946000D03*
D12*
X96182900Y-49174400D03*
X93257900Y-49174400D03*
D10*
X94339400Y-44272200D03*
D46*
X131713600Y-49580800D03*
D47*
X136713600Y-49580800D03*
D36*
X95472250Y-75692000D03*
X95472250Y-76962000D03*
X95472250Y-78232000D03*
X95472250Y-79502000D03*
X100920550Y-79502000D03*
X100920550Y-78232000D03*
X100920550Y-76962000D03*
X100920550Y-75692000D03*
D10*
X103530400Y-130632200D03*
X130937000Y-71501000D03*
D38*
X137094000Y-90551000D03*
X135194000Y-90551000D03*
D48*
X124843000Y-52151600D03*
X124843000Y-55101600D03*
D10*
X86512400Y-125374400D03*
D49*
X135585200Y-113741200D03*
X135585200Y-94691200D03*
D25*
X104597200Y-66410800D03*
X104597200Y-68310800D03*
D48*
X91338400Y-61872600D03*
X91338400Y-64822600D03*
D13*
X125323600Y-83439000D03*
D14*
X127863600Y-83439000D03*
X130403600Y-83439000D03*
D10*
X117602000Y-89535000D03*
D16*
X109484700Y-71170800D03*
X112409700Y-71170800D03*
D25*
X104648000Y-76672400D03*
X104648000Y-78572400D03*
D12*
X68010500Y-44500800D03*
X65085500Y-44500800D03*
D10*
X85242400Y-131775200D03*
D31*
X82702400Y-131775200D03*
X80162400Y-131775200D03*
X77622400Y-131775200D03*
X75082400Y-131775200D03*
X72542400Y-131775200D03*
D50*
X127814800Y-57277000D03*
X127814800Y-58547000D03*
X127814800Y-59817000D03*
X127814800Y-61087000D03*
X132641998Y-61087000D03*
X132641998Y-59817000D03*
X132641998Y-58547000D03*
X132641998Y-57277000D03*
D10*
X143408400Y-49072800D03*
D31*
X143408400Y-51612800D03*
D10*
X131724400Y-119837200D03*
D12*
X118150100Y-60655200D03*
X115225100Y-60655200D03*
D16*
X104201500Y-62585600D03*
X107126500Y-62585600D03*
D10*
X66856600Y-49437400D03*
X101369600Y-122732800D03*
D31*
X101369600Y-125272800D03*
D24*
X142826000Y-86360000D03*
X139876000Y-86360000D03*
D15*
X95707200Y-96022700D03*
X95707200Y-98947700D03*
D10*
X73812400Y-87223600D03*
D46*
X131205600Y-128320800D03*
D47*
X136205600Y-128320800D03*
D23*
X120525000Y-53757600D03*
X120525000Y-50832600D03*
D31*
X145389600Y-43992800D03*
D10*
X142849600Y-43992800D03*
X78765400Y-115138200D03*
D21*
X73837800Y-69467400D03*
D22*
X73837800Y-72007400D03*
X73837800Y-74547400D03*
X73837800Y-77087400D03*
X73837800Y-79627400D03*
X73837800Y-82167400D03*
D23*
X104372400Y-58851900D03*
X104372400Y-55926900D03*
D10*
X86664800Y-63906400D03*
D48*
X103327200Y-88085400D03*
X103327200Y-91035400D03*
D51*
X128651000Y-75795500D03*
X128651000Y-77620500D03*
D23*
X81813400Y-127268700D03*
X81813400Y-124343700D03*
D50*
X120922402Y-124841000D03*
X120922402Y-126111000D03*
X120922402Y-127381000D03*
X120922402Y-128651000D03*
X125749600Y-128651000D03*
X125749600Y-127381000D03*
X125749600Y-126111000D03*
X125749600Y-124841000D03*
D10*
X96291400Y-112979200D03*
D49*
X109220000Y-94691200D03*
X109220000Y-113741200D03*
D31*
X66040000Y-77165200D03*
X68580000Y-77165200D03*
X66040000Y-79705200D03*
X68580000Y-79705200D03*
X66040000Y-82245200D03*
X68580000Y-82245200D03*
X66040000Y-84785200D03*
X68580000Y-84785200D03*
X66040000Y-87325200D03*
X68580000Y-87325200D03*
X66040000Y-89865200D03*
X68580000Y-89865200D03*
X66040000Y-92405200D03*
X68580000Y-92405200D03*
X66040000Y-94945200D03*
X68580000Y-94945200D03*
X66040000Y-97485200D03*
X68580000Y-97485200D03*
X66040000Y-100025200D03*
X68580000Y-100025200D03*
X66040000Y-102565200D03*
X68580000Y-102565200D03*
X66040000Y-105105200D03*
X68580000Y-105105200D03*
X66040000Y-107645200D03*
X68580000Y-107645200D03*
X66040000Y-110185200D03*
X68580000Y-110185200D03*
X66040000Y-112725200D03*
X68580000Y-112725200D03*
X66040000Y-115265200D03*
X68580000Y-115265200D03*
X66040000Y-117805200D03*
X68580000Y-117805200D03*
X66040000Y-120345200D03*
X68580000Y-120345200D03*
X66040000Y-122885200D03*
X68580000Y-122885200D03*
X66040000Y-125425200D03*
D10*
X68580000Y-125425200D03*
D52*
X85293200Y-85801200D03*
X118262400Y-110947200D03*
X81737200Y-85750400D03*
X89814400Y-106121200D03*
X74828400Y-84277200D03*
X102514400Y-109931200D03*
X135890000Y-89281000D03*
X94843600Y-69342000D03*
X103327200Y-83261200D03*
X92100400Y-119583200D03*
X98958400Y-72136000D03*
X91338400Y-63652400D03*
X109677200Y-54762400D03*
X105003600Y-44602400D03*
X126746000Y-129794000D03*
X110515400Y-54762400D03*
X141224000Y-90297000D03*
X133694802Y-62465598D03*
X106984800Y-44602400D03*
X94843600Y-80314800D03*
X141224000Y-86360000D03*
X96367600Y-80314800D03*
X132678802Y-62465598D03*
X81026000Y-120192800D03*
X111353600Y-54762400D03*
X138283600Y-77978000D03*
X93878400Y-74472800D03*
X94234000Y-68478400D03*
X73456800Y-65481200D03*
X135763000Y-84582000D03*
X122936000Y-58420000D03*
X125730000Y-129794000D03*
X95989600Y-69364400D03*
X134493000Y-88646000D03*
X81026000Y-119481600D03*
X128651000Y-74549000D03*
X138283600Y-74549000D03*
X72847200Y-61976000D03*
X137033000Y-84582000D03*
X136398000Y-84582000D03*
X131662802Y-62465598D03*
X95605600Y-80314800D03*
X101625400Y-88087200D03*
X95097600Y-55067200D03*
X124714000Y-129794000D03*
X83159600Y-75184000D03*
X112776000Y-53441600D03*
X70866000Y-73914000D03*
X81813400Y-94564200D03*
X130276600Y-57251600D03*
X91338400Y-69342000D03*
X98044000Y-57759600D03*
X81178400Y-99644200D03*
X112877600Y-132467400D03*
X127508000Y-130556000D03*
X81178400Y-113639600D03*
X93624400Y-69951600D03*
X113639600Y-50088800D03*
X79781400Y-89230200D03*
X118465600Y-58583227D03*
X98069400Y-55321200D03*
X87782400Y-115900200D03*
X84480400Y-122504200D03*
X86512400Y-115900200D03*
X83591400Y-122504200D03*
X71145400Y-120472200D03*
X84988400Y-116916200D03*
X79654400Y-116916200D03*
X71145400Y-118821200D03*
X92938600Y-79425800D03*
X76352400Y-101422200D03*
X76352400Y-113233200D03*
X93980000Y-83769200D03*
X81889600Y-70002400D03*
X81889600Y-71475600D03*
X86817200Y-69164200D03*
X86817200Y-73075800D03*
X87985600Y-74777600D03*
X87985600Y-69113400D03*
X85902800Y-87579200D03*
X87299800Y-87655400D03*
X72034400Y-108788200D03*
X102514400Y-113233200D03*
X81305400Y-75641200D03*
X76301600Y-77470000D03*
X101244400Y-111963200D03*
X113131600Y-127457200D03*
X123342400Y-126695200D03*
X139065000Y-79629000D03*
X139065000Y-84582000D03*
X89369900Y-103898700D03*
X95275400Y-100660200D03*
X92176600Y-77139800D03*
X103733600Y-61010800D03*
X96291400Y-109423200D03*
X93573600Y-62653300D03*
X99923600Y-91744800D03*
X89560400Y-96586200D03*
X88798400Y-101549200D03*
X96291400Y-105359200D03*
X107797600Y-49199800D03*
X89966800Y-69138800D03*
X80772000Y-71475600D03*
X80772000Y-70002400D03*
X81559400Y-83134200D03*
X88798400Y-82880200D03*
X74218800Y-67310000D03*
X75031600Y-61061600D03*
X72999600Y-63144400D03*
X85598000Y-69977000D03*
X85598000Y-72517000D03*
X106324400Y-78917800D03*
X93522800Y-132910800D03*
X64211200Y-127914400D03*
X98145600Y-121716800D03*
X96113600Y-121970800D03*
X82091400Y-122478800D03*
X97111100Y-51765200D03*
X106832400Y-54432200D03*
X105410000Y-82042000D03*
X101904800Y-73609200D03*
X106273600Y-77673200D03*
X120243600Y-77393800D03*
X120497600Y-80441800D03*
X105765600Y-80441800D03*
X133985000Y-81915000D03*
X136398000Y-85471000D03*
X128651000Y-78740000D03*
X133223000Y-79248000D03*
X119761000Y-68453000D03*
X122174000Y-66040000D03*
X102971600Y-69646800D03*
X130429000Y-64008000D03*
D53*
X63957200Y-45629100D02*
X65085500Y-44500800D01*
X63957200Y-127660400D02*
X63957200Y-45629100D01*
X64211200Y-127914400D02*
X63957200Y-127660400D01*
X73749000Y-59436000D02*
X75746600Y-57438400D01*
X64617600Y-60858400D02*
X66040000Y-59436000D01*
X64617600Y-73431400D02*
X64617600Y-60858400D01*
X66040000Y-59436000D02*
X73749000Y-59436000D01*
X66065400Y-74879200D02*
X64617600Y-73431400D01*
X69951600Y-74879200D02*
X66065400Y-74879200D01*
X70510400Y-75438000D02*
X69951600Y-74879200D01*
D54*
X81788000Y-85801200D02*
X81737200Y-85750400D01*
D53*
X124460000Y-117043200D02*
X124866400Y-117043200D01*
X67005200Y-57079000D02*
X75387200Y-57079000D01*
X66852800Y-56926600D02*
X67005200Y-57079000D01*
X75387200Y-57079000D02*
X75746600Y-57438400D01*
X89814400Y-106121200D02*
X98704400Y-106121200D01*
X118262400Y-110947200D02*
X118364000Y-110947200D01*
X118364000Y-110947200D02*
X124460000Y-117043200D01*
D54*
X70510400Y-81483200D02*
X70510400Y-75438000D01*
X73304400Y-84277200D02*
X70510400Y-81483200D01*
D53*
X98704400Y-106121200D02*
X102514400Y-109931200D01*
D54*
X85293200Y-85801200D02*
X81788000Y-85801200D01*
X74828400Y-84277200D02*
X73304400Y-84277200D01*
X72542400Y-128170200D02*
X72542400Y-131775200D01*
X73431400Y-127281200D02*
X72542400Y-128170200D01*
X123190000Y-58674000D02*
X123992100Y-58674000D01*
X122936000Y-58420000D02*
X123190000Y-58674000D01*
D53*
X141224000Y-86360000D02*
X139876000Y-86360000D01*
D54*
X73456800Y-65481200D02*
X74767399Y-65481200D01*
X74767399Y-65481200D02*
X74803000Y-65516801D01*
D53*
X95554800Y-79502000D02*
X95472250Y-79502000D01*
X136271000Y-83179500D02*
X136271000Y-84455000D01*
X111353600Y-54762400D02*
X111353600Y-54254400D01*
X103327200Y-83261200D02*
X103327200Y-82091000D01*
X105003600Y-44221400D02*
X106019600Y-43205400D01*
X138105800Y-74371200D02*
X138283600Y-74549000D01*
D54*
X95707200Y-98947700D02*
X94197900Y-98947700D01*
D53*
X91221600Y-67919600D02*
X91196200Y-67894200D01*
X91196200Y-64964800D02*
X91338400Y-64822600D01*
X103327200Y-88085400D02*
X101627200Y-88085400D01*
X94843600Y-69183250D02*
X95472250Y-68554600D01*
X136144000Y-84201000D02*
X135763000Y-84582000D01*
D54*
X81026000Y-120142000D02*
X81026000Y-120192800D01*
D53*
X128651000Y-75795500D02*
X128651000Y-74549000D01*
X106984800Y-44602400D02*
X106984800Y-44170600D01*
D54*
X83809598Y-74635500D02*
X83809598Y-73799700D01*
D53*
X132660400Y-62447196D02*
X132678802Y-62465598D01*
X125711598Y-129775598D02*
X125730000Y-129794000D01*
X137221000Y-74371200D02*
X138105800Y-74371200D01*
X136271000Y-83179500D02*
X136271000Y-83566000D01*
X138156600Y-77851000D02*
X138283600Y-77978000D01*
X95472250Y-79686150D02*
X95472250Y-79502000D01*
D54*
X83261098Y-75184000D02*
X83809598Y-74635500D01*
D53*
X96367600Y-80314800D02*
X95554800Y-79502000D01*
X135194000Y-89977000D02*
X135194000Y-90551000D01*
X109677200Y-54762400D02*
X109677200Y-54254400D01*
X94234000Y-68478400D02*
X94310200Y-68554600D01*
X136271000Y-83566000D02*
X136144000Y-83693000D01*
X94488000Y-73863200D02*
X93878400Y-74472800D01*
D54*
X94197900Y-98947700D02*
X92481400Y-97231200D01*
D53*
X132660400Y-61431196D02*
X133694802Y-62465598D01*
X136144000Y-83693000D02*
X136144000Y-84201000D01*
X110515400Y-54762400D02*
X110515400Y-53416200D01*
X134493000Y-88646000D02*
X135194000Y-87945000D01*
D54*
X92481400Y-97231200D02*
X91455400Y-97231200D01*
X92100400Y-119583200D02*
X90908400Y-119583200D01*
D53*
X94310200Y-68554600D02*
X95472250Y-68554600D01*
X94843600Y-80314800D02*
X95472250Y-79686150D01*
X100687400Y-72136000D02*
X100738200Y-72085200D01*
X135194000Y-87945000D02*
X135194000Y-87249000D01*
X95605600Y-80314800D02*
X95605600Y-79552800D01*
X94843600Y-69342000D02*
X94843600Y-69183250D01*
D55*
X82090000Y-119810401D02*
X81357599Y-119810401D01*
D53*
X94488000Y-73213000D02*
X94488000Y-73863200D01*
X132660400Y-61468000D02*
X131662802Y-62465598D01*
X132660400Y-61315798D02*
X132660400Y-62447196D01*
X136271000Y-84455000D02*
X136398000Y-84582000D01*
X105003600Y-44602400D02*
X105003600Y-44221400D01*
X136271000Y-83179500D02*
X136271000Y-83820000D01*
D54*
X81028798Y-119481600D02*
X81357599Y-119810401D01*
D53*
X141224000Y-90297000D02*
X139876000Y-90297000D01*
X136271000Y-83820000D02*
X137033000Y-84582000D01*
X125711598Y-128759598D02*
X126746000Y-129794000D01*
X137221000Y-77851000D02*
X138156600Y-77851000D01*
D54*
X81026000Y-119481600D02*
X81028798Y-119481600D01*
D53*
X125711598Y-128796402D02*
X124714000Y-129794000D01*
X106984800Y-44170600D02*
X106019600Y-43205400D01*
D54*
X95097600Y-54243700D02*
X96204500Y-53136800D01*
X71304150Y-61950600D02*
X72821800Y-61950600D01*
X72821800Y-61950600D02*
X72847200Y-61976000D01*
D53*
X111353600Y-54254400D02*
X110515400Y-53416200D01*
X95989600Y-69364400D02*
X95472250Y-68847050D01*
D54*
X81357599Y-119810401D02*
X81026000Y-120142000D01*
D53*
X101627200Y-88085400D02*
X101625400Y-88087200D01*
X91338400Y-63652400D02*
X91338400Y-64822600D01*
X125711598Y-128644200D02*
X125711598Y-129775598D01*
D54*
X83159600Y-75184000D02*
X83261098Y-75184000D01*
D53*
X91196200Y-67894200D02*
X91196200Y-64964800D01*
X95472250Y-68847050D02*
X95472250Y-68554600D01*
D54*
X95097600Y-55067200D02*
X95097600Y-54243700D01*
D53*
X98958400Y-72136000D02*
X100687400Y-72136000D01*
X109677200Y-54254400D02*
X110515400Y-53416200D01*
X135890000Y-89281000D02*
X135194000Y-89977000D01*
X80670400Y-117805200D02*
X73492900Y-117805200D01*
X73837800Y-69467400D02*
X75084000Y-70713600D01*
D56*
X105562400Y-103708200D02*
X105562400Y-108884450D01*
D54*
X84459600Y-72639400D02*
X84459600Y-73799700D01*
D56*
X72186800Y-75844400D02*
X70866000Y-74523600D01*
D53*
X81178400Y-113639600D02*
X81178400Y-117297200D01*
D57*
X142826000Y-90297000D02*
X142826000Y-100125000D01*
D58*
X135321000Y-80904500D02*
X135321000Y-81566999D01*
D56*
X97118900Y-117327950D02*
X97118900Y-119583200D01*
X105562400Y-108884450D02*
X97118900Y-117327950D01*
X126673112Y-124841000D02*
X127508000Y-125675888D01*
D57*
X84988400Y-94691200D02*
X90068400Y-99771200D01*
D56*
X132641998Y-57277000D02*
X133731000Y-57277000D01*
D53*
X81178400Y-117297200D02*
X80670400Y-117805200D01*
D56*
X65906650Y-65760600D02*
X65855850Y-65760600D01*
D54*
X89321600Y-68717200D02*
X86283800Y-71755000D01*
D53*
X112776000Y-53441600D02*
X112776000Y-56001500D01*
D54*
X70561200Y-61010800D02*
X73710800Y-61010800D01*
D56*
X81813400Y-94564200D02*
X82194400Y-94945200D01*
X102209600Y-59105800D02*
X103098600Y-59994800D01*
X112939100Y-59994800D02*
X115225100Y-57708800D01*
D53*
X89814400Y-67919600D02*
X89321600Y-67919600D01*
D58*
X140843000Y-82042000D02*
X138811000Y-82042000D01*
D54*
X76316799Y-63616799D02*
X77190600Y-63616799D01*
D56*
X77012800Y-88341200D02*
X77012800Y-76860400D01*
X134946400Y-64842400D02*
X140970000Y-70866000D01*
X116912327Y-58583227D02*
X115225100Y-56896000D01*
D54*
X81178400Y-97993200D02*
X83835400Y-95336200D01*
D58*
X138303000Y-82550000D02*
X138303000Y-86040000D01*
D53*
X97637600Y-54889400D02*
X97637600Y-50629100D01*
D56*
X133731000Y-57277000D02*
X134946400Y-58492400D01*
D53*
X114122200Y-49606200D02*
X115443000Y-49606200D01*
D57*
X142826000Y-90297000D02*
X142826000Y-86360000D01*
D56*
X77012800Y-76860400D02*
X75996800Y-75844400D01*
X97118900Y-124663200D02*
X97118900Y-119583200D01*
D53*
X113639600Y-50088800D02*
X114122200Y-49606200D01*
D56*
X75996800Y-75844400D02*
X72186800Y-75844400D01*
X132641998Y-57277000D02*
X130302000Y-57277000D01*
D54*
X81178400Y-99644200D02*
X81178400Y-97993200D01*
D56*
X70104000Y-73152000D02*
X70104000Y-71729600D01*
D53*
X97637600Y-50629100D02*
X96182900Y-49174400D01*
D56*
X125749600Y-124841000D02*
X126673112Y-124841000D01*
X112807800Y-132537200D02*
X101371400Y-132537200D01*
D57*
X90068400Y-99771200D02*
X91455400Y-99771200D01*
D56*
X130302000Y-57277000D02*
X130276600Y-57251600D01*
X101371400Y-132537200D02*
X95402400Y-126568200D01*
X98475800Y-59105800D02*
X102209600Y-59105800D01*
D58*
X138811000Y-82042000D02*
X138303000Y-82550000D01*
D56*
X112877600Y-132467400D02*
X112807800Y-132537200D01*
D53*
X98069400Y-55321200D02*
X97637600Y-54889400D01*
X113670500Y-56896000D02*
X115225100Y-56896000D01*
D58*
X137221000Y-81521000D02*
X137221000Y-80904500D01*
D56*
X67818000Y-69443600D02*
X67818000Y-67671950D01*
D53*
X112776000Y-56001500D02*
X113670500Y-56896000D01*
D58*
X136700000Y-82042000D02*
X137221000Y-81521000D01*
D56*
X70104000Y-71729600D02*
X67818000Y-69443600D01*
D54*
X73710800Y-61010800D02*
X76316799Y-63616799D01*
D56*
X70866000Y-74523600D02*
X70866000Y-73914000D01*
D57*
X142826000Y-100125000D02*
X140512800Y-102438200D01*
D54*
X65855850Y-65760600D02*
X66037600Y-65760600D01*
D53*
X73492900Y-117805200D02*
X73431400Y-117866700D01*
D54*
X85344000Y-71755000D02*
X84459600Y-72639400D01*
D56*
X106832400Y-102438200D02*
X105562400Y-103708200D01*
D57*
X83835400Y-94691200D02*
X84988400Y-94691200D01*
D58*
X138303000Y-86040000D02*
X137094000Y-87249000D01*
D53*
X91236800Y-69342000D02*
X89814400Y-67919600D01*
D57*
X140512800Y-102438200D02*
X106832400Y-102438200D01*
X94307590Y-102438200D02*
X91640590Y-99771200D01*
D53*
X75084000Y-70713600D02*
X82091898Y-70713600D01*
X84459600Y-73081302D02*
X84459600Y-73799700D01*
D56*
X83581400Y-94945200D02*
X83835400Y-94691200D01*
D53*
X95402400Y-126379700D02*
X91338400Y-126379700D01*
D54*
X83835400Y-95336200D02*
X83835400Y-94691200D01*
X67818000Y-63754000D02*
X70561200Y-61010800D01*
D56*
X67818000Y-67671950D02*
X65906650Y-65760600D01*
D57*
X91640590Y-99771200D02*
X91455400Y-99771200D01*
D54*
X89321600Y-67919600D02*
X89321600Y-68717200D01*
D56*
X82194400Y-94945200D02*
X83581400Y-94945200D01*
D53*
X98475800Y-59105800D02*
X98044000Y-58674000D01*
D57*
X106832400Y-102438200D02*
X94307590Y-102438200D01*
D56*
X127508000Y-125675888D02*
X127508000Y-130556000D01*
D58*
X138358500Y-82042000D02*
X137221000Y-80904500D01*
D53*
X91338400Y-69342000D02*
X91236800Y-69342000D01*
X115225100Y-57708800D02*
X115225100Y-56896000D01*
D54*
X67818000Y-67671950D02*
X67818000Y-63754000D01*
D53*
X93624400Y-69951600D02*
X94488000Y-70815200D01*
D56*
X77901800Y-89230200D02*
X77012800Y-88341200D01*
X79781400Y-89230200D02*
X77901800Y-89230200D01*
X140970000Y-70866000D02*
X140970000Y-71882000D01*
D53*
X94488000Y-70815200D02*
X94488000Y-71313000D01*
D58*
X138811000Y-82042000D02*
X138358500Y-82042000D01*
D56*
X70866000Y-73914000D02*
X70104000Y-73152000D01*
D58*
X135321000Y-81566999D02*
X135796001Y-82042000D01*
D56*
X95402400Y-126568200D02*
X95402400Y-126379700D01*
X95402400Y-126379700D02*
X97118900Y-124663200D01*
X134946400Y-58492400D02*
X134946400Y-64842400D01*
X118465600Y-58583227D02*
X116912327Y-58583227D01*
D53*
X98044000Y-58674000D02*
X98044000Y-57759600D01*
D56*
X103098600Y-59994800D02*
X112939100Y-59994800D01*
D53*
X82091898Y-70713600D02*
X84459600Y-73081302D01*
D54*
X86283800Y-71755000D02*
X85344000Y-71755000D01*
D58*
X135796001Y-82042000D02*
X136700000Y-82042000D01*
D59*
X80162400Y-131114800D02*
X81737200Y-129540000D01*
X80162400Y-131775200D02*
X80162400Y-131114800D01*
X144653000Y-132969000D02*
X144653000Y-78105000D01*
X90454600Y-133837800D02*
X143621200Y-133837800D01*
X143867000Y-133755000D02*
X144653000Y-132969000D01*
X81737200Y-129540000D02*
X86156800Y-129540000D01*
X86156800Y-129540000D02*
X90454600Y-133837800D01*
X144653000Y-78105000D02*
X143510000Y-76962000D01*
D54*
X84480400Y-127508000D02*
X83159600Y-128828800D01*
X87782400Y-115900200D02*
X87782400Y-114884200D01*
X84480400Y-122504200D02*
X84480400Y-127508000D01*
X83159600Y-128828800D02*
X80568800Y-128828800D01*
X80568800Y-128828800D02*
X77622400Y-131775200D01*
X90195400Y-112471200D02*
X91455400Y-112471200D01*
X87782400Y-114884200D02*
X90195400Y-112471200D01*
X86512400Y-114874200D02*
X91455400Y-109931200D01*
X78511400Y-128346200D02*
X75082400Y-131775200D01*
X86512400Y-115900200D02*
X86512400Y-114874200D01*
X83591400Y-127330200D02*
X82575400Y-128346200D01*
X82575400Y-128346200D02*
X78511400Y-128346200D01*
X83591400Y-122504200D02*
X83591400Y-127330200D01*
X89550400Y-116916200D02*
X91455400Y-115011200D01*
D55*
X71145400Y-117881400D02*
X71145400Y-118821200D01*
D54*
X73456800Y-124305800D02*
X73456800Y-120817100D01*
X73456800Y-120817100D02*
X73431400Y-120791700D01*
D55*
X79654400Y-116916200D02*
X72110600Y-116916200D01*
D54*
X71145400Y-120472200D02*
X71653400Y-120980200D01*
X73431400Y-124331200D02*
X73456800Y-124305800D01*
X71653400Y-120980200D02*
X73242900Y-120980200D01*
D55*
X72110600Y-116916200D02*
X71145400Y-117881400D01*
D54*
X84988400Y-116916200D02*
X89550400Y-116916200D01*
X73242900Y-120980200D02*
X73431400Y-120791700D01*
X76352400Y-113233200D02*
X76352400Y-113487200D01*
X92938600Y-79425800D02*
X92938600Y-67741800D01*
X90703400Y-89611200D02*
X91455400Y-89611200D01*
X76352400Y-100152200D02*
X77749400Y-98755200D01*
X92938600Y-67741800D02*
X94665800Y-66014600D01*
X94665800Y-66014600D02*
X95472250Y-66014600D01*
X79400400Y-98755200D02*
X80924400Y-97231200D01*
X87020400Y-93294200D02*
X90703400Y-89611200D01*
X77749400Y-98755200D02*
X79400400Y-98755200D01*
X78003400Y-115138200D02*
X78765400Y-115138200D01*
X82119464Y-93294200D02*
X87020400Y-93294200D01*
X91455400Y-89611200D02*
X93980000Y-87086600D01*
X80924400Y-97231200D02*
X80924400Y-94489264D01*
X93980000Y-87086600D02*
X93980000Y-83769200D01*
X76352400Y-101422200D02*
X76352400Y-100152200D01*
X76352400Y-113487200D02*
X78003400Y-115138200D01*
X80924400Y-94489264D02*
X82119464Y-93294200D01*
X88925400Y-108534200D02*
X90068400Y-107391200D01*
X80492600Y-108534200D02*
X88925400Y-108534200D01*
X78841600Y-110185200D02*
X80492600Y-108534200D01*
X90068400Y-107391200D02*
X91455400Y-107391200D01*
X78841600Y-105105200D02*
X79730600Y-105994200D01*
X89687400Y-104851200D02*
X91455400Y-104851200D01*
X88544400Y-105994200D02*
X89687400Y-104851200D01*
X79730600Y-105994200D02*
X88544400Y-105994200D01*
X81889600Y-68580000D02*
X78232000Y-64922400D01*
X81026000Y-89128600D02*
X81026000Y-84800600D01*
X75158600Y-64922400D02*
X74803000Y-64566800D01*
X83835400Y-81991200D02*
X82753200Y-81991200D01*
X81051400Y-76808000D02*
X78790800Y-74547400D01*
X80797400Y-89357200D02*
X81026000Y-89128600D01*
X82753200Y-81991200D02*
X81051400Y-80289400D01*
X81862600Y-71475600D02*
X78790800Y-74547400D01*
D55*
X80289400Y-89865200D02*
X75031600Y-89865200D01*
D54*
X81026000Y-84800600D02*
X83835400Y-81991200D01*
D55*
X73812400Y-88646000D02*
X73812400Y-87223600D01*
D54*
X81889600Y-70002400D02*
X81889600Y-68580000D01*
X78232000Y-64922400D02*
X75158600Y-64922400D01*
X81889600Y-71475600D02*
X81862600Y-71475600D01*
D55*
X80797400Y-89357200D02*
X80289400Y-89865200D01*
D54*
X81051400Y-80289400D02*
X81051400Y-76808000D01*
D55*
X75031600Y-89865200D02*
X73812400Y-88646000D01*
D54*
X78841600Y-100025200D02*
X79641599Y-100825199D01*
X89422514Y-100825199D02*
X90908515Y-102311200D01*
X90908515Y-102311200D02*
X91455400Y-102311200D01*
X79641599Y-100825199D02*
X89422514Y-100825199D01*
X78841600Y-100025200D02*
X78841600Y-99822000D01*
X86817200Y-68529200D02*
X82194400Y-63906400D01*
X85852000Y-86461600D02*
X85242400Y-87071200D01*
X85394800Y-76504800D02*
X84830300Y-76504800D01*
X85242400Y-87071200D02*
X83835400Y-87071200D01*
X83809598Y-79262998D02*
X85852000Y-81305400D01*
X83809598Y-78193900D02*
X83809598Y-79262998D01*
X86817200Y-75082400D02*
X85394800Y-76504800D01*
X84830300Y-76504800D02*
X83809598Y-77525502D01*
X83809598Y-77525502D02*
X83809598Y-78193900D01*
X85852000Y-81305400D02*
X85852000Y-86461600D01*
X82194400Y-63906400D02*
X81330800Y-63906400D01*
X86817200Y-73075800D02*
X86817200Y-75082400D01*
X86817200Y-69164200D02*
X86817200Y-68529200D01*
X87985600Y-65227200D02*
X86664800Y-63906400D01*
X84459600Y-77525498D02*
X84459600Y-78193900D01*
X86766400Y-81178400D02*
X84459600Y-78871600D01*
X84921498Y-77063600D02*
X84459600Y-77525498D01*
X84459600Y-78871600D02*
X84459600Y-78193900D01*
X85699600Y-77063600D02*
X84921498Y-77063600D01*
X86766400Y-86715600D02*
X86766400Y-81178400D01*
X87985600Y-69113400D02*
X87985600Y-65227200D01*
X87985600Y-74777600D02*
X85699600Y-77063600D01*
X85902800Y-87579200D02*
X86766400Y-86715600D01*
X85109598Y-78302398D02*
X85109598Y-78193900D01*
X85477898Y-77825600D02*
X89103200Y-77825600D01*
X87934800Y-87020400D02*
X87934800Y-81127600D01*
X87299800Y-87655400D02*
X87934800Y-87020400D01*
X89103200Y-77825600D02*
X89611200Y-77317600D01*
X85109598Y-78193900D02*
X85477898Y-77825600D01*
X87934800Y-81127600D02*
X85109598Y-78302398D01*
X91455400Y-87071200D02*
X90449400Y-87071200D01*
X72034400Y-108788200D02*
X72034400Y-91008200D01*
X90185400Y-88341200D02*
X91455400Y-87071200D01*
X72669400Y-90373200D02*
X81178400Y-90373200D01*
X93218000Y-83261200D02*
X94615000Y-81864200D01*
X90449400Y-87071200D02*
X89687400Y-86309200D01*
X96164400Y-76962000D02*
X95472250Y-76962000D01*
X95783400Y-81864200D02*
X96977200Y-80670400D01*
X96977200Y-80670400D02*
X96977200Y-77774800D01*
X96977200Y-77774800D02*
X96164400Y-76962000D01*
X90449400Y-83261200D02*
X93218000Y-83261200D01*
X81178400Y-90373200D02*
X83210400Y-88341200D01*
X89687400Y-84023200D02*
X90449400Y-83261200D01*
X83210400Y-88341200D02*
X90185400Y-88341200D01*
X72034400Y-91008200D02*
X72669400Y-90373200D01*
X89687400Y-86309200D02*
X89687400Y-84023200D01*
X94615000Y-81864200D02*
X95783400Y-81864200D01*
X75438000Y-84839600D02*
X76301600Y-83976000D01*
X103784400Y-125933200D02*
X103276400Y-126441200D01*
X101244400Y-111963200D02*
X97942400Y-108661200D01*
X75209400Y-110439200D02*
X71907400Y-110439200D01*
X80289400Y-112471200D02*
X77241400Y-112471200D01*
X105308400Y-127457200D02*
X103784400Y-125933200D01*
X83146900Y-73799700D02*
X83159600Y-73799700D01*
X103276400Y-126441200D02*
X103276400Y-130378200D01*
X70891400Y-109423200D02*
X70891400Y-86490600D01*
X103784400Y-125933200D02*
X103784400Y-114503200D01*
X77241400Y-112471200D02*
X75209400Y-110439200D01*
X70891400Y-86490600D02*
X72542400Y-84839600D01*
X97942400Y-108661200D02*
X90830400Y-108661200D01*
X90830400Y-108661200D02*
X88290400Y-111201200D01*
X113131600Y-127457200D02*
X105308400Y-127457200D01*
X103276400Y-130378200D02*
X103530400Y-130632200D01*
X81305400Y-75641200D02*
X83146900Y-73799700D01*
X72542400Y-84839600D02*
X75438000Y-84839600D01*
X123342400Y-126695200D02*
X123926600Y-126111000D01*
X123926600Y-126111000D02*
X125749600Y-126111000D01*
X81559400Y-111201200D02*
X80289400Y-112471200D01*
X76301600Y-83976000D02*
X76301600Y-77470000D01*
X103784400Y-114503200D02*
X102514400Y-113233200D01*
X88290400Y-111201200D02*
X81559400Y-111201200D01*
X71907400Y-110439200D02*
X70891400Y-109423200D01*
D57*
X144951200Y-135464800D02*
X88551000Y-135464800D01*
X88551000Y-135464800D02*
X87909400Y-134823200D01*
X144653000Y-74422000D02*
X146310000Y-76079000D01*
X146310000Y-134106000D02*
X144951200Y-135464800D01*
X143510000Y-74422000D02*
X144653000Y-74422000D01*
X146310000Y-76079000D02*
X146310000Y-134106000D01*
D54*
X134196802Y-59012802D02*
X133731000Y-58547000D01*
X139065000Y-84582000D02*
X139065000Y-99187000D01*
X95275400Y-100660200D02*
X122936000Y-100660200D01*
X122428000Y-95300800D02*
X121716800Y-96012000D01*
X133731000Y-58547000D02*
X132641998Y-58547000D01*
X88417400Y-104851200D02*
X83835400Y-104851200D01*
X139065000Y-99187000D02*
X137591800Y-100660200D01*
X121716800Y-99441000D02*
X122936000Y-100660200D01*
X122428000Y-94945200D02*
X122428000Y-95300800D01*
X139065000Y-79629000D02*
X139065000Y-70332600D01*
X134196802Y-65464402D02*
X134196802Y-59012802D01*
X139065000Y-70332600D02*
X134196802Y-65464402D01*
X137591800Y-100660200D02*
X122936000Y-100660200D01*
X121716800Y-96012000D02*
X121716800Y-99441000D01*
X89369900Y-103898700D02*
X88417400Y-104851200D01*
X73964800Y-107746800D02*
X78740000Y-107746800D01*
X78740000Y-107746800D02*
X78841600Y-107645200D01*
X78790800Y-102616000D02*
X78841600Y-102565200D01*
X73964800Y-102666800D02*
X74015600Y-102616000D01*
X74015600Y-102616000D02*
X78790800Y-102616000D01*
X78638400Y-97282000D02*
X78841600Y-97485200D01*
X74066400Y-97282000D02*
X78638400Y-97282000D01*
X74066400Y-92202000D02*
X78638400Y-92202000D01*
X78638400Y-92202000D02*
X78841600Y-92405200D01*
D53*
X92176600Y-67549708D02*
X93592600Y-66133708D01*
X90195400Y-103581200D02*
X88798400Y-102184200D01*
X95707200Y-96022700D02*
X95707200Y-95961200D01*
X88798400Y-102184200D02*
X88798400Y-101549200D01*
X96291400Y-105359200D02*
X95402400Y-104470200D01*
X115225100Y-60655200D02*
X114869500Y-61010800D01*
X95402400Y-104470200D02*
X93878400Y-104470200D01*
X95707200Y-95961200D02*
X99923600Y-91744800D01*
X92176600Y-77139800D02*
X92176600Y-67549708D01*
X114869500Y-61010800D02*
X103733600Y-61010800D01*
X93592600Y-62672300D02*
X93573600Y-62653300D01*
X92989400Y-103581200D02*
X90195400Y-103581200D01*
X90123900Y-96022700D02*
X95707200Y-96022700D01*
X84089400Y-102565200D02*
X83835400Y-102311200D01*
X88798400Y-102184200D02*
X88417400Y-102565200D01*
X96291400Y-109423200D02*
X96291400Y-112979200D01*
X88417400Y-102565200D02*
X84089400Y-102565200D01*
X93878400Y-104470200D02*
X92989400Y-103581200D01*
X93592600Y-66133708D02*
X93592600Y-62672300D01*
X89560400Y-96586200D02*
X90123900Y-96022700D01*
X86055200Y-73050400D02*
X86055200Y-74726800D01*
X110972600Y-44754800D02*
X113639600Y-44754800D01*
X83159600Y-76962000D02*
X83159600Y-78193900D01*
X113363609Y-50876200D02*
X115443000Y-50876200D01*
X125327400Y-47659400D02*
X125327400Y-51667200D01*
X84937600Y-75844400D02*
X84277200Y-75844400D01*
X115468400Y-50850800D02*
X117957600Y-50850800D01*
X114343900Y-46539700D02*
X113030000Y-47853600D01*
X113639600Y-44754800D02*
X114343900Y-45459100D01*
X107797600Y-49199800D02*
X107797600Y-47929800D01*
X125327400Y-51667200D02*
X124843000Y-52151600D01*
X117957600Y-50850800D02*
X119258400Y-52151600D01*
X84277200Y-75844400D02*
X83159600Y-76962000D01*
X107797600Y-47929800D02*
X110972600Y-44754800D01*
X113030000Y-47853600D02*
X113030000Y-50542591D01*
X114343900Y-46024800D02*
X114343900Y-46539700D01*
X119258400Y-52151600D02*
X124843000Y-52151600D01*
X115443000Y-50876200D02*
X115468400Y-50850800D01*
X113030000Y-50542591D02*
X113363609Y-50876200D01*
X114343900Y-45459100D02*
X114343900Y-46024800D01*
X89966800Y-69138800D02*
X86055200Y-73050400D01*
X86055200Y-74726800D02*
X84937600Y-75844400D01*
D54*
X92862400Y-85938200D02*
X91455400Y-84531200D01*
X78841600Y-94945200D02*
X82905600Y-90881200D01*
X92862400Y-87579200D02*
X92862400Y-85938200D01*
X90830400Y-88341200D02*
X92100400Y-88341200D01*
X88290400Y-90881200D02*
X90830400Y-88341200D01*
X92100400Y-88341200D02*
X92862400Y-87579200D01*
X82905600Y-90881200D02*
X88290400Y-90881200D01*
X80772000Y-71475600D02*
X80240200Y-72007400D01*
D55*
X80416400Y-76911200D02*
X79298800Y-75793600D01*
D54*
X81559400Y-83134200D02*
X78892400Y-85801200D01*
X96570800Y-72948800D02*
X93929200Y-75590400D01*
D55*
X77419200Y-73379000D02*
X78790800Y-72007400D01*
D54*
X81559400Y-83134200D02*
X80416400Y-81991200D01*
X93929200Y-76832600D02*
X95328600Y-78232000D01*
X80772000Y-70002400D02*
X80772000Y-68290199D01*
X77998602Y-65516801D02*
X77190600Y-65516801D01*
X78892400Y-85801200D02*
X78892400Y-87223600D01*
X95472250Y-67284600D02*
X95923100Y-67284600D01*
D55*
X78282800Y-75793600D02*
X77419200Y-74930000D01*
D54*
X93929200Y-75590400D02*
X93929200Y-76832600D01*
X95923100Y-67284600D02*
X96570800Y-67932300D01*
X91489536Y-81991200D02*
X95248736Y-78232000D01*
X80240200Y-72007400D02*
X78790800Y-72007400D01*
D55*
X79298800Y-75793600D02*
X78282800Y-75793600D01*
D54*
X91455400Y-81991200D02*
X89687400Y-81991200D01*
X80772000Y-68290199D02*
X77998602Y-65516801D01*
X95248736Y-78232000D02*
X95472250Y-78232000D01*
X89687400Y-81991200D02*
X88798400Y-82880200D01*
D55*
X77419200Y-74930000D02*
X77419200Y-73379000D01*
D54*
X91455400Y-81991200D02*
X91489536Y-81991200D01*
X80416400Y-81991200D02*
X80416400Y-76911200D01*
X95328600Y-78232000D02*
X95472250Y-78232000D01*
X96570800Y-67932300D02*
X96570800Y-72948800D01*
X71833600Y-65760600D02*
X71304150Y-65760600D01*
X74218800Y-67310000D02*
X72669400Y-65760600D01*
X73977401Y-63616799D02*
X71833600Y-65760600D01*
X72669400Y-65760600D02*
X71304150Y-65760600D01*
X74803000Y-63616799D02*
X73977401Y-63616799D01*
X73074200Y-72007400D02*
X73837800Y-72007400D01*
X70104000Y-69037200D02*
X73074200Y-72007400D01*
X71304150Y-64490600D02*
X70688200Y-64490600D01*
X78790800Y-76965600D02*
X78790800Y-77087400D01*
X70104000Y-65074800D02*
X70104000Y-69037200D01*
X73837800Y-72007400D02*
X73837800Y-72012600D01*
X70688200Y-64490600D02*
X70104000Y-65074800D01*
X73837800Y-72012600D02*
X78790800Y-76965600D01*
X71304150Y-63220600D02*
X70231000Y-63220600D01*
X74320400Y-73257200D02*
X77774800Y-76711600D01*
X77774800Y-76711600D02*
X77774800Y-78611400D01*
D53*
X101712300Y-60096400D02*
X104201500Y-62585600D01*
D54*
X77774800Y-78611400D02*
X78790800Y-79627400D01*
X78790800Y-82167400D02*
X78790800Y-79627400D01*
X69189600Y-69392800D02*
X73054000Y-73257200D01*
D53*
X72999600Y-63144400D02*
X71380350Y-63144400D01*
X75031600Y-61061600D02*
X75996800Y-60096400D01*
X71380350Y-63144400D02*
X71304150Y-63220600D01*
D54*
X69189600Y-64262000D02*
X69189600Y-69392800D01*
X73054000Y-73257200D02*
X74320400Y-73257200D01*
D53*
X75996800Y-60096400D02*
X101712300Y-60096400D01*
D54*
X70231000Y-63220600D02*
X69189600Y-64262000D01*
D56*
X111404400Y-75011400D02*
X111404400Y-75946000D01*
X112776000Y-66598800D02*
X112485900Y-66888900D01*
X112420400Y-71236300D02*
X112420400Y-73995400D01*
X112485900Y-71094600D02*
X112409700Y-71170800D01*
X112485900Y-66888900D02*
X112485900Y-71094600D01*
X112420400Y-73995400D02*
X111404400Y-75011400D01*
X120929400Y-69291200D02*
X120929400Y-70470300D01*
X125222000Y-68783200D02*
X126339600Y-69900800D01*
X125222000Y-66598800D02*
X123621800Y-66598800D01*
X125222000Y-66598800D02*
X125222000Y-68783200D01*
X126339600Y-69900800D02*
X127355600Y-69900800D01*
X128955800Y-71501000D02*
X130937000Y-71501000D01*
X127355600Y-69900800D02*
X128955800Y-71501000D01*
X123621800Y-66598800D02*
X120929400Y-69291200D01*
X113030000Y-87589900D02*
X112928400Y-87691500D01*
X113030000Y-83439000D02*
X112324000Y-82733000D01*
X112324000Y-82733000D02*
X109635900Y-82733000D01*
X108051600Y-84317300D02*
X108051600Y-89382600D01*
X108051600Y-89382600D02*
X108204000Y-89535000D01*
X113030000Y-83439000D02*
X113030000Y-87589900D01*
X109635900Y-82733000D02*
X108051600Y-84317300D01*
X124968000Y-77150500D02*
X124906500Y-77089000D01*
X124906500Y-72197500D02*
X124906500Y-77089000D01*
X125323600Y-83439000D02*
X124968000Y-83083400D01*
X125603000Y-71501000D02*
X124906500Y-72197500D01*
X124968000Y-83083400D02*
X124968000Y-77150500D01*
D54*
X83835400Y-84531200D02*
X85039200Y-83327400D01*
X85598000Y-72517000D02*
X85598000Y-73311298D01*
X82448400Y-79603600D02*
X82448400Y-76657200D01*
X85109598Y-74758002D02*
X85109598Y-73799700D01*
X85039200Y-83327400D02*
X85039200Y-81280000D01*
X84328000Y-80568800D02*
X83413600Y-80568800D01*
X84734400Y-75133200D02*
X85109598Y-74758002D01*
X83972400Y-75133200D02*
X84734400Y-75133200D01*
X85598000Y-73311298D02*
X85109598Y-73799700D01*
X85166200Y-69545200D02*
X85598000Y-69977000D01*
X82448400Y-76657200D02*
X83972400Y-75133200D01*
X85039200Y-81280000D02*
X84328000Y-80568800D01*
X84099400Y-69545200D02*
X85166200Y-69545200D01*
X83413600Y-80568800D02*
X82448400Y-79603600D01*
D53*
X105667800Y-47095400D02*
X105667800Y-49947100D01*
X111963200Y-57308000D02*
X111562400Y-57708800D01*
X103713400Y-45141000D02*
X105029000Y-46456600D01*
X100330000Y-45395000D02*
X100584000Y-45141000D01*
X108559600Y-49580800D02*
X108091700Y-50048700D01*
X105029000Y-46456600D02*
X105667800Y-47095400D01*
X110515400Y-49606200D02*
X110871000Y-49606200D01*
X100584000Y-45141000D02*
X103713400Y-45141000D01*
X108091700Y-50048700D02*
X105566200Y-50048700D01*
X110515400Y-49606200D02*
X110490000Y-49580800D01*
X105667800Y-49947100D02*
X105566200Y-50048700D01*
X110490000Y-49580800D02*
X108559600Y-49580800D01*
X110871000Y-49606200D02*
X111963200Y-50698400D01*
X111963200Y-50698400D02*
X111963200Y-57308000D01*
D56*
X104597200Y-66410800D02*
X104597200Y-65176400D01*
X100920550Y-64744600D02*
X102931000Y-64744600D01*
X100634800Y-61214000D02*
X99592400Y-61214000D01*
X104597200Y-65176400D02*
X100634800Y-61214000D01*
X102931000Y-64744600D02*
X104597200Y-66410800D01*
X102956400Y-68310800D02*
X104597200Y-68310800D01*
X101930200Y-67284600D02*
X102956400Y-68310800D01*
X100920550Y-67284600D02*
X101930200Y-67284600D01*
X100920550Y-75692000D02*
X103667600Y-75692000D01*
X104800400Y-76520000D02*
X104800400Y-74090800D01*
X104648000Y-76672400D02*
X104800400Y-76520000D01*
X103667600Y-75692000D02*
X104648000Y-76672400D01*
X101260950Y-78572400D02*
X100920550Y-78232000D01*
X106324400Y-78917800D02*
X105791000Y-78917800D01*
X105791000Y-78917800D02*
X105445600Y-78572400D01*
X105445600Y-78572400D02*
X101260950Y-78572400D01*
D53*
X100228400Y-57685200D02*
X102455350Y-57685200D01*
X104213650Y-55799900D02*
X104372400Y-55799900D01*
X102455350Y-57685200D02*
X104213650Y-55926900D01*
X85746600Y-57438400D02*
X87363200Y-59055000D01*
X87363200Y-59055000D02*
X94328700Y-59055000D01*
X97563500Y-57200800D02*
X100029100Y-54735200D01*
X100029100Y-54735200D02*
X100228400Y-54735200D01*
X94328700Y-59055000D02*
X96182900Y-57200800D01*
X100355400Y-54608200D02*
X100355400Y-50622200D01*
X96182900Y-57200800D02*
X97563500Y-57200800D01*
X100228400Y-54735200D02*
X100355400Y-54608200D01*
X120751600Y-45467800D02*
X120751600Y-50606000D01*
X120956600Y-45262800D02*
X120751600Y-45467800D01*
X120751600Y-50606000D02*
X120525000Y-50832600D01*
X114877200Y-43738800D02*
X116401200Y-45262800D01*
X107886600Y-46456600D02*
X110604400Y-43738800D01*
X107010200Y-46456600D02*
X107886600Y-46456600D01*
X110604400Y-43738800D02*
X114877200Y-43738800D01*
X116401200Y-45262800D02*
X118006600Y-45262800D01*
X85091400Y-119849199D02*
X85091400Y-120349198D01*
X94193900Y-119583200D02*
X92923900Y-118313200D01*
X87692401Y-119849199D02*
X85091400Y-119849199D01*
X92923900Y-118313200D02*
X89203000Y-118313200D01*
X87958400Y-119557800D02*
X87958400Y-119583200D01*
X89203000Y-118313200D02*
X87958400Y-119557800D01*
X87958400Y-119583200D02*
X87692401Y-119849199D01*
X106023400Y-57200900D02*
X104372400Y-58851900D01*
X110490000Y-50850800D02*
X107689100Y-50850800D01*
X107485800Y-58835400D02*
X104388900Y-58835400D01*
X110515400Y-50876200D02*
X110490000Y-50850800D01*
X107689100Y-50850800D02*
X105566200Y-52973700D01*
X108612400Y-57708800D02*
X107485800Y-58835400D01*
X106023400Y-53430900D02*
X106023400Y-57200900D01*
X104388900Y-58835400D02*
X104372400Y-58851900D01*
X105566200Y-52973700D02*
X106023400Y-53430900D01*
X111418900Y-46024800D02*
X112500400Y-47106300D01*
X118211600Y-52120800D02*
X115468400Y-52120800D01*
X124843000Y-55101600D02*
X121869000Y-55101600D01*
X121869000Y-55101600D02*
X120525000Y-53757600D01*
X112500400Y-47106300D02*
X112500400Y-51489600D01*
X119848400Y-53757600D02*
X118211600Y-52120800D01*
X112500400Y-51489600D02*
X113157000Y-52146200D01*
X120525000Y-53757600D02*
X119848400Y-53757600D01*
X113157000Y-52146200D02*
X115443000Y-52146200D01*
X124855500Y-55089100D02*
X124843000Y-55101600D01*
X115468400Y-52120800D02*
X115443000Y-52146200D01*
D54*
X97309800Y-90624800D02*
X93243400Y-94691200D01*
X102919000Y-90627200D02*
X97563800Y-90627200D01*
X93243400Y-94691200D02*
X91455400Y-94691200D01*
X97561400Y-90624800D02*
X97309800Y-90624800D01*
X103327200Y-91035400D02*
X102919000Y-90627200D01*
X97563800Y-90627200D02*
X97561400Y-90624800D01*
X97561400Y-85624800D02*
X97561400Y-86055200D01*
X91465400Y-92151200D02*
X91455400Y-92151200D01*
X97561400Y-86055200D02*
X91465400Y-92151200D01*
X102973400Y-85394800D02*
X97791400Y-85394800D01*
X97791400Y-85394800D02*
X97561400Y-85624800D01*
X103327200Y-85041000D02*
X102973400Y-85394800D01*
D53*
X126532000Y-132994400D02*
X131256400Y-128270000D01*
X93522800Y-132910800D02*
X93606400Y-132994400D01*
X93606400Y-132994400D02*
X126532000Y-132994400D01*
D54*
X91338400Y-123454700D02*
X89854500Y-121970800D01*
X81991200Y-118872000D02*
X81991200Y-114315400D01*
X90768900Y-123454700D02*
X89814400Y-124409200D01*
X85902800Y-121970800D02*
X85242400Y-121310400D01*
X90576400Y-127838200D02*
X92862400Y-127838200D01*
X89814400Y-127076200D02*
X90576400Y-127838200D01*
X85242400Y-121310400D02*
X84429600Y-121310400D01*
X84429600Y-121310400D02*
X81991200Y-118872000D01*
X91338400Y-123454700D02*
X90768900Y-123454700D01*
X92862400Y-127838200D02*
X95783400Y-130759200D01*
X89814400Y-124409200D02*
X89814400Y-127076200D01*
X81991200Y-114315400D02*
X83835400Y-112471200D01*
X89854500Y-121970800D02*
X85902800Y-121970800D01*
X84564602Y-120810402D02*
X83835400Y-120081200D01*
X85656802Y-120810402D02*
X84564602Y-120810402D01*
X95402400Y-123454700D02*
X96113600Y-122743500D01*
X95402400Y-123454700D02*
X95402400Y-123393200D01*
X86055200Y-121208800D02*
X85656802Y-120810402D01*
X98145600Y-121716800D02*
X101371400Y-118491000D01*
X83835400Y-120081200D02*
X83835400Y-115011200D01*
X101371400Y-118491000D02*
X101371400Y-117678200D01*
X95402400Y-123393200D02*
X93218000Y-121208800D01*
X93218000Y-121208800D02*
X86055200Y-121208800D01*
X96113600Y-122743500D02*
X96113600Y-121970800D01*
D56*
X67403000Y-124248200D02*
X67403000Y-106282200D01*
D53*
X69851600Y-125933200D02*
X76286900Y-125933200D01*
D54*
X82515200Y-120310400D02*
X83083400Y-120878600D01*
D53*
X76286900Y-125933200D02*
X77622400Y-127268700D01*
D54*
X83083400Y-120878600D02*
X83083400Y-125998700D01*
X82090000Y-120310400D02*
X82515200Y-120310400D01*
D53*
X68884800Y-124966400D02*
X69851600Y-125933200D01*
D56*
X67403000Y-106282200D02*
X68580000Y-105105200D01*
X68580000Y-125425200D02*
X67403000Y-124248200D01*
D53*
X77622400Y-127268700D02*
X77749400Y-127141700D01*
X77749400Y-127141700D02*
X81686400Y-127141700D01*
D54*
X83083400Y-125998700D02*
X81813400Y-127268700D01*
D53*
X81686400Y-127141700D02*
X81813400Y-127268700D01*
D54*
X78638400Y-124343700D02*
X81632902Y-121349198D01*
X71526400Y-125171200D02*
X68884800Y-122529600D01*
X77622400Y-124343700D02*
X78638400Y-124343700D01*
X68884800Y-122529600D02*
X68884800Y-122426400D01*
X81632902Y-121349198D02*
X82091400Y-121349198D01*
X76794900Y-125171200D02*
X71526400Y-125171200D01*
X77622400Y-124343700D02*
X76794900Y-125171200D01*
X82091400Y-122478800D02*
X82091400Y-121349198D01*
X82593400Y-121176352D02*
X82593400Y-123563700D01*
X82593400Y-123563700D02*
X81813400Y-124343700D01*
X81094198Y-120810402D02*
X82227450Y-120810402D01*
X77241400Y-122123200D02*
X77241400Y-121132600D01*
X68580000Y-120345200D02*
X69291200Y-119634000D01*
X82227450Y-120810402D02*
X82593400Y-121176352D01*
X74752200Y-119634000D02*
X77241400Y-122123200D01*
X79781400Y-122123200D02*
X81094198Y-120810402D01*
X69291200Y-119634000D02*
X74752200Y-119634000D01*
X77241400Y-122123200D02*
X79781400Y-122123200D01*
X77241400Y-121132600D02*
X78130400Y-120243600D01*
D53*
X68248100Y-44738400D02*
X75746600Y-44738400D01*
X68010500Y-44500800D02*
X68248100Y-44738400D01*
X66729600Y-49310400D02*
X66729600Y-45781700D01*
X66729600Y-45781700D02*
X68010500Y-44500800D01*
X66856600Y-49437400D02*
X66729600Y-49310400D01*
X95438500Y-51638200D02*
X93939900Y-53136800D01*
X93334100Y-49250600D02*
X93334100Y-53082200D01*
X89758400Y-49174400D02*
X93257900Y-49174400D01*
X93272600Y-53143700D02*
X93272600Y-57186100D01*
X106832400Y-54432200D02*
X109118400Y-52146200D01*
X96984100Y-51638200D02*
X95438500Y-51638200D01*
X93257900Y-49174400D02*
X93334100Y-49250600D01*
X85746600Y-44738400D02*
X85746600Y-45162600D01*
X93873200Y-44738400D02*
X94339400Y-44272200D01*
X85746600Y-44738400D02*
X93873200Y-44738400D01*
X97111100Y-51765200D02*
X96984100Y-51638200D01*
X93279500Y-53136800D02*
X93272600Y-53143700D01*
X93334100Y-53082200D02*
X93279500Y-53136800D01*
X85746600Y-45162600D02*
X89758400Y-49174400D01*
X93939900Y-53136800D02*
X93279500Y-53136800D01*
X93272600Y-57186100D02*
X93257900Y-57200800D01*
X109118400Y-52146200D02*
X110515400Y-52146200D01*
X115443000Y-53416200D02*
X115443000Y-54940200D01*
X119928100Y-58674000D02*
X121067100Y-58674000D01*
X118150100Y-56896000D02*
X119928100Y-58674000D01*
X117398800Y-56896000D02*
X118150100Y-56896000D01*
X115443000Y-54940200D02*
X117398800Y-56896000D01*
D56*
X102082600Y-66014600D02*
X103479600Y-67411600D01*
X103479600Y-67411600D02*
X107645200Y-67411600D01*
X100920550Y-66014600D02*
X102082600Y-66014600D01*
X107645200Y-67411600D02*
X109484700Y-69251100D01*
X109484700Y-69251100D02*
X109484700Y-71170800D01*
X101904800Y-73609200D02*
X102108000Y-73406000D01*
X102108000Y-73406000D02*
X102108000Y-69742050D01*
X105410000Y-90436700D02*
X106591100Y-91617800D01*
X105410000Y-82042000D02*
X105410000Y-90436700D01*
X111927100Y-91617800D02*
X112928400Y-90616500D01*
X102108000Y-69742050D02*
X100920550Y-68554600D01*
X106591100Y-91617800D02*
X111927100Y-91617800D01*
X120243600Y-77393800D02*
X120269000Y-77368400D01*
X101977800Y-77625600D02*
X101584150Y-77625600D01*
X101584150Y-77625600D02*
X100920550Y-76962000D01*
X106273600Y-77673200D02*
X102025400Y-77673200D01*
X120269000Y-74055700D02*
X120929400Y-73395300D01*
X120269000Y-77368400D02*
X120269000Y-74055700D01*
X102025400Y-77673200D02*
X101977800Y-77625600D01*
X121981500Y-78957900D02*
X121981500Y-77089000D01*
X105765600Y-80441800D02*
X101860350Y-80441800D01*
X120497600Y-80441800D02*
X121981500Y-78957900D01*
X101860350Y-80441800D02*
X100920550Y-79502000D01*
D57*
X143510000Y-67437000D02*
X143510000Y-71882000D01*
X140843000Y-64770000D02*
X143510000Y-67437000D01*
X137994400Y-64770000D02*
X140843000Y-64770000D01*
D53*
X137560000Y-85071000D02*
X137560000Y-83518500D01*
X132384800Y-77620500D02*
X133602100Y-77620500D01*
X133985000Y-80086200D02*
X133985000Y-81915000D01*
X128651000Y-78740000D02*
X128651000Y-77620500D01*
X133248400Y-79248000D02*
X133223000Y-79248000D01*
X133223000Y-79324200D02*
X133985000Y-80086200D01*
X133602100Y-77620500D02*
X133985000Y-78003400D01*
X136398000Y-85471000D02*
X137160000Y-85471000D01*
X133985000Y-78511400D02*
X133248400Y-79248000D01*
X137560000Y-83518500D02*
X137221000Y-83179500D01*
X133223000Y-79248000D02*
X133223000Y-79324200D01*
X137160000Y-85471000D02*
X137560000Y-85071000D01*
X133985000Y-78003400D02*
X133985000Y-78511400D01*
D56*
X96078650Y-75085600D02*
X95472250Y-75692000D01*
X95472250Y-62034150D02*
X94906100Y-61468000D01*
X96615250Y-74549000D02*
X96078650Y-75085600D01*
X102971600Y-70104000D02*
X103658400Y-70790800D01*
X97483400Y-66362100D02*
X97483400Y-71780400D01*
X94906100Y-61468000D02*
X91743000Y-61468000D01*
X102971600Y-70104000D02*
X102971600Y-73964800D01*
X133985000Y-73035200D02*
X135321000Y-74371200D01*
X135321000Y-77851000D02*
X136271000Y-78801000D01*
X102971600Y-73964800D02*
X102387400Y-74549000D01*
X95472250Y-62034150D02*
X96292400Y-61214000D01*
X95472250Y-64744600D02*
X95865900Y-64744600D01*
X131699000Y-64008000D02*
X133985000Y-66294000D01*
X97483400Y-71780400D02*
X97788200Y-72085200D01*
X91743000Y-61468000D02*
X91338400Y-61872600D01*
X97788200Y-73376050D02*
X96078650Y-75085600D01*
X102387400Y-74549000D02*
X96615250Y-74549000D01*
X102971600Y-69646800D02*
X102971600Y-70104000D01*
X130429000Y-64008000D02*
X131699000Y-64008000D01*
X103658400Y-70790800D02*
X104800400Y-70790800D01*
X95865900Y-64744600D02*
X97483400Y-66362100D01*
X133985000Y-66294000D02*
X133985000Y-73035200D01*
X97788200Y-72085200D02*
X97788200Y-73376050D01*
X119761000Y-68453000D02*
X122174000Y-66040000D01*
X136271000Y-78801000D02*
X136271000Y-80904500D01*
X95472250Y-64744600D02*
X95472250Y-62034150D01*
G04 #@! TA.AperFunction,Conductor*
G36*
X136214039Y-72917685D02*
G01*
X136259794Y-72970489D01*
X136271000Y-73022000D01*
X136271000Y-73577248D01*
X136264706Y-73616251D01*
X136223113Y-73741771D01*
X136212500Y-73845647D01*
X136212500Y-74896737D01*
X136212501Y-74896753D01*
X136223113Y-75000626D01*
X136264706Y-75126149D01*
X136271000Y-75165150D01*
X136271000Y-77057048D01*
X136264706Y-77096051D01*
X136223113Y-77221571D01*
X136212500Y-77325447D01*
X136212500Y-78376537D01*
X136212501Y-78376553D01*
X136223113Y-78480427D01*
X136238045Y-78525489D01*
X136264706Y-78605949D01*
X136271000Y-78644950D01*
X136271000Y-78743000D01*
X136251315Y-78810039D01*
X136198511Y-78855794D01*
X136147000Y-78867000D01*
X135890000Y-78867000D01*
X134681283Y-78867000D01*
X134614244Y-78847315D01*
X134568489Y-78794511D01*
X134558545Y-78725353D01*
X134561508Y-78710906D01*
X134578166Y-78648738D01*
X134582949Y-78630887D01*
X134593500Y-78591511D01*
X134593500Y-77923289D01*
X134552032Y-77768528D01*
X134509612Y-77695054D01*
X134493000Y-77633055D01*
X134493000Y-76327000D01*
X131696000Y-76327000D01*
X131628961Y-76307315D01*
X131583206Y-76254511D01*
X131572000Y-76203000D01*
X131572000Y-74673000D01*
X131591685Y-74605961D01*
X131644489Y-74560206D01*
X131696000Y-74549000D01*
X133350000Y-74549000D01*
X133350000Y-73022000D01*
X133369685Y-72954961D01*
X133422489Y-72909206D01*
X133474000Y-72898000D01*
X136147000Y-72898000D01*
X136214039Y-72917685D01*
G37*
G04 #@! TD.AperFunction*
G04 #@! TA.AperFunction,Conductor*
G36*
X141944539Y-70504685D02*
G01*
X141990294Y-70557489D01*
X142001500Y-70609000D01*
X142001500Y-72000727D01*
X142038643Y-72235241D01*
X142081550Y-72367293D01*
X142106931Y-72445408D01*
X142113000Y-72483724D01*
X142113000Y-73820274D01*
X142106931Y-73858592D01*
X142038644Y-74068754D01*
X142038644Y-74068757D01*
X142001500Y-74303272D01*
X142001500Y-74540727D01*
X142038643Y-74775241D01*
X142081550Y-74907293D01*
X142106931Y-74985408D01*
X142113000Y-75023724D01*
X142113000Y-78740000D01*
X143520500Y-78740000D01*
X143587539Y-78759685D01*
X143633294Y-78812489D01*
X143644500Y-78864000D01*
X143644500Y-91824000D01*
X143624815Y-91891039D01*
X143572011Y-91936794D01*
X143520500Y-91948000D01*
X140311692Y-91948000D01*
X140244653Y-91928315D01*
X140198898Y-91875511D01*
X140188954Y-91806353D01*
X140217979Y-91742797D01*
X140276757Y-91705023D01*
X140299090Y-91700642D01*
X140301002Y-91700446D01*
X140355426Y-91694887D01*
X140523738Y-91639115D01*
X140674652Y-91546030D01*
X140800030Y-91420652D01*
X140893115Y-91269738D01*
X140924215Y-91175881D01*
X140963987Y-91118437D01*
X141028503Y-91091613D01*
X141055804Y-91091664D01*
X141083170Y-91094748D01*
X141223997Y-91110616D01*
X141224000Y-91110616D01*
X141224004Y-91110616D01*
X141405041Y-91090218D01*
X141405044Y-91090217D01*
X141405047Y-91090217D01*
X141577015Y-91030043D01*
X141731281Y-90933111D01*
X141860111Y-90804281D01*
X141957043Y-90650015D01*
X142017217Y-90478047D01*
X142037616Y-90297000D01*
X142017217Y-90115953D01*
X141957043Y-89943985D01*
X141860111Y-89789719D01*
X141731281Y-89660889D01*
X141577015Y-89563957D01*
X141522693Y-89544949D01*
X141405046Y-89503782D01*
X141405041Y-89503781D01*
X141224004Y-89483384D01*
X141223996Y-89483384D01*
X141055804Y-89502334D01*
X140986982Y-89490279D01*
X140935603Y-89442930D01*
X140924215Y-89418118D01*
X140893115Y-89324262D01*
X140800030Y-89173348D01*
X140674652Y-89047970D01*
X140523738Y-88954885D01*
X140523735Y-88954884D01*
X140355427Y-88899113D01*
X140251552Y-88888500D01*
X140251545Y-88888500D01*
X139772500Y-88888500D01*
X139705461Y-88868815D01*
X139659706Y-88816011D01*
X139648500Y-88764500D01*
X139648500Y-87892499D01*
X139668185Y-87825460D01*
X139720989Y-87779705D01*
X139772500Y-87768499D01*
X140251537Y-87768499D01*
X140251544Y-87768499D01*
X140355426Y-87757887D01*
X140523738Y-87702115D01*
X140674652Y-87609030D01*
X140800030Y-87483652D01*
X140893115Y-87332738D01*
X140924215Y-87238881D01*
X140963987Y-87181437D01*
X141028503Y-87154613D01*
X141055804Y-87154664D01*
X141083170Y-87157748D01*
X141223997Y-87173616D01*
X141224000Y-87173616D01*
X141224004Y-87173616D01*
X141405041Y-87153218D01*
X141405044Y-87153217D01*
X141405047Y-87153217D01*
X141577015Y-87093043D01*
X141731281Y-86996111D01*
X141860111Y-86867281D01*
X141957043Y-86713015D01*
X142017217Y-86541047D01*
X142037616Y-86360000D01*
X142017217Y-86178953D01*
X141957043Y-86006985D01*
X141860111Y-85852719D01*
X141731281Y-85723889D01*
X141577015Y-85626957D01*
X141522693Y-85607949D01*
X141405046Y-85566782D01*
X141405041Y-85566781D01*
X141224004Y-85546384D01*
X141223996Y-85546384D01*
X141055804Y-85565334D01*
X140986982Y-85553279D01*
X140935603Y-85505930D01*
X140924215Y-85481118D01*
X140893115Y-85387262D01*
X140800030Y-85236348D01*
X140674652Y-85110970D01*
X140523738Y-85017885D01*
X140523735Y-85017884D01*
X140355427Y-84962113D01*
X140251552Y-84951500D01*
X140251545Y-84951500D01*
X139967037Y-84951500D01*
X139899998Y-84931815D01*
X139854243Y-84879011D01*
X139844299Y-84809853D01*
X139849995Y-84786546D01*
X139858216Y-84763049D01*
X139858217Y-84763047D01*
X139878616Y-84582000D01*
X139858217Y-84400953D01*
X139798043Y-84228985D01*
X139701111Y-84074719D01*
X139572281Y-83945889D01*
X139418015Y-83848957D01*
X139275044Y-83798929D01*
X139218269Y-83758208D01*
X139192522Y-83693255D01*
X139192000Y-83681888D01*
X139192000Y-80529111D01*
X139211685Y-80462072D01*
X139264489Y-80416317D01*
X139275029Y-80412075D01*
X139418015Y-80362043D01*
X139572281Y-80265111D01*
X139701111Y-80136281D01*
X139798043Y-79982015D01*
X139858217Y-79810047D01*
X139878616Y-79629000D01*
X139858217Y-79447953D01*
X139798043Y-79275985D01*
X139701111Y-79121719D01*
X139684819Y-79105427D01*
X139651334Y-79044104D01*
X139648500Y-79017746D01*
X139648500Y-70609000D01*
X139668185Y-70541961D01*
X139720989Y-70496206D01*
X139772500Y-70485000D01*
X141877500Y-70485000D01*
X141944539Y-70504685D01*
G37*
G04 #@! TD.AperFunction*
G04 #@! TA.AperFunction,Conductor*
G36*
X139804938Y-109905464D02*
G01*
X139871922Y-109925331D01*
X139917534Y-109978258D01*
X139928600Y-110029464D01*
X139928600Y-126669800D01*
X143520500Y-126669800D01*
X143587539Y-126689485D01*
X143633294Y-126742289D01*
X143644500Y-126793800D01*
X143644500Y-132499904D01*
X143624815Y-132566943D01*
X143608181Y-132587585D01*
X143402785Y-132792981D01*
X143341462Y-132826466D01*
X143315104Y-132829300D01*
X134236000Y-132829300D01*
X134168961Y-132809615D01*
X134123206Y-132756811D01*
X134112000Y-132705300D01*
X134112000Y-118033800D01*
X121282000Y-118033800D01*
X121214961Y-118014115D01*
X121169206Y-117961311D01*
X121158000Y-117909800D01*
X121158000Y-110054531D01*
X121177685Y-109987492D01*
X121230489Y-109941737D01*
X121281328Y-109930533D01*
X130555461Y-109880402D01*
X130556391Y-109880401D01*
X139804938Y-109905464D01*
G37*
G04 #@! TD.AperFunction*
G04 #@! TA.AperFunction,Conductor*
G36*
X135049286Y-82442685D02*
G01*
X135069928Y-82459319D01*
X135280608Y-82670000D01*
X135280611Y-82670003D01*
X135407391Y-82754714D01*
X135452196Y-82808326D01*
X135462500Y-82857816D01*
X135462500Y-83747426D01*
X135442815Y-83814465D01*
X135404473Y-83852419D01*
X135255720Y-83945887D01*
X135126889Y-84074718D01*
X135029958Y-84228982D01*
X134969782Y-84400953D01*
X134969781Y-84400958D01*
X134949384Y-84581996D01*
X134949384Y-84582003D01*
X134969781Y-84763041D01*
X134969782Y-84763046D01*
X135010949Y-84880693D01*
X135029957Y-84935015D01*
X135126889Y-85089281D01*
X135255719Y-85218111D01*
X135409985Y-85315043D01*
X135501339Y-85347009D01*
X135558114Y-85387729D01*
X135583862Y-85452682D01*
X135584384Y-85464050D01*
X135584384Y-85471003D01*
X135604781Y-85652041D01*
X135604782Y-85652046D01*
X135664958Y-85824019D01*
X135664959Y-85824020D01*
X135670026Y-85832084D01*
X135689026Y-85899321D01*
X135668658Y-85966156D01*
X135615389Y-86011369D01*
X135552430Y-86021413D01*
X135494547Y-86015500D01*
X134893462Y-86015500D01*
X134893446Y-86015501D01*
X134789572Y-86026113D01*
X134621264Y-86081884D01*
X134621255Y-86081888D01*
X134612095Y-86087539D01*
X134546999Y-86106000D01*
X134239000Y-86106000D01*
X134239000Y-86470138D01*
X134232706Y-86509142D01*
X134196113Y-86619572D01*
X134185500Y-86723447D01*
X134185500Y-87774537D01*
X134185501Y-87774555D01*
X134188215Y-87801115D01*
X134175445Y-87869808D01*
X134130829Y-87918710D01*
X133985718Y-88009889D01*
X133856889Y-88138718D01*
X133759958Y-88292982D01*
X133699782Y-88464953D01*
X133699781Y-88464958D01*
X133679384Y-88645996D01*
X133679384Y-88646003D01*
X133699781Y-88827041D01*
X133699782Y-88827046D01*
X133740949Y-88944693D01*
X133759957Y-88999015D01*
X133856889Y-89153281D01*
X133985719Y-89282111D01*
X134139985Y-89379043D01*
X134155952Y-89384630D01*
X134212728Y-89425349D01*
X134238478Y-89490301D01*
X134239000Y-89501672D01*
X134239000Y-89772138D01*
X134232706Y-89811142D01*
X134196113Y-89921572D01*
X134185500Y-90025447D01*
X134185500Y-90025460D01*
X134185501Y-90929500D01*
X134165817Y-90996539D01*
X134113013Y-91042294D01*
X134061501Y-91053500D01*
X132363481Y-91053500D01*
X132345213Y-91053825D01*
X132338526Y-91054064D01*
X132336323Y-91054143D01*
X132336315Y-91054143D01*
X132336299Y-91054144D01*
X132318028Y-91055124D01*
X132318026Y-91055124D01*
X132215966Y-91077324D01*
X132175213Y-91086189D01*
X132175210Y-91086189D01*
X132175210Y-91086190D01*
X132110579Y-91110295D01*
X132109807Y-91110576D01*
X132109734Y-91110609D01*
X131985351Y-91178531D01*
X131925922Y-91193700D01*
X130204671Y-91193700D01*
X130137632Y-91174015D01*
X130132143Y-91170276D01*
X130131641Y-91169914D01*
X130131630Y-91169906D01*
X130124364Y-91164862D01*
X130109160Y-91154703D01*
X130109158Y-91154702D01*
X129998987Y-91104387D01*
X129946184Y-91058631D01*
X129926500Y-90991593D01*
X129926500Y-86103010D01*
X129926500Y-86103000D01*
X129914764Y-85993843D01*
X129903558Y-85942332D01*
X129903453Y-85942017D01*
X129868893Y-85838179D01*
X129868891Y-85838175D01*
X129813684Y-85752271D01*
X129794000Y-85685232D01*
X129794000Y-85341000D01*
X129813685Y-85273961D01*
X129866489Y-85228206D01*
X129918000Y-85217000D01*
X133223000Y-85217000D01*
X133223000Y-82595754D01*
X133242685Y-82528715D01*
X133295489Y-82482960D01*
X133364647Y-82473016D01*
X133428203Y-82502041D01*
X133434681Y-82508073D01*
X133477719Y-82551111D01*
X133631985Y-82648043D01*
X133803953Y-82708217D01*
X133803958Y-82708218D01*
X133984996Y-82728616D01*
X133985000Y-82728616D01*
X133985004Y-82728616D01*
X134166041Y-82708218D01*
X134166044Y-82708217D01*
X134166047Y-82708217D01*
X134338015Y-82648043D01*
X134492281Y-82551111D01*
X134584073Y-82459319D01*
X134645396Y-82425834D01*
X134671754Y-82423000D01*
X134982247Y-82423000D01*
X135049286Y-82442685D01*
G37*
G04 #@! TD.AperFunction*
G04 #@! TA.AperFunction,Conductor*
G36*
X134159000Y-46609000D02*
G01*
X134159000Y-54229000D01*
X145465000Y-54229000D01*
X145532039Y-54248685D01*
X145577794Y-54301489D01*
X145589000Y-54353000D01*
X145589000Y-56260982D01*
X145589000Y-56261000D01*
X124546524Y-56261000D01*
X124552085Y-56242060D01*
X124604889Y-56196305D01*
X124656397Y-56185099D01*
X125543544Y-56185099D01*
X125647426Y-56174487D01*
X125815738Y-56118715D01*
X125966652Y-56025630D01*
X126092030Y-55900252D01*
X126185115Y-55749338D01*
X126240887Y-55581026D01*
X126251500Y-55477145D01*
X126251499Y-54726056D01*
X126240887Y-54622174D01*
X126185115Y-54453862D01*
X126092030Y-54302948D01*
X125966652Y-54177570D01*
X125815738Y-54084485D01*
X125815735Y-54084484D01*
X125647427Y-54028713D01*
X125543545Y-54018100D01*
X124142462Y-54018100D01*
X124142446Y-54018101D01*
X124038572Y-54028713D01*
X123870264Y-54084484D01*
X123870259Y-54084486D01*
X123719346Y-54177571D01*
X123593971Y-54302946D01*
X123513015Y-54434197D01*
X123461067Y-54480922D01*
X123407476Y-54493100D01*
X122172410Y-54493100D01*
X122105371Y-54473415D01*
X122084733Y-54456785D01*
X121935341Y-54307392D01*
X121901858Y-54246071D01*
X121899666Y-54207110D01*
X121908499Y-54120651D01*
X121908500Y-54120645D01*
X121908499Y-53394556D01*
X121897887Y-53290674D01*
X121842115Y-53122362D01*
X121749030Y-52971448D01*
X121749029Y-52971447D01*
X121749028Y-52971445D01*
X121744552Y-52965785D01*
X121745625Y-52964936D01*
X121715878Y-52910458D01*
X121720862Y-52840766D01*
X121762734Y-52784833D01*
X121828198Y-52760416D01*
X121837044Y-52760100D01*
X123407476Y-52760100D01*
X123474515Y-52779785D01*
X123513013Y-52819001D01*
X123593970Y-52950252D01*
X123719348Y-53075630D01*
X123870262Y-53168715D01*
X124038574Y-53224487D01*
X124142455Y-53235100D01*
X125543544Y-53235099D01*
X125647426Y-53224487D01*
X125815738Y-53168715D01*
X125966652Y-53075630D01*
X126092030Y-52950252D01*
X126185115Y-52799338D01*
X126240887Y-52631026D01*
X126251500Y-52527145D01*
X126251499Y-51776056D01*
X126240887Y-51672174D01*
X126185115Y-51503862D01*
X126092030Y-51352948D01*
X125972218Y-51233136D01*
X125938734Y-51171813D01*
X125935900Y-51145455D01*
X125935900Y-49141900D01*
X125955585Y-49074861D01*
X126008389Y-49029106D01*
X126059900Y-49017900D01*
X126226038Y-49017900D01*
X126226054Y-49017899D01*
X126253092Y-49014991D01*
X126286601Y-49011389D01*
X126423604Y-48960289D01*
X126540661Y-48872661D01*
X126628289Y-48755604D01*
X126679389Y-48618601D01*
X126682991Y-48585092D01*
X126685899Y-48558054D01*
X126685900Y-48558037D01*
X126685900Y-48282955D01*
X129963600Y-48282955D01*
X129963600Y-49330800D01*
X131113599Y-49330800D01*
X131088579Y-49391202D01*
X131063600Y-49516781D01*
X131063600Y-49644819D01*
X131088579Y-49770398D01*
X131113599Y-49830800D01*
X129963600Y-49830800D01*
X129963600Y-50878644D01*
X129970001Y-50938172D01*
X129970003Y-50938179D01*
X130020245Y-51072886D01*
X130020249Y-51072893D01*
X130106409Y-51187987D01*
X130106412Y-51187990D01*
X130221506Y-51274150D01*
X130221513Y-51274154D01*
X130356220Y-51324396D01*
X130356227Y-51324398D01*
X130415755Y-51330799D01*
X130415772Y-51330800D01*
X131463600Y-51330800D01*
X131463600Y-50180801D01*
X131524002Y-50205821D01*
X131649581Y-50230800D01*
X131777619Y-50230800D01*
X131903198Y-50205821D01*
X131963600Y-50180801D01*
X131963600Y-51330800D01*
X133011428Y-51330800D01*
X133011444Y-51330799D01*
X133070972Y-51324398D01*
X133070979Y-51324396D01*
X133205686Y-51274154D01*
X133205693Y-51274150D01*
X133320787Y-51187990D01*
X133320790Y-51187987D01*
X133406950Y-51072893D01*
X133406954Y-51072886D01*
X133457196Y-50938179D01*
X133457198Y-50938172D01*
X133463599Y-50878644D01*
X133463600Y-50878627D01*
X133463600Y-49830800D01*
X132313601Y-49830800D01*
X132338621Y-49770398D01*
X132363600Y-49644819D01*
X132363600Y-49516781D01*
X132338621Y-49391202D01*
X132313601Y-49330800D01*
X133463600Y-49330800D01*
X133463600Y-48282972D01*
X133463599Y-48282955D01*
X133457198Y-48223427D01*
X133457196Y-48223420D01*
X133406954Y-48088713D01*
X133406950Y-48088706D01*
X133320790Y-47973612D01*
X133320787Y-47973609D01*
X133205693Y-47887449D01*
X133205686Y-47887445D01*
X133070979Y-47837203D01*
X133070972Y-47837201D01*
X133011444Y-47830800D01*
X131963600Y-47830800D01*
X131963600Y-48980798D01*
X131903198Y-48955779D01*
X131777619Y-48930800D01*
X131649581Y-48930800D01*
X131524002Y-48955779D01*
X131463600Y-48980798D01*
X131463600Y-47830800D01*
X130415755Y-47830800D01*
X130356227Y-47837201D01*
X130356220Y-47837203D01*
X130221513Y-47887445D01*
X130221506Y-47887449D01*
X130106412Y-47973609D01*
X130106409Y-47973612D01*
X130020249Y-48088706D01*
X130020245Y-48088713D01*
X129970003Y-48223420D01*
X129970001Y-48223427D01*
X129963600Y-48282955D01*
X126685900Y-48282955D01*
X126685900Y-46760762D01*
X126685899Y-46760745D01*
X126682557Y-46729670D01*
X126679389Y-46700199D01*
X126628289Y-46563196D01*
X126540661Y-46446139D01*
X126423604Y-46358511D01*
X126286603Y-46307411D01*
X126226054Y-46300900D01*
X126226038Y-46300900D01*
X124428762Y-46300900D01*
X124428745Y-46300900D01*
X124368197Y-46307411D01*
X124368195Y-46307411D01*
X124231195Y-46358511D01*
X124114139Y-46446139D01*
X124026511Y-46563195D01*
X123975411Y-46700195D01*
X123975411Y-46700197D01*
X123968900Y-46760745D01*
X123968900Y-48558054D01*
X123975411Y-48618602D01*
X123975411Y-48618604D01*
X124026511Y-48755604D01*
X124114139Y-48872661D01*
X124231196Y-48960289D01*
X124368199Y-49011389D01*
X124395450Y-49014318D01*
X124428745Y-49017899D01*
X124428762Y-49017900D01*
X124594900Y-49017900D01*
X124661939Y-49037585D01*
X124707694Y-49090389D01*
X124718900Y-49141900D01*
X124718900Y-50944100D01*
X124699215Y-51011139D01*
X124646411Y-51056894D01*
X124594900Y-51068100D01*
X124142462Y-51068100D01*
X124142446Y-51068101D01*
X124038572Y-51078713D01*
X123870264Y-51134484D01*
X123870259Y-51134486D01*
X123719346Y-51227571D01*
X123593971Y-51352946D01*
X123593970Y-51352948D01*
X123521395Y-51470611D01*
X123513015Y-51484197D01*
X123461067Y-51530922D01*
X123407476Y-51543100D01*
X121988896Y-51543100D01*
X121921857Y-51523415D01*
X121876102Y-51470611D01*
X121866158Y-51401453D01*
X121871190Y-51380097D01*
X121897886Y-51299529D01*
X121897886Y-51299528D01*
X121897887Y-51299526D01*
X121908500Y-51195645D01*
X121908499Y-50469556D01*
X121897887Y-50365674D01*
X121842115Y-50197362D01*
X121749030Y-50046448D01*
X121623652Y-49921070D01*
X121623648Y-49921067D01*
X121517903Y-49855842D01*
X121471178Y-49803894D01*
X121459000Y-49750304D01*
X121459000Y-46742615D01*
X121478685Y-46675576D01*
X121531489Y-46629821D01*
X121543983Y-46624914D01*
X121604338Y-46604915D01*
X121755252Y-46511830D01*
X121880630Y-46386452D01*
X121973715Y-46235538D01*
X122029487Y-46067226D01*
X122040100Y-45963345D01*
X122040099Y-44562256D01*
X122029487Y-44458374D01*
X121973715Y-44290062D01*
X121880630Y-44139148D01*
X121755252Y-44013770D01*
X121604338Y-43920685D01*
X121543996Y-43900690D01*
X121486551Y-43860917D01*
X121459728Y-43796401D01*
X121459000Y-43782984D01*
X121459000Y-42923000D01*
X121478685Y-42855961D01*
X121531489Y-42810206D01*
X121583000Y-42799000D01*
X134159000Y-42799000D01*
X134159000Y-46609000D01*
G37*
G04 #@! TD.AperFunction*
G04 #@! TA.AperFunction,Conductor*
G36*
X141473557Y-42818685D02*
G01*
X141519312Y-42871489D01*
X141529256Y-42940647D01*
X141522699Y-42966334D01*
X141497612Y-43033592D01*
X141497611Y-43033597D01*
X141491100Y-43094145D01*
X141491100Y-44891454D01*
X141497611Y-44952002D01*
X141497611Y-44952004D01*
X141548711Y-45089004D01*
X141636339Y-45206061D01*
X141753396Y-45293689D01*
X141890399Y-45344789D01*
X141917650Y-45347718D01*
X141950945Y-45351299D01*
X141950962Y-45351300D01*
X143748238Y-45351300D01*
X143748254Y-45351299D01*
X143775292Y-45348391D01*
X143808801Y-45344789D01*
X143945804Y-45293689D01*
X144062861Y-45206061D01*
X144150489Y-45089004D01*
X144195738Y-44967687D01*
X144237609Y-44911756D01*
X144303074Y-44887339D01*
X144371346Y-44902191D01*
X144403145Y-44927036D01*
X144466360Y-44995706D01*
X144644024Y-45133989D01*
X144644025Y-45133989D01*
X144644027Y-45133991D01*
X144770735Y-45202561D01*
X144842026Y-45241142D01*
X145054965Y-45314244D01*
X145277031Y-45351300D01*
X145465000Y-45351300D01*
X145532039Y-45370985D01*
X145577794Y-45423789D01*
X145589000Y-45475300D01*
X145589000Y-52581000D01*
X145569315Y-52648039D01*
X145516511Y-52693794D01*
X145465000Y-52705000D01*
X140379000Y-52705000D01*
X140311961Y-52685315D01*
X140266206Y-52632511D01*
X140255000Y-52581000D01*
X140255000Y-46609000D01*
X134159000Y-46609000D01*
X134159000Y-42799000D01*
X141406518Y-42799000D01*
X141473557Y-42818685D01*
G37*
G04 #@! TD.AperFunction*
G04 #@! TA.AperFunction,Conductor*
G36*
X145589822Y-56458381D02*
G01*
X145613881Y-62232483D01*
X145594476Y-62299604D01*
X145541863Y-62345579D01*
X145489882Y-62357000D01*
X139403599Y-62357000D01*
X139336560Y-62337315D01*
X139290805Y-62284511D01*
X139280118Y-62235389D01*
X139280071Y-62235394D01*
X139280038Y-62235018D01*
X139279599Y-62233000D01*
X139279599Y-62229999D01*
X139259642Y-62001900D01*
X139259642Y-62001896D01*
X139200379Y-61780723D01*
X139103610Y-61573201D01*
X139103608Y-61573198D01*
X139103607Y-61573196D01*
X138972278Y-61385639D01*
X138972273Y-61385633D01*
X138810369Y-61223729D01*
X138810365Y-61223725D01*
X138622800Y-61092390D01*
X138622796Y-61092388D01*
X138415283Y-60995623D01*
X138415269Y-60995618D01*
X138194109Y-60936359D01*
X138194099Y-60936357D01*
X137966001Y-60916401D01*
X137965999Y-60916401D01*
X137737900Y-60936357D01*
X137737890Y-60936359D01*
X137516730Y-60995618D01*
X137516721Y-60995622D01*
X137309200Y-61092390D01*
X137309196Y-61092392D01*
X137121639Y-61223721D01*
X137121633Y-61223726D01*
X136959726Y-61385633D01*
X136959721Y-61385639D01*
X136828392Y-61573196D01*
X136828390Y-61573200D01*
X136828390Y-61573201D01*
X136740666Y-61761327D01*
X136731622Y-61780721D01*
X136731618Y-61780730D01*
X136672359Y-62001890D01*
X136672357Y-62001900D01*
X136652401Y-62229999D01*
X136652401Y-62233000D01*
X136652027Y-62234273D01*
X136651929Y-62235394D01*
X136651703Y-62235374D01*
X136632716Y-62300039D01*
X136579912Y-62345794D01*
X136528401Y-62357000D01*
X135832400Y-62357000D01*
X135765361Y-62337315D01*
X135719606Y-62284511D01*
X135708400Y-62233000D01*
X135708400Y-56515000D01*
X134145033Y-56515000D01*
X134101700Y-56507182D01*
X133985775Y-56463944D01*
X133985776Y-56463944D01*
X133925231Y-56457434D01*
X133925215Y-56457434D01*
X131358781Y-56457434D01*
X131358764Y-56457434D01*
X131298220Y-56463944D01*
X131182296Y-56507182D01*
X131138963Y-56515000D01*
X130640519Y-56515000D01*
X130599565Y-56508042D01*
X130558605Y-56493709D01*
X130457646Y-56458382D01*
X130457641Y-56458381D01*
X130276604Y-56437984D01*
X130276596Y-56437984D01*
X130095558Y-56458381D01*
X130095553Y-56458382D01*
X129983253Y-56497678D01*
X129953634Y-56508042D01*
X129912681Y-56515000D01*
X129358400Y-56515000D01*
X129358400Y-58899880D01*
X129338715Y-58966919D01*
X129285911Y-59012674D01*
X129216753Y-59022618D01*
X129191068Y-59016062D01*
X129158580Y-59003945D01*
X129158578Y-59003944D01*
X129098033Y-58997434D01*
X129098017Y-58997434D01*
X126531583Y-58997434D01*
X126531566Y-58997434D01*
X126471022Y-59003944D01*
X126355098Y-59047182D01*
X126311765Y-59055000D01*
X125187100Y-59055000D01*
X125120061Y-59035315D01*
X125074306Y-58982511D01*
X125063100Y-58931000D01*
X125063099Y-57998462D01*
X125063098Y-57998446D01*
X125061688Y-57984643D01*
X125052487Y-57894574D01*
X124996715Y-57726262D01*
X124903630Y-57575348D01*
X124778252Y-57449970D01*
X124627338Y-57356885D01*
X124617394Y-57353590D01*
X124559951Y-57313818D01*
X124533128Y-57249302D01*
X124532400Y-57235885D01*
X124532400Y-56261000D01*
X145589000Y-56261000D01*
X145589822Y-56458381D01*
G37*
G04 #@! TD.AperFunction*
G04 #@! TA.AperFunction,Conductor*
G36*
X129356039Y-85998685D02*
G01*
X129401794Y-86051489D01*
X129413000Y-86103000D01*
X129413000Y-91567000D01*
X129764499Y-91567000D01*
X129831538Y-91586685D01*
X129838804Y-91591729D01*
X129916096Y-91649589D01*
X130053099Y-91700689D01*
X130080350Y-91703618D01*
X130113645Y-91707199D01*
X130113662Y-91707200D01*
X132014338Y-91707200D01*
X132014354Y-91707199D01*
X132041392Y-91704291D01*
X132074901Y-91700689D01*
X132211904Y-91649589D01*
X132289190Y-91591732D01*
X132354655Y-91567316D01*
X132363501Y-91567000D01*
X134360956Y-91567000D01*
X134427995Y-91586685D01*
X134448637Y-91603319D01*
X134470348Y-91625030D01*
X134621262Y-91718115D01*
X134789574Y-91773887D01*
X134893455Y-91784500D01*
X135494544Y-91784499D01*
X135598426Y-91773887D01*
X135766738Y-91718115D01*
X135917652Y-91625030D01*
X135939363Y-91603319D01*
X136000686Y-91569834D01*
X136027044Y-91567000D01*
X136144000Y-91567000D01*
X136144000Y-91344950D01*
X136150293Y-91305949D01*
X136191887Y-91180426D01*
X136202500Y-91076545D01*
X136202499Y-90108032D01*
X136222183Y-90040994D01*
X136260525Y-90003040D01*
X136397281Y-89917111D01*
X136526111Y-89788281D01*
X136623043Y-89634015D01*
X136683217Y-89462047D01*
X136683576Y-89458860D01*
X136703616Y-89281003D01*
X136703616Y-89280996D01*
X136683218Y-89099958D01*
X136683217Y-89099953D01*
X136647897Y-88999015D01*
X136623043Y-88927985D01*
X136526111Y-88773719D01*
X136397281Y-88644889D01*
X136243014Y-88547956D01*
X136227046Y-88542369D01*
X136170270Y-88501647D01*
X136144522Y-88436695D01*
X136144000Y-88425327D01*
X136144000Y-88042950D01*
X136150293Y-88003949D01*
X136191887Y-87878426D01*
X136202500Y-87774545D01*
X136202499Y-86723456D01*
X136191887Y-86619574D01*
X136150294Y-86494051D01*
X136144000Y-86455048D01*
X136144000Y-86394753D01*
X136163685Y-86327714D01*
X136216489Y-86281959D01*
X136281884Y-86271533D01*
X136397997Y-86284616D01*
X136398000Y-86284616D01*
X136398004Y-86284616D01*
X136579041Y-86264218D01*
X136579044Y-86264217D01*
X136579047Y-86264217D01*
X136751015Y-86204043D01*
X136905281Y-86107111D01*
X136905286Y-86107105D01*
X136905977Y-86106555D01*
X136906515Y-86106335D01*
X136911177Y-86103406D01*
X136911690Y-86104222D01*
X136970663Y-86080145D01*
X136983293Y-86079500D01*
X137240109Y-86079500D01*
X137240110Y-86079500D01*
X137240111Y-86079500D01*
X137317491Y-86058766D01*
X137394873Y-86038032D01*
X137468345Y-85995613D01*
X137530345Y-85979000D01*
X138306000Y-85979000D01*
X138373039Y-85998685D01*
X138418794Y-86051489D01*
X138430000Y-86103000D01*
X138430000Y-92332000D01*
X138410315Y-92399039D01*
X138357511Y-92444794D01*
X138306000Y-92456000D01*
X125981000Y-92456000D01*
X125913961Y-92436315D01*
X125868206Y-92383511D01*
X125857000Y-92332000D01*
X125857000Y-86103000D01*
X125876685Y-86035961D01*
X125929489Y-85990206D01*
X125981000Y-85979000D01*
X129289000Y-85979000D01*
X129356039Y-85998685D01*
G37*
G04 #@! TD.AperFunction*
G04 #@! TA.AperFunction,Conductor*
G36*
X129866085Y-63214885D02*
G01*
X129911840Y-63267689D01*
X129921784Y-63336847D01*
X129892759Y-63400403D01*
X129886727Y-63406881D01*
X129792889Y-63500718D01*
X129695958Y-63654982D01*
X129635782Y-63826953D01*
X129635781Y-63826958D01*
X129615384Y-64007996D01*
X129615384Y-64008003D01*
X129635781Y-64189041D01*
X129635782Y-64189046D01*
X129636444Y-64190937D01*
X129695957Y-64361015D01*
X129792889Y-64515281D01*
X129921719Y-64644111D01*
X130075985Y-64741043D01*
X130247953Y-64801217D01*
X130247958Y-64801218D01*
X130428996Y-64821616D01*
X130429000Y-64821616D01*
X130429004Y-64821616D01*
X130610041Y-64801218D01*
X130610044Y-64801217D01*
X130610047Y-64801217D01*
X130782015Y-64741043D01*
X130790825Y-64735506D01*
X130856799Y-64716500D01*
X131354167Y-64716500D01*
X131421206Y-64736185D01*
X131441848Y-64752819D01*
X132932681Y-66243652D01*
X132966166Y-66304975D01*
X132969000Y-66331333D01*
X132969000Y-72594970D01*
X132949315Y-72662009D01*
X132938716Y-72676169D01*
X132937705Y-72677334D01*
X132937703Y-72677338D01*
X132876987Y-72810283D01*
X132857300Y-72877328D01*
X132836500Y-73022001D01*
X132836500Y-73911500D01*
X132816815Y-73978539D01*
X132764011Y-74024294D01*
X132712500Y-74035500D01*
X131696000Y-74035500D01*
X131695991Y-74035500D01*
X131695990Y-74035501D01*
X131586848Y-74047235D01*
X131586836Y-74047237D01*
X131535326Y-74058443D01*
X131431179Y-74093106D01*
X131431173Y-74093109D01*
X131308218Y-74172128D01*
X131308211Y-74172134D01*
X131255418Y-74217879D01*
X131255415Y-74217882D01*
X131159705Y-74328335D01*
X131159701Y-74328341D01*
X131098987Y-74461283D01*
X131098986Y-74461287D01*
X131079301Y-74528326D01*
X131079300Y-74528330D01*
X131058500Y-74673000D01*
X131058500Y-76203000D01*
X131058501Y-76203009D01*
X131070235Y-76312151D01*
X131070237Y-76312163D01*
X131081443Y-76363673D01*
X131116106Y-76467820D01*
X131116109Y-76467826D01*
X131195128Y-76590781D01*
X131195134Y-76590788D01*
X131240877Y-76643579D01*
X131240880Y-76643582D01*
X131240884Y-76643586D01*
X131320570Y-76712635D01*
X131358343Y-76771411D01*
X131358343Y-76841281D01*
X131339324Y-76878054D01*
X131339562Y-76878201D01*
X131337619Y-76881350D01*
X131336637Y-76883250D01*
X131335776Y-76884338D01*
X131242686Y-77035259D01*
X131242684Y-77035264D01*
X131186913Y-77203572D01*
X131176300Y-77307447D01*
X131176300Y-77933537D01*
X131176301Y-77933553D01*
X131180842Y-77978000D01*
X131186913Y-78037426D01*
X131242685Y-78205738D01*
X131335770Y-78356652D01*
X131461148Y-78482030D01*
X131612062Y-78575115D01*
X131780374Y-78630887D01*
X131884255Y-78641500D01*
X132424872Y-78641499D01*
X132491910Y-78661183D01*
X132537665Y-78713987D01*
X132547609Y-78783146D01*
X132529865Y-78831471D01*
X132489958Y-78894982D01*
X132429782Y-79066953D01*
X132429781Y-79066958D01*
X132409384Y-79247996D01*
X132409384Y-79248003D01*
X132429781Y-79429041D01*
X132429782Y-79429046D01*
X132466234Y-79533218D01*
X132489957Y-79601015D01*
X132586889Y-79755281D01*
X132715719Y-79884111D01*
X132869985Y-79981043D01*
X132885952Y-79986630D01*
X132942728Y-80027349D01*
X132968478Y-80092301D01*
X132969000Y-80103672D01*
X132969000Y-80978200D01*
X132949315Y-81045239D01*
X132896511Y-81090994D01*
X132845000Y-81102200D01*
X129032000Y-81102200D01*
X129032000Y-82865314D01*
X129025931Y-82903633D01*
X128978574Y-83049381D01*
X128942600Y-83276511D01*
X128942600Y-83601488D01*
X128978573Y-83828618D01*
X129008104Y-83919504D01*
X129025931Y-83974368D01*
X129032000Y-84012684D01*
X129032000Y-84911807D01*
X129031999Y-84912406D01*
X129029923Y-85342099D01*
X129009914Y-85409043D01*
X128956890Y-85454542D01*
X128905924Y-85465500D01*
X125981000Y-85465500D01*
X125980991Y-85465500D01*
X125980990Y-85465501D01*
X125871848Y-85477235D01*
X125871836Y-85477237D01*
X125820326Y-85488443D01*
X125716179Y-85523106D01*
X125716173Y-85523109D01*
X125593218Y-85602128D01*
X125593211Y-85602134D01*
X125540418Y-85647879D01*
X125540415Y-85647882D01*
X125444705Y-85758335D01*
X125444701Y-85758341D01*
X125383987Y-85891283D01*
X125383986Y-85891287D01*
X125364301Y-85958326D01*
X125364300Y-85958330D01*
X125343500Y-86103000D01*
X125343500Y-92332000D01*
X125343501Y-92332009D01*
X125355235Y-92441151D01*
X125355237Y-92441163D01*
X125366443Y-92492673D01*
X125401106Y-92596820D01*
X125401109Y-92596826D01*
X125480128Y-92719781D01*
X125480134Y-92719788D01*
X125525879Y-92772581D01*
X125525882Y-92772584D01*
X125636335Y-92868294D01*
X125636337Y-92868295D01*
X125636339Y-92868297D01*
X125769287Y-92929014D01*
X125836326Y-92948699D01*
X125836330Y-92948700D01*
X125981000Y-92969500D01*
X125981003Y-92969500D01*
X137516569Y-92969500D01*
X137583608Y-92989185D01*
X137629363Y-93041989D01*
X137640564Y-93094478D01*
X137618831Y-95843837D01*
X137592772Y-99140180D01*
X137572558Y-99207062D01*
X137519394Y-99252398D01*
X137468776Y-99263200D01*
X122424300Y-99263200D01*
X122357261Y-99243515D01*
X122311506Y-99190711D01*
X122300300Y-99139200D01*
X122300300Y-96427700D01*
X122319985Y-96360661D01*
X122372789Y-96314906D01*
X122424300Y-96303700D01*
X123326638Y-96303700D01*
X123326654Y-96303699D01*
X123353692Y-96300791D01*
X123387201Y-96297189D01*
X123524204Y-96246089D01*
X123641261Y-96158461D01*
X123728889Y-96041404D01*
X123779989Y-95904401D01*
X123783591Y-95870892D01*
X123786499Y-95843854D01*
X123786500Y-95843837D01*
X123786500Y-94046562D01*
X123786499Y-94046545D01*
X123783157Y-94015470D01*
X123779989Y-93985999D01*
X123728889Y-93848996D01*
X123641261Y-93731939D01*
X123524204Y-93644311D01*
X123387203Y-93593211D01*
X123326654Y-93586700D01*
X123326638Y-93586700D01*
X122171000Y-93586700D01*
X122103961Y-93567015D01*
X122058206Y-93514211D01*
X122047000Y-93462700D01*
X122047000Y-79945732D01*
X122066685Y-79878693D01*
X122083319Y-79858051D01*
X122531825Y-79409545D01*
X122531824Y-79409545D01*
X122531828Y-79409542D01*
X122609365Y-79293500D01*
X122662773Y-79164561D01*
X122690000Y-79027681D01*
X122690000Y-78888118D01*
X122690000Y-78430133D01*
X122709685Y-78363094D01*
X122748901Y-78324595D01*
X122767652Y-78313030D01*
X122893030Y-78187652D01*
X122986115Y-78036738D01*
X123041887Y-77868426D01*
X123052500Y-77764545D01*
X123052499Y-76413456D01*
X123041887Y-76309574D01*
X122986115Y-76141262D01*
X122893030Y-75990348D01*
X122767652Y-75864970D01*
X122616738Y-75771885D01*
X122544252Y-75747866D01*
X122448427Y-75716113D01*
X122344552Y-75705500D01*
X122290903Y-75705500D01*
X122223864Y-75685815D01*
X122178109Y-75633011D01*
X122166967Y-75577532D01*
X122183559Y-75059346D01*
X122213801Y-74114874D01*
X122232199Y-74053747D01*
X122246515Y-74030538D01*
X122302287Y-73862226D01*
X122312900Y-73758345D01*
X122312899Y-73032256D01*
X122302287Y-72928374D01*
X122263175Y-72810339D01*
X122256947Y-72767383D01*
X122373342Y-69132272D01*
X122395162Y-69065898D01*
X122449403Y-69021857D01*
X122497733Y-69012243D01*
X124470606Y-69019496D01*
X124537568Y-69039426D01*
X124583129Y-69092398D01*
X124584707Y-69096040D01*
X124594135Y-69118800D01*
X124594138Y-69118807D01*
X124671671Y-69234842D01*
X124671674Y-69234846D01*
X125367648Y-69930819D01*
X125401133Y-69992142D01*
X125396149Y-70061833D01*
X125354278Y-70117767D01*
X125288813Y-70142184D01*
X125279967Y-70142500D01*
X124704345Y-70142500D01*
X124643797Y-70149011D01*
X124643795Y-70149011D01*
X124506795Y-70200111D01*
X124389739Y-70287739D01*
X124302111Y-70404795D01*
X124251011Y-70541795D01*
X124251011Y-70541797D01*
X124244500Y-70602345D01*
X124244500Y-71919644D01*
X124235061Y-71967098D01*
X124225227Y-71990838D01*
X124225225Y-71990844D01*
X124198000Y-72127714D01*
X124198000Y-75747866D01*
X124178315Y-75814905D01*
X124139100Y-75853403D01*
X124120347Y-75864970D01*
X123994971Y-75990346D01*
X123901886Y-76141259D01*
X123901884Y-76141264D01*
X123846113Y-76309572D01*
X123835500Y-76413447D01*
X123835500Y-77764537D01*
X123835501Y-77764553D01*
X123846113Y-77868427D01*
X123901884Y-78036735D01*
X123901885Y-78036738D01*
X123994970Y-78187652D01*
X124120348Y-78313030D01*
X124200597Y-78362528D01*
X124247321Y-78414475D01*
X124259500Y-78468066D01*
X124259500Y-81851811D01*
X124239815Y-81918850D01*
X124187011Y-81964605D01*
X124178835Y-81967992D01*
X124124898Y-81988110D01*
X124124895Y-81988111D01*
X124007839Y-82075739D01*
X123920211Y-82192795D01*
X123869111Y-82329795D01*
X123869111Y-82329797D01*
X123862600Y-82390345D01*
X123862600Y-84487654D01*
X123869111Y-84548202D01*
X123869111Y-84548204D01*
X123920211Y-84685204D01*
X124007839Y-84802261D01*
X124124896Y-84889889D01*
X124261899Y-84940989D01*
X124289150Y-84943918D01*
X124322445Y-84947499D01*
X124322462Y-84947500D01*
X126324738Y-84947500D01*
X126324754Y-84947499D01*
X126351792Y-84944591D01*
X126385301Y-84940989D01*
X126522304Y-84889889D01*
X126639361Y-84802261D01*
X126726989Y-84685204D01*
X126778089Y-84548201D01*
X126781691Y-84514692D01*
X126784599Y-84487654D01*
X126784600Y-84487637D01*
X126784600Y-82390362D01*
X126784599Y-82390345D01*
X126781257Y-82359270D01*
X126778089Y-82329799D01*
X126726989Y-82192796D01*
X126639361Y-82075739D01*
X126522304Y-81988111D01*
X126520068Y-81987277D01*
X126385303Y-81937011D01*
X126324754Y-81930500D01*
X126324738Y-81930500D01*
X125800500Y-81930500D01*
X125733461Y-81910815D01*
X125687706Y-81858011D01*
X125676500Y-81806500D01*
X125676500Y-78380544D01*
X125696185Y-78313505D01*
X125712819Y-78292863D01*
X125818030Y-78187652D01*
X125911115Y-78036738D01*
X125966887Y-77868426D01*
X125977500Y-77764545D01*
X125977499Y-76413456D01*
X125966887Y-76309574D01*
X125911115Y-76141262D01*
X125818030Y-75990348D01*
X125692652Y-75864970D01*
X125673900Y-75853403D01*
X125627177Y-75801453D01*
X125615000Y-75747866D01*
X125615000Y-75482447D01*
X127442500Y-75482447D01*
X127442500Y-76108537D01*
X127442501Y-76108553D01*
X127453113Y-76212427D01*
X127508884Y-76380735D01*
X127508886Y-76380740D01*
X127601971Y-76531653D01*
X127690637Y-76620319D01*
X127724122Y-76681642D01*
X127719138Y-76751334D01*
X127690637Y-76795681D01*
X127601971Y-76884346D01*
X127508886Y-77035259D01*
X127508884Y-77035264D01*
X127453113Y-77203572D01*
X127442500Y-77307447D01*
X127442500Y-77933537D01*
X127442501Y-77933553D01*
X127447042Y-77978000D01*
X127453113Y-78037426D01*
X127508885Y-78205738D01*
X127582196Y-78324594D01*
X127601971Y-78356653D01*
X127727348Y-78482030D01*
X127790482Y-78520971D01*
X127837207Y-78572919D01*
X127848606Y-78640393D01*
X127837384Y-78739995D01*
X127837384Y-78740003D01*
X127857781Y-78921041D01*
X127857782Y-78921046D01*
X127891748Y-79018115D01*
X127917957Y-79093015D01*
X128014889Y-79247281D01*
X128143719Y-79376111D01*
X128297985Y-79473043D01*
X128469953Y-79533217D01*
X128469958Y-79533218D01*
X128650996Y-79553616D01*
X128651000Y-79553616D01*
X128651004Y-79553616D01*
X128832041Y-79533218D01*
X128832044Y-79533217D01*
X128832047Y-79533217D01*
X129004015Y-79473043D01*
X129158281Y-79376111D01*
X129287111Y-79247281D01*
X129384043Y-79093015D01*
X129444217Y-78921047D01*
X129444218Y-78921041D01*
X129464616Y-78740003D01*
X129464616Y-78739999D01*
X129461353Y-78711043D01*
X129453392Y-78640392D01*
X129465446Y-78571573D01*
X129511516Y-78520971D01*
X129574652Y-78482030D01*
X129700030Y-78356652D01*
X129793115Y-78205738D01*
X129848887Y-78037426D01*
X129859500Y-77933545D01*
X129859499Y-77307456D01*
X129848887Y-77203574D01*
X129793115Y-77035262D01*
X129700030Y-76884348D01*
X129611363Y-76795681D01*
X129577878Y-76734358D01*
X129582862Y-76664666D01*
X129611363Y-76620319D01*
X129640901Y-76590781D01*
X129700030Y-76531652D01*
X129793115Y-76380738D01*
X129848887Y-76212426D01*
X129859500Y-76108545D01*
X129859499Y-75482456D01*
X129848887Y-75378574D01*
X129793115Y-75210262D01*
X129700030Y-75059348D01*
X129574652Y-74933970D01*
X129493564Y-74883954D01*
X129446841Y-74832008D01*
X129435620Y-74763045D01*
X129441622Y-74737462D01*
X129444217Y-74730047D01*
X129464616Y-74549000D01*
X129462287Y-74528330D01*
X129444218Y-74367958D01*
X129444217Y-74367953D01*
X129430356Y-74328341D01*
X129384043Y-74195985D01*
X129287111Y-74041719D01*
X129158281Y-73912889D01*
X129004015Y-73815957D01*
X128949693Y-73796949D01*
X128832046Y-73755782D01*
X128832041Y-73755781D01*
X128651004Y-73735384D01*
X128650996Y-73735384D01*
X128469958Y-73755781D01*
X128469953Y-73755782D01*
X128297982Y-73815958D01*
X128143718Y-73912889D01*
X128014889Y-74041718D01*
X127917958Y-74195982D01*
X127857782Y-74367953D01*
X127857781Y-74367958D01*
X127837384Y-74548996D01*
X127837384Y-74549003D01*
X127857782Y-74730045D01*
X127857782Y-74730048D01*
X127860377Y-74737462D01*
X127863939Y-74807241D01*
X127829211Y-74867868D01*
X127808434Y-74883955D01*
X127727348Y-74933969D01*
X127601971Y-75059346D01*
X127508886Y-75210259D01*
X127508884Y-75210264D01*
X127453113Y-75378572D01*
X127442500Y-75482447D01*
X125615000Y-75482447D01*
X125615000Y-72983500D01*
X125634685Y-72916461D01*
X125687489Y-72870706D01*
X125739000Y-72859500D01*
X126501638Y-72859500D01*
X126501654Y-72859499D01*
X126528692Y-72856591D01*
X126562201Y-72852989D01*
X126699204Y-72801889D01*
X126816261Y-72714261D01*
X126903889Y-72597204D01*
X126954989Y-72460201D01*
X126959343Y-72419701D01*
X126961499Y-72399654D01*
X126961500Y-72399637D01*
X126961500Y-70808033D01*
X126981185Y-70740994D01*
X127033989Y-70695239D01*
X127103147Y-70685295D01*
X127166703Y-70714320D01*
X127173181Y-70720352D01*
X128504154Y-72051325D01*
X128504158Y-72051328D01*
X128620200Y-72128865D01*
X128695730Y-72160150D01*
X128749138Y-72182273D01*
X128886014Y-72209499D01*
X128886018Y-72209500D01*
X128886019Y-72209500D01*
X129025582Y-72209500D01*
X129454500Y-72209500D01*
X129521539Y-72229185D01*
X129567294Y-72281989D01*
X129578500Y-72333500D01*
X129578500Y-72399654D01*
X129585011Y-72460202D01*
X129585011Y-72460204D01*
X129635278Y-72594970D01*
X129636111Y-72597204D01*
X129723739Y-72714261D01*
X129840796Y-72801889D01*
X129977799Y-72852989D01*
X130005050Y-72855918D01*
X130038345Y-72859499D01*
X130038362Y-72859500D01*
X131835638Y-72859500D01*
X131835654Y-72859499D01*
X131862692Y-72856591D01*
X131896201Y-72852989D01*
X132033204Y-72801889D01*
X132150261Y-72714261D01*
X132237889Y-72597204D01*
X132288989Y-72460201D01*
X132293343Y-72419701D01*
X132295499Y-72399654D01*
X132295500Y-72399637D01*
X132295500Y-70602362D01*
X132295499Y-70602345D01*
X132292157Y-70571270D01*
X132288989Y-70541799D01*
X132237889Y-70404796D01*
X132150261Y-70287739D01*
X132033204Y-70200111D01*
X131896203Y-70149011D01*
X131835654Y-70142500D01*
X131835638Y-70142500D01*
X130038362Y-70142500D01*
X130038345Y-70142500D01*
X129977797Y-70149011D01*
X129977795Y-70149011D01*
X129840795Y-70200111D01*
X129723739Y-70287739D01*
X129636111Y-70404795D01*
X129585011Y-70541795D01*
X129585011Y-70541797D01*
X129578500Y-70602345D01*
X129578500Y-70668500D01*
X129558815Y-70735539D01*
X129506011Y-70781294D01*
X129454500Y-70792500D01*
X129300632Y-70792500D01*
X129233593Y-70772815D01*
X129212951Y-70756181D01*
X127807246Y-69350474D01*
X127807242Y-69350471D01*
X127691204Y-69272936D01*
X127691200Y-69272934D01*
X127684223Y-69270044D01*
X127629821Y-69226202D01*
X127607759Y-69159907D01*
X127625040Y-69092208D01*
X127676179Y-69044599D01*
X127732130Y-69031487D01*
X129286000Y-69037200D01*
X129286000Y-69037199D01*
X129286000Y-63319200D01*
X129305685Y-63252161D01*
X129358489Y-63206406D01*
X129410000Y-63195200D01*
X129799046Y-63195200D01*
X129866085Y-63214885D01*
G37*
G04 #@! TD.AperFunction*
G04 #@! TA.AperFunction,Conductor*
G36*
X64935931Y-121157485D02*
G01*
X64959975Y-121179458D01*
X64960804Y-121178695D01*
X65058063Y-121284345D01*
X65116760Y-121348106D01*
X65294424Y-121486389D01*
X65294425Y-121486389D01*
X65294427Y-121486391D01*
X65392934Y-121539700D01*
X65492426Y-121593542D01*
X65705365Y-121666644D01*
X65927431Y-121703700D01*
X66152569Y-121703700D01*
X66374635Y-121666644D01*
X66470221Y-121633829D01*
X66530237Y-121613226D01*
X66600036Y-121610076D01*
X66660457Y-121645162D01*
X66692318Y-121707345D01*
X66694500Y-121730507D01*
X66694500Y-124317985D01*
X66721725Y-124454854D01*
X66721727Y-124454862D01*
X66732421Y-124480679D01*
X66732422Y-124480681D01*
X66732421Y-124480681D01*
X66775135Y-124583801D01*
X66775136Y-124583804D01*
X66852671Y-124699842D01*
X66852674Y-124699846D01*
X67185181Y-125032352D01*
X67218666Y-125093675D01*
X67221500Y-125120033D01*
X67221500Y-126323854D01*
X67228011Y-126384402D01*
X67228011Y-126384404D01*
X67279111Y-126521406D01*
X67279112Y-126521407D01*
X67310666Y-126563557D01*
X67335084Y-126629021D01*
X67335400Y-126637868D01*
X67335400Y-128545700D01*
X67315715Y-128612739D01*
X67262911Y-128658494D01*
X67211400Y-128669700D01*
X67182070Y-128669700D01*
X67132224Y-128677595D01*
X66929359Y-128709726D01*
X66686027Y-128788788D01*
X66686024Y-128788789D01*
X66458049Y-128904950D01*
X66251064Y-129055332D01*
X66251059Y-129055336D01*
X66070136Y-129236259D01*
X66070132Y-129236264D01*
X65919750Y-129443249D01*
X65803589Y-129671224D01*
X65803588Y-129671227D01*
X65724526Y-129914559D01*
X65684500Y-130167270D01*
X65684500Y-130423129D01*
X65724526Y-130675840D01*
X65803588Y-130919172D01*
X65803589Y-130919175D01*
X65882533Y-131074110D01*
X65909181Y-131126409D01*
X65919750Y-131147150D01*
X66070132Y-131354135D01*
X66070136Y-131354140D01*
X66251059Y-131535063D01*
X66251064Y-131535067D01*
X66420045Y-131657838D01*
X66458053Y-131685452D01*
X66607080Y-131761385D01*
X66686024Y-131801610D01*
X66686027Y-131801611D01*
X66807693Y-131841142D01*
X66929361Y-131880674D01*
X67182070Y-131920700D01*
X67182071Y-131920700D01*
X67211400Y-131920700D01*
X67278439Y-131940385D01*
X67324194Y-131993189D01*
X67335400Y-132044700D01*
X67335400Y-133228200D01*
X88367404Y-133228200D01*
X88434443Y-133247885D01*
X88455085Y-133264519D01*
X89671247Y-134480681D01*
X89811719Y-134621153D01*
X89811720Y-134621154D01*
X89976889Y-134731517D01*
X89976895Y-134731520D01*
X89976896Y-134731521D01*
X90160431Y-134807544D01*
X90355266Y-134846299D01*
X90355270Y-134846300D01*
X95151400Y-134846300D01*
X95218439Y-134865985D01*
X95264194Y-134918789D01*
X95275400Y-134970300D01*
X95275400Y-136152200D01*
X95255715Y-136219239D01*
X95202911Y-136264994D01*
X95151400Y-136276200D01*
X63903400Y-136276200D01*
X63836361Y-136256515D01*
X63790606Y-136203711D01*
X63779400Y-136152200D01*
X63779400Y-128794637D01*
X63799085Y-128727598D01*
X63851889Y-128681843D01*
X63921047Y-128671899D01*
X63944355Y-128677595D01*
X64030153Y-128707617D01*
X64030158Y-128707618D01*
X64211196Y-128728016D01*
X64211200Y-128728016D01*
X64211204Y-128728016D01*
X64392241Y-128707618D01*
X64392244Y-128707617D01*
X64392247Y-128707617D01*
X64564215Y-128647443D01*
X64718481Y-128550511D01*
X64847311Y-128421681D01*
X64944243Y-128267415D01*
X65004417Y-128095447D01*
X65024816Y-127914400D01*
X65023637Y-127903938D01*
X65004418Y-127733358D01*
X65004417Y-127733353D01*
X65004372Y-127733223D01*
X64944243Y-127561385D01*
X64847311Y-127407119D01*
X64718481Y-127278289D01*
X64718479Y-127278287D01*
X64623727Y-127218750D01*
X64577437Y-127166415D01*
X64565700Y-127113757D01*
X64565700Y-121261800D01*
X64585385Y-121194761D01*
X64638189Y-121149006D01*
X64689700Y-121137800D01*
X64868892Y-121137800D01*
X64935931Y-121157485D01*
G37*
G04 #@! TD.AperFunction*
G04 #@! TA.AperFunction,Conductor*
G36*
X111258039Y-65856485D02*
G01*
X111303794Y-65909289D01*
X111315000Y-65960800D01*
X111315000Y-67647454D01*
X111321511Y-67708002D01*
X111321511Y-67708004D01*
X111371739Y-67842665D01*
X111372611Y-67845004D01*
X111460239Y-67962061D01*
X111577296Y-68049689D01*
X111696735Y-68094238D01*
X111752668Y-68136109D01*
X111777084Y-68201574D01*
X111777400Y-68210419D01*
X111777400Y-69782665D01*
X111757715Y-69849704D01*
X111718498Y-69888203D01*
X111623548Y-69946769D01*
X111498171Y-70072146D01*
X111405086Y-70223059D01*
X111405084Y-70223064D01*
X111349313Y-70391372D01*
X111338700Y-70495247D01*
X111338700Y-71846337D01*
X111338701Y-71846353D01*
X111349313Y-71950226D01*
X111405085Y-72118538D01*
X111498170Y-72269452D01*
X111623548Y-72394830D01*
X111652997Y-72412994D01*
X111699721Y-72464939D01*
X111711900Y-72518532D01*
X111711900Y-73650566D01*
X111692215Y-73717605D01*
X111675581Y-73738247D01*
X110862647Y-74551181D01*
X110801324Y-74584666D01*
X110774966Y-74587500D01*
X110505745Y-74587500D01*
X110445197Y-74594011D01*
X110445195Y-74594011D01*
X110308195Y-74645111D01*
X110191139Y-74732739D01*
X110103511Y-74849795D01*
X110052411Y-74986795D01*
X110052411Y-74986797D01*
X110045900Y-75047345D01*
X110045900Y-76844654D01*
X110052411Y-76905202D01*
X110052411Y-76905204D01*
X110065449Y-76940158D01*
X110103511Y-77042204D01*
X110191139Y-77159261D01*
X110308196Y-77246889D01*
X110445199Y-77297989D01*
X110472450Y-77300918D01*
X110505745Y-77304499D01*
X110505762Y-77304500D01*
X112303038Y-77304500D01*
X112303054Y-77304499D01*
X112330092Y-77301591D01*
X112363601Y-77297989D01*
X112500604Y-77246889D01*
X112617661Y-77159261D01*
X112705289Y-77042204D01*
X112756389Y-76905201D01*
X112759991Y-76871692D01*
X112762899Y-76844654D01*
X112762900Y-76844637D01*
X112762900Y-75047362D01*
X112762899Y-75047345D01*
X112758961Y-75010727D01*
X112756389Y-74986799D01*
X112705289Y-74849796D01*
X112705286Y-74849792D01*
X112701276Y-74842448D01*
X112686425Y-74774175D01*
X112710842Y-74708711D01*
X112722413Y-74695356D01*
X112970728Y-74447043D01*
X113048265Y-74331001D01*
X113101673Y-74202061D01*
X113105773Y-74181452D01*
X113107761Y-74171461D01*
X113128899Y-74065185D01*
X113128900Y-74065182D01*
X113128900Y-72505333D01*
X113148585Y-72438294D01*
X113187804Y-72399794D01*
X113195852Y-72394830D01*
X113321230Y-72269452D01*
X113384257Y-72167270D01*
X114684500Y-72167270D01*
X114684500Y-72423130D01*
X114686902Y-72438294D01*
X114724526Y-72675840D01*
X114803588Y-72919172D01*
X114803589Y-72919175D01*
X114919750Y-73147150D01*
X115070132Y-73354135D01*
X115070136Y-73354140D01*
X115251059Y-73535063D01*
X115251064Y-73535067D01*
X115410036Y-73650566D01*
X115458053Y-73685452D01*
X115561669Y-73738247D01*
X115686024Y-73801610D01*
X115686027Y-73801611D01*
X115733169Y-73816928D01*
X115929361Y-73880674D01*
X116182070Y-73920700D01*
X116182071Y-73920700D01*
X116437929Y-73920700D01*
X116437930Y-73920700D01*
X116690639Y-73880674D01*
X116933975Y-73801610D01*
X117161947Y-73685452D01*
X117368942Y-73535062D01*
X117549862Y-73354142D01*
X117700252Y-73147147D01*
X117816410Y-72919175D01*
X117895474Y-72675839D01*
X117935500Y-72423130D01*
X117935500Y-72167270D01*
X117895474Y-71914561D01*
X117820919Y-71685102D01*
X117816411Y-71671227D01*
X117816410Y-71671224D01*
X117776185Y-71592280D01*
X117700252Y-71443253D01*
X117616450Y-71327909D01*
X117549867Y-71236264D01*
X117549863Y-71236259D01*
X117368940Y-71055336D01*
X117368935Y-71055332D01*
X117161950Y-70904950D01*
X117161949Y-70904949D01*
X117161947Y-70904948D01*
X117088910Y-70867733D01*
X116933975Y-70788789D01*
X116933972Y-70788788D01*
X116690640Y-70709726D01*
X116564284Y-70689713D01*
X116437930Y-70669700D01*
X116182070Y-70669700D01*
X116097833Y-70683042D01*
X115929359Y-70709726D01*
X115686027Y-70788788D01*
X115686024Y-70788789D01*
X115458049Y-70904950D01*
X115251064Y-71055332D01*
X115251059Y-71055336D01*
X115070136Y-71236259D01*
X115070132Y-71236264D01*
X114919750Y-71443249D01*
X114803589Y-71671224D01*
X114803588Y-71671227D01*
X114724526Y-71914559D01*
X114692218Y-72118540D01*
X114684500Y-72167270D01*
X113384257Y-72167270D01*
X113414315Y-72118538D01*
X113470087Y-71950226D01*
X113480700Y-71846345D01*
X113480699Y-70495256D01*
X113470087Y-70391374D01*
X113414315Y-70223062D01*
X113321230Y-70072148D01*
X113230718Y-69981636D01*
X113197234Y-69920312D01*
X113194400Y-69893955D01*
X113194400Y-68231300D01*
X113214085Y-68164261D01*
X113266889Y-68118506D01*
X113318400Y-68107300D01*
X113591800Y-68107300D01*
X113658839Y-68126985D01*
X113704594Y-68179789D01*
X113715800Y-68231300D01*
X113715800Y-68503800D01*
X116763800Y-68503800D01*
X116763800Y-66854383D01*
X116765327Y-66834984D01*
X116777000Y-66761287D01*
X116777000Y-66436312D01*
X116765327Y-66362614D01*
X116763800Y-66343216D01*
X116763800Y-65960800D01*
X116783485Y-65893761D01*
X116836289Y-65848006D01*
X116887800Y-65836800D01*
X119104568Y-65836800D01*
X119171607Y-65856485D01*
X119217362Y-65909289D01*
X119228564Y-65959828D01*
X119242794Y-67775473D01*
X119223636Y-67842665D01*
X119206480Y-67864125D01*
X119124891Y-67945714D01*
X119124891Y-67945715D01*
X119027958Y-68099982D01*
X118967782Y-68271953D01*
X118967781Y-68271958D01*
X118947384Y-68452996D01*
X118947384Y-68453003D01*
X118967781Y-68634041D01*
X118967782Y-68634046D01*
X119027958Y-68806017D01*
X119124889Y-68960281D01*
X119217388Y-69052780D01*
X119250873Y-69114103D01*
X119253703Y-69139468D01*
X119353599Y-81612207D01*
X119334452Y-81679402D01*
X119282016Y-81725578D01*
X119229603Y-81737200D01*
X116941600Y-81737200D01*
X116941600Y-82473771D01*
X116921915Y-82540810D01*
X116917918Y-82546656D01*
X116860447Y-82625758D01*
X116860441Y-82625767D01*
X116756039Y-82830666D01*
X116684973Y-83049381D01*
X116649000Y-83276511D01*
X116649000Y-83601488D01*
X116684973Y-83828618D01*
X116756039Y-84047333D01*
X116860442Y-84252235D01*
X116917917Y-84331341D01*
X116941398Y-84397147D01*
X116941600Y-84404227D01*
X116941600Y-85166200D01*
X120627600Y-85166200D01*
X120694639Y-85185885D01*
X120740394Y-85238689D01*
X120751600Y-85290200D01*
X120751600Y-99138111D01*
X120731915Y-99205150D01*
X120679111Y-99250905D01*
X120626516Y-99262106D01*
X106346029Y-99137277D01*
X106279164Y-99117007D01*
X106233873Y-99063806D01*
X106223113Y-99012970D01*
X106239908Y-92421100D01*
X106259764Y-92354113D01*
X106312684Y-92308493D01*
X106381868Y-92298726D01*
X106388084Y-92299798D01*
X106521317Y-92326299D01*
X106521318Y-92326300D01*
X106521319Y-92326300D01*
X111996882Y-92326300D01*
X112065321Y-92312686D01*
X112065322Y-92312686D01*
X112086402Y-92308493D01*
X112133762Y-92299073D01*
X112171527Y-92283430D01*
X112262701Y-92245665D01*
X112378743Y-92168128D01*
X112823052Y-91723817D01*
X112884375Y-91690333D01*
X112910733Y-91687499D01*
X113603937Y-91687499D01*
X113603944Y-91687499D01*
X113707826Y-91676887D01*
X113876138Y-91621115D01*
X114027052Y-91528030D01*
X114152430Y-91402652D01*
X114245515Y-91251738D01*
X114301287Y-91083426D01*
X114311900Y-90979545D01*
X114311899Y-90253456D01*
X114301287Y-90149574D01*
X114245515Y-89981262D01*
X114152430Y-89830348D01*
X114027052Y-89704970D01*
X113876138Y-89611885D01*
X113876135Y-89611884D01*
X113707827Y-89556113D01*
X113603945Y-89545500D01*
X112252862Y-89545500D01*
X112252846Y-89545501D01*
X112148972Y-89556113D01*
X111980664Y-89611884D01*
X111980659Y-89611886D01*
X111829746Y-89704971D01*
X111704371Y-89830346D01*
X111611286Y-89981259D01*
X111611284Y-89981264D01*
X111555513Y-90149572D01*
X111544900Y-90253447D01*
X111544900Y-90253455D01*
X111544900Y-90570215D01*
X111544901Y-90785300D01*
X111525217Y-90852339D01*
X111472413Y-90898094D01*
X111420901Y-90909300D01*
X109544429Y-90909300D01*
X109477390Y-90889615D01*
X109431635Y-90836811D01*
X109421691Y-90767653D01*
X109445161Y-90710990D01*
X109504889Y-90631204D01*
X109555989Y-90494201D01*
X109559591Y-90460692D01*
X109562499Y-90433654D01*
X109562500Y-90433637D01*
X109562500Y-88636362D01*
X109562499Y-88636345D01*
X109559157Y-88605270D01*
X109555989Y-88575799D01*
X109504889Y-88438796D01*
X109417261Y-88321739D01*
X109300204Y-88234111D01*
X109163203Y-88183011D01*
X109102654Y-88176500D01*
X109102638Y-88176500D01*
X108884100Y-88176500D01*
X108817061Y-88156815D01*
X108771306Y-88104011D01*
X108760100Y-88052500D01*
X108760100Y-84662132D01*
X108779785Y-84595093D01*
X108796419Y-84574451D01*
X109893051Y-83477819D01*
X109954374Y-83444334D01*
X109980732Y-83441500D01*
X111445000Y-83441500D01*
X111512039Y-83461185D01*
X111557794Y-83513989D01*
X111569000Y-83565500D01*
X111569000Y-84487654D01*
X111575511Y-84548202D01*
X111575511Y-84548204D01*
X111619245Y-84665455D01*
X111626611Y-84685204D01*
X111714239Y-84802261D01*
X111831296Y-84889889D01*
X111968299Y-84940989D01*
X111995550Y-84943918D01*
X112028845Y-84947499D01*
X112028862Y-84947500D01*
X112197500Y-84947500D01*
X112264539Y-84967185D01*
X112310294Y-85019989D01*
X112321500Y-85071500D01*
X112321500Y-86501510D01*
X112301815Y-86568549D01*
X112249011Y-86614304D01*
X112210102Y-86624868D01*
X112148972Y-86631113D01*
X111980664Y-86686884D01*
X111980659Y-86686886D01*
X111829746Y-86779971D01*
X111704371Y-86905346D01*
X111611286Y-87056259D01*
X111611284Y-87056264D01*
X111555513Y-87224572D01*
X111544900Y-87328447D01*
X111544900Y-88054537D01*
X111544901Y-88054553D01*
X111555513Y-88158427D01*
X111580592Y-88234111D01*
X111611285Y-88326738D01*
X111704370Y-88477652D01*
X111829748Y-88603030D01*
X111980662Y-88696115D01*
X112148974Y-88751887D01*
X112252855Y-88762500D01*
X113603944Y-88762499D01*
X113707826Y-88751887D01*
X113876138Y-88696115D01*
X114027052Y-88603030D01*
X114152430Y-88477652D01*
X114245515Y-88326738D01*
X114301287Y-88158426D01*
X114311900Y-88054545D01*
X114311899Y-87328456D01*
X114301287Y-87224574D01*
X114245515Y-87056262D01*
X114152430Y-86905348D01*
X114027052Y-86779970D01*
X113876138Y-86686885D01*
X113823495Y-86669441D01*
X113766050Y-86629668D01*
X113739228Y-86565151D01*
X113738500Y-86551735D01*
X113738500Y-85071500D01*
X113758185Y-85004461D01*
X113810989Y-84958706D01*
X113862500Y-84947500D01*
X114031138Y-84947500D01*
X114031154Y-84947499D01*
X114058192Y-84944591D01*
X114091701Y-84940989D01*
X114228704Y-84889889D01*
X114345761Y-84802261D01*
X114433389Y-84685204D01*
X114484489Y-84548201D01*
X114488091Y-84514692D01*
X114490999Y-84487654D01*
X114491000Y-84487637D01*
X114491000Y-82390362D01*
X114490999Y-82390345D01*
X114487657Y-82359270D01*
X114484489Y-82329799D01*
X114433389Y-82192796D01*
X114345761Y-82075739D01*
X114228704Y-81988111D01*
X114170694Y-81966474D01*
X114091703Y-81937011D01*
X114031154Y-81930500D01*
X114031138Y-81930500D01*
X112028862Y-81930500D01*
X112028845Y-81930500D01*
X111968297Y-81937011D01*
X111968295Y-81937011D01*
X111831295Y-81988111D01*
X111815727Y-81999766D01*
X111750263Y-82024184D01*
X111741415Y-82024500D01*
X109566114Y-82024500D01*
X109429245Y-82051724D01*
X109429241Y-82051726D01*
X109429239Y-82051726D01*
X109429238Y-82051727D01*
X109375830Y-82073849D01*
X109358718Y-82080936D01*
X109300301Y-82105134D01*
X109300297Y-82105136D01*
X109184262Y-82182668D01*
X109184254Y-82182674D01*
X107501274Y-83865653D01*
X107501271Y-83865657D01*
X107423736Y-83981695D01*
X107423735Y-83981698D01*
X107370328Y-84110635D01*
X107370327Y-84110639D01*
X107344129Y-84242348D01*
X107344128Y-84242354D01*
X107343100Y-84247515D01*
X107343100Y-88061668D01*
X107323415Y-88128707D01*
X107270611Y-88174462D01*
X107247619Y-88182344D01*
X107244797Y-88183010D01*
X107107795Y-88234111D01*
X106990739Y-88321739D01*
X106903111Y-88438795D01*
X106852011Y-88575795D01*
X106852011Y-88575797D01*
X106845500Y-88636345D01*
X106845500Y-90433654D01*
X106852010Y-90494201D01*
X106880363Y-90570215D01*
X106885347Y-90639907D01*
X106851863Y-90701230D01*
X106790540Y-90734715D01*
X106720848Y-90729731D01*
X106676500Y-90701230D01*
X106281838Y-90306567D01*
X106248353Y-90245244D01*
X106245520Y-90218579D01*
X106268667Y-81133165D01*
X106288522Y-81066182D01*
X106304976Y-81045815D01*
X106401711Y-80949081D01*
X106498643Y-80794815D01*
X106558817Y-80622847D01*
X106579216Y-80441800D01*
X106558817Y-80260753D01*
X106498643Y-80088785D01*
X106401711Y-79934519D01*
X106393418Y-79926226D01*
X106359933Y-79864903D01*
X106364917Y-79795211D01*
X106406789Y-79739278D01*
X106467216Y-79715325D01*
X106505441Y-79711018D01*
X106505444Y-79711017D01*
X106505447Y-79711017D01*
X106677415Y-79650843D01*
X106831681Y-79553911D01*
X106960511Y-79425081D01*
X107057443Y-79270815D01*
X107117617Y-79098847D01*
X107117618Y-79098841D01*
X107138016Y-78917803D01*
X107138016Y-78917796D01*
X107117618Y-78736758D01*
X107117617Y-78736753D01*
X107057443Y-78564785D01*
X106960511Y-78410519D01*
X106907773Y-78357781D01*
X106874288Y-78296458D01*
X106879272Y-78226766D01*
X106905469Y-78186004D01*
X106905370Y-78185925D01*
X106906148Y-78184948D01*
X106907777Y-78182414D01*
X106909711Y-78180481D01*
X107006643Y-78026215D01*
X107066817Y-77854247D01*
X107087216Y-77673200D01*
X107076134Y-77574847D01*
X107066818Y-77492158D01*
X107066817Y-77492153D01*
X107057854Y-77466538D01*
X107006643Y-77320185D01*
X106909711Y-77165919D01*
X106780881Y-77037089D01*
X106665675Y-76964700D01*
X106626617Y-76940158D01*
X106626616Y-76940157D01*
X106626615Y-76940157D01*
X106526725Y-76905204D01*
X106454646Y-76879982D01*
X106454642Y-76879981D01*
X106383716Y-76871990D01*
X106319302Y-76844923D01*
X106279747Y-76787328D01*
X106273600Y-76748770D01*
X106273600Y-73202800D01*
X105526528Y-73202800D01*
X105487524Y-73196506D01*
X105487502Y-73196498D01*
X105487501Y-73196498D01*
X105324736Y-73142564D01*
X105224279Y-73132300D01*
X105224272Y-73132300D01*
X104376528Y-73132300D01*
X104376520Y-73132300D01*
X104276063Y-73142564D01*
X104200095Y-73167737D01*
X104113299Y-73196498D01*
X104113297Y-73196498D01*
X104113276Y-73196506D01*
X104074272Y-73202800D01*
X103804100Y-73202800D01*
X103737061Y-73183115D01*
X103691306Y-73130311D01*
X103680100Y-73078800D01*
X103680100Y-71623300D01*
X103699785Y-71556261D01*
X103752589Y-71510506D01*
X103804100Y-71499300D01*
X103820213Y-71499300D01*
X103887252Y-71518985D01*
X103907894Y-71535619D01*
X103967359Y-71595084D01*
X103967363Y-71595087D01*
X104113290Y-71685097D01*
X104113293Y-71685098D01*
X104113299Y-71685102D01*
X104276064Y-71739036D01*
X104376528Y-71749300D01*
X104376533Y-71749300D01*
X105224267Y-71749300D01*
X105224272Y-71749300D01*
X105324736Y-71739036D01*
X105487501Y-71685102D01*
X105633440Y-71595085D01*
X105754685Y-71473840D01*
X105844702Y-71327901D01*
X105898636Y-71165136D01*
X105908900Y-71064672D01*
X105908900Y-70516928D01*
X105898636Y-70416464D01*
X105844702Y-70253699D01*
X105844698Y-70253693D01*
X105844697Y-70253690D01*
X105754687Y-70107763D01*
X105754684Y-70107759D01*
X105633440Y-69986515D01*
X105633436Y-69986512D01*
X105487509Y-69896502D01*
X105487503Y-69896499D01*
X105487501Y-69896498D01*
X105324736Y-69842564D01*
X105224279Y-69832300D01*
X105224272Y-69832300D01*
X104376528Y-69832300D01*
X104376520Y-69832300D01*
X104276063Y-69842564D01*
X104113301Y-69896497D01*
X104113296Y-69896499D01*
X103981985Y-69977494D01*
X103914593Y-69995934D01*
X103847929Y-69975012D01*
X103829207Y-69959637D01*
X103800215Y-69930644D01*
X103766731Y-69869320D01*
X103764678Y-69829080D01*
X103785216Y-69646802D01*
X103785216Y-69646796D01*
X103764818Y-69465758D01*
X103764817Y-69465753D01*
X103754320Y-69435755D01*
X103704643Y-69293785D01*
X103607711Y-69139519D01*
X103592119Y-69123927D01*
X103558634Y-69062604D01*
X103555800Y-69036246D01*
X103555800Y-68244100D01*
X103575485Y-68177061D01*
X103628289Y-68131306D01*
X103679800Y-68120100D01*
X107300367Y-68120100D01*
X107367406Y-68139785D01*
X107388048Y-68156419D01*
X108739881Y-69508251D01*
X108773366Y-69569574D01*
X108776200Y-69595932D01*
X108776200Y-69829666D01*
X108756515Y-69896705D01*
X108717300Y-69935203D01*
X108698547Y-69946770D01*
X108573171Y-70072146D01*
X108480086Y-70223059D01*
X108480084Y-70223064D01*
X108424313Y-70391372D01*
X108413700Y-70495247D01*
X108413700Y-71846337D01*
X108413701Y-71846353D01*
X108424313Y-71950226D01*
X108480085Y-72118538D01*
X108573170Y-72269452D01*
X108698548Y-72394830D01*
X108849462Y-72487915D01*
X109017774Y-72543687D01*
X109121655Y-72554300D01*
X109847744Y-72554299D01*
X109951626Y-72543687D01*
X110119938Y-72487915D01*
X110270852Y-72394830D01*
X110396230Y-72269452D01*
X110489315Y-72118538D01*
X110545087Y-71950226D01*
X110555700Y-71846345D01*
X110555699Y-70495256D01*
X110545087Y-70391374D01*
X110489315Y-70223062D01*
X110396230Y-70072148D01*
X110270852Y-69946770D01*
X110269399Y-69945874D01*
X110252100Y-69935203D01*
X110205377Y-69883253D01*
X110193200Y-69829666D01*
X110193200Y-69181318D01*
X110193199Y-69181314D01*
X110165973Y-69044438D01*
X110131114Y-68960281D01*
X110112565Y-68915499D01*
X110035028Y-68799458D01*
X110035025Y-68799454D01*
X108096846Y-66861274D01*
X108096838Y-66861268D01*
X107980803Y-66783736D01*
X107980799Y-66783734D01*
X107926607Y-66761287D01*
X107889627Y-66745969D01*
X107889626Y-66745968D01*
X107851866Y-66730328D01*
X107851858Y-66730326D01*
X107756427Y-66711344D01*
X107728797Y-66705848D01*
X107714983Y-66703100D01*
X107714982Y-66703100D01*
X107714981Y-66703100D01*
X105954700Y-66703100D01*
X105887661Y-66683415D01*
X105841906Y-66630611D01*
X105830700Y-66579100D01*
X105830699Y-66110262D01*
X105830698Y-66110246D01*
X105824387Y-66048472D01*
X105820087Y-66006374D01*
X105817911Y-65999806D01*
X105815508Y-65929977D01*
X105851239Y-65869935D01*
X105913759Y-65838742D01*
X105935616Y-65836800D01*
X111191000Y-65836800D01*
X111258039Y-65856485D01*
G37*
G04 #@! TD.AperFunction*
G04 #@! TA.AperFunction,Conductor*
G36*
X116557778Y-121589800D02*
G01*
X116560600Y-121970800D01*
X122308292Y-122169854D01*
X122374610Y-122191847D01*
X122418510Y-122246203D01*
X122428000Y-122293780D01*
X122428000Y-126368000D01*
X122408315Y-126435039D01*
X122355511Y-126480794D01*
X122304000Y-126492000D01*
X110867359Y-126492000D01*
X110800320Y-126472315D01*
X110754565Y-126419511D01*
X110743361Y-126368642D01*
X110718600Y-121589800D01*
X106549675Y-121589800D01*
X106482636Y-121570115D01*
X106436881Y-121517311D01*
X106425675Y-121466126D01*
X106400600Y-111937800D01*
X106400600Y-104825800D01*
X110464600Y-104825800D01*
X114528600Y-104825800D01*
X116433600Y-104825800D01*
X116557778Y-121589800D01*
G37*
G04 #@! TD.AperFunction*
G04 #@! TA.AperFunction,Conductor*
G36*
X129254439Y-59608085D02*
G01*
X129300194Y-59660889D01*
X129311400Y-59712400D01*
X129311400Y-62594567D01*
X129291715Y-62661606D01*
X129238911Y-62707361D01*
X129226559Y-62712221D01*
X129145179Y-62739306D01*
X129145173Y-62739309D01*
X129022218Y-62818328D01*
X129022211Y-62818334D01*
X128969418Y-62864079D01*
X128969415Y-62864082D01*
X128873705Y-62974535D01*
X128873701Y-62974541D01*
X128812987Y-63107483D01*
X128793300Y-63174528D01*
X128772500Y-63319201D01*
X128772500Y-68397351D01*
X128752815Y-68464390D01*
X128700011Y-68510145D01*
X128648044Y-68521350D01*
X127734021Y-68517990D01*
X127734020Y-68517990D01*
X127734018Y-68517990D01*
X127700453Y-68521808D01*
X127614969Y-68531531D01*
X127614960Y-68531533D01*
X127559029Y-68544640D01*
X127559017Y-68544643D01*
X127446345Y-68585405D01*
X127326278Y-68668763D01*
X127293630Y-68699158D01*
X127231150Y-68730431D01*
X127209138Y-68732400D01*
X126514400Y-68732400D01*
X126447361Y-68712715D01*
X126401606Y-68659911D01*
X126390400Y-68608400D01*
X126390400Y-68134443D01*
X126410085Y-68067404D01*
X126440087Y-68035178D01*
X126537761Y-67962061D01*
X126625389Y-67845004D01*
X126676489Y-67708001D01*
X126680091Y-67674492D01*
X126682999Y-67647454D01*
X126683000Y-67647437D01*
X126683000Y-65550162D01*
X126682999Y-65550145D01*
X126678218Y-65505682D01*
X126676489Y-65489599D01*
X126670582Y-65473763D01*
X126646968Y-65410452D01*
X126625389Y-65352596D01*
X126537761Y-65235539D01*
X126420704Y-65147911D01*
X126362694Y-65126274D01*
X126283703Y-65096811D01*
X126223154Y-65090300D01*
X126223138Y-65090300D01*
X124220862Y-65090300D01*
X124220845Y-65090300D01*
X124160297Y-65096811D01*
X124160295Y-65096811D01*
X124023295Y-65147911D01*
X123906239Y-65235539D01*
X123818611Y-65352595D01*
X123767511Y-65489595D01*
X123767511Y-65489597D01*
X123761000Y-65550145D01*
X123761000Y-65560400D01*
X123741315Y-65627439D01*
X123688511Y-65673194D01*
X123637000Y-65684400D01*
X122973951Y-65684400D01*
X122906912Y-65664715D01*
X122868957Y-65626372D01*
X122810111Y-65532719D01*
X122681281Y-65403889D01*
X122644704Y-65380906D01*
X122527017Y-65306958D01*
X122527016Y-65306957D01*
X122527015Y-65306957D01*
X122472693Y-65287949D01*
X122355046Y-65246782D01*
X122355041Y-65246781D01*
X122174004Y-65226384D01*
X122173996Y-65226384D01*
X121992958Y-65246781D01*
X121992953Y-65246782D01*
X121820982Y-65306958D01*
X121666718Y-65403889D01*
X121537889Y-65532718D01*
X121479043Y-65626372D01*
X121426708Y-65672663D01*
X121374049Y-65684400D01*
X119744729Y-65684400D01*
X119677690Y-65664715D01*
X119640414Y-65627440D01*
X119640413Y-65627439D01*
X119605439Y-65573018D01*
X119605433Y-65573011D01*
X119559688Y-65520218D01*
X119559685Y-65520215D01*
X119449232Y-65424505D01*
X119449226Y-65424501D01*
X119316284Y-65363787D01*
X119313539Y-65362981D01*
X119282761Y-65353943D01*
X119249239Y-65344100D01*
X119186188Y-65335035D01*
X119104568Y-65323300D01*
X119104566Y-65323300D01*
X118691696Y-65323300D01*
X118626054Y-65304025D01*
X118625892Y-65304290D01*
X118624913Y-65303690D01*
X118624657Y-65303615D01*
X118623506Y-65302828D01*
X118621732Y-65301741D01*
X118621733Y-65301741D01*
X118621731Y-65301740D01*
X118555985Y-65268241D01*
X118416833Y-65197339D01*
X118198118Y-65126273D01*
X117970988Y-65090300D01*
X117970983Y-65090300D01*
X117741017Y-65090300D01*
X117741012Y-65090300D01*
X117513881Y-65126273D01*
X117295166Y-65197339D01*
X117090267Y-65301741D01*
X117086108Y-65304290D01*
X117085027Y-65302526D01*
X117027399Y-65323097D01*
X117020304Y-65323300D01*
X116887800Y-65323300D01*
X116887791Y-65323300D01*
X116887790Y-65323301D01*
X116778648Y-65335035D01*
X116778636Y-65335037D01*
X116727126Y-65346243D01*
X116622979Y-65380906D01*
X116622973Y-65380909D01*
X116500018Y-65459928D01*
X116500011Y-65459934D01*
X116447218Y-65505679D01*
X116447215Y-65505682D01*
X116351505Y-65616135D01*
X116351501Y-65616141D01*
X116290787Y-65749083D01*
X116271100Y-65816128D01*
X116250300Y-65960801D01*
X116250300Y-66343225D01*
X116251882Y-66383495D01*
X116253412Y-66402932D01*
X116258147Y-66442938D01*
X116261973Y-66467088D01*
X116263500Y-66486487D01*
X116263500Y-66711115D01*
X116261973Y-66730514D01*
X116258149Y-66754651D01*
X116253409Y-66794692D01*
X116251882Y-66814090D01*
X116250300Y-66854371D01*
X116250300Y-67866300D01*
X116230615Y-67933339D01*
X116177811Y-67979094D01*
X116126300Y-67990300D01*
X114303790Y-67990300D01*
X114236751Y-67970615D01*
X114190996Y-67917811D01*
X114181052Y-67848653D01*
X114187609Y-67822965D01*
X114230488Y-67708004D01*
X114230488Y-67708003D01*
X114230489Y-67708001D01*
X114234091Y-67674492D01*
X114236999Y-67647454D01*
X114237000Y-67647437D01*
X114237000Y-65550162D01*
X114236999Y-65550145D01*
X114232218Y-65505682D01*
X114230489Y-65489599D01*
X114224582Y-65473763D01*
X114200968Y-65410452D01*
X114179389Y-65352596D01*
X114091761Y-65235539D01*
X113974704Y-65147911D01*
X113916694Y-65126274D01*
X113837703Y-65096811D01*
X113777154Y-65090300D01*
X113777138Y-65090300D01*
X111774862Y-65090300D01*
X111774845Y-65090300D01*
X111714297Y-65096811D01*
X111714295Y-65096811D01*
X111577295Y-65147911D01*
X111460238Y-65235540D01*
X111418852Y-65290824D01*
X111362918Y-65332695D01*
X111301940Y-65339250D01*
X111191000Y-65323300D01*
X105935616Y-65323300D01*
X105935608Y-65323300D01*
X105890174Y-65325314D01*
X105868308Y-65327257D01*
X105823250Y-65333281D01*
X105823239Y-65333283D01*
X105684508Y-65379256D01*
X105621984Y-65410452D01*
X105537201Y-65469154D01*
X105470878Y-65491132D01*
X105403201Y-65473763D01*
X105401519Y-65472744D01*
X105394936Y-65468683D01*
X105394930Y-65468681D01*
X105390688Y-65467275D01*
X105333246Y-65427499D01*
X105306427Y-65362981D01*
X105305700Y-65349572D01*
X105305700Y-65106618D01*
X105305699Y-65106614D01*
X105278475Y-64969745D01*
X105278472Y-64969736D01*
X105262830Y-64931972D01*
X105225067Y-64840803D01*
X105225066Y-64840801D01*
X105207413Y-64814382D01*
X105147528Y-64724758D01*
X105147525Y-64724754D01*
X105039919Y-64617148D01*
X105006434Y-64555825D01*
X105003600Y-64529467D01*
X105003600Y-63845044D01*
X105023285Y-63778005D01*
X105039919Y-63757363D01*
X105060608Y-63736674D01*
X105113030Y-63684252D01*
X105206115Y-63533338D01*
X105261887Y-63365026D01*
X105272500Y-63261145D01*
X105272499Y-61910056D01*
X105272433Y-61909411D01*
X105272458Y-61909273D01*
X105272338Y-61906901D01*
X105272904Y-61906872D01*
X105285197Y-61840718D01*
X105333073Y-61789830D01*
X105395790Y-61772800D01*
X114281156Y-61772800D01*
X114348195Y-61792485D01*
X114368837Y-61809119D01*
X114438948Y-61879230D01*
X114589862Y-61972315D01*
X114758174Y-62028087D01*
X114862055Y-62038700D01*
X115588144Y-62038699D01*
X115692026Y-62028087D01*
X115860338Y-61972315D01*
X116011252Y-61879230D01*
X116081363Y-61809119D01*
X116142686Y-61775634D01*
X116169044Y-61772800D01*
X116941600Y-61772800D01*
X116941600Y-59737800D01*
X116961285Y-59670761D01*
X117014089Y-59625006D01*
X117065600Y-59613800D01*
X119103600Y-59613800D01*
X119170639Y-59633485D01*
X119216394Y-59686289D01*
X119227600Y-59737800D01*
X119227600Y-60731400D01*
X125247400Y-60731400D01*
X125247400Y-59712400D01*
X125267085Y-59645361D01*
X125319889Y-59599606D01*
X125371400Y-59588400D01*
X129187400Y-59588400D01*
X129254439Y-59608085D01*
G37*
G04 #@! TD.AperFunction*
G04 #@! TA.AperFunction,Conductor*
G36*
X133541539Y-118637685D02*
G01*
X133587294Y-118690489D01*
X133598500Y-118742000D01*
X133598500Y-132591000D01*
X133578815Y-132658039D01*
X133526011Y-132703794D01*
X133474500Y-132715000D01*
X118488000Y-132715000D01*
X118420961Y-132695315D01*
X118375206Y-132642511D01*
X118364000Y-132591000D01*
X118364000Y-127124000D01*
X118383685Y-127056961D01*
X118436489Y-127011206D01*
X118488000Y-127000000D01*
X122304000Y-127000000D01*
X122371039Y-127019685D01*
X122416794Y-127072489D01*
X122428000Y-127124000D01*
X122428000Y-131064000D01*
X126821246Y-131064000D01*
X126888285Y-131083685D01*
X126908927Y-131100319D01*
X127000719Y-131192111D01*
X127154985Y-131289043D01*
X127326953Y-131349217D01*
X127326958Y-131349218D01*
X127507996Y-131369616D01*
X127508000Y-131369616D01*
X127508004Y-131369616D01*
X127689041Y-131349218D01*
X127689044Y-131349217D01*
X127689047Y-131349217D01*
X127861015Y-131289043D01*
X128015281Y-131192111D01*
X128144111Y-131063281D01*
X128241043Y-130909015D01*
X128301217Y-130737047D01*
X128301218Y-130737041D01*
X128321616Y-130556003D01*
X128321616Y-130555996D01*
X128301218Y-130374958D01*
X128301217Y-130374953D01*
X128241042Y-130202983D01*
X128235505Y-130194171D01*
X128216500Y-130128200D01*
X128216500Y-125606106D01*
X128216499Y-125606102D01*
X128189274Y-125469233D01*
X128189273Y-125469226D01*
X128159882Y-125398270D01*
X128135865Y-125340287D01*
X128058328Y-125224246D01*
X128058327Y-125224245D01*
X128058325Y-125224242D01*
X128052315Y-125218232D01*
X128018833Y-125156907D01*
X128016000Y-125130555D01*
X128016000Y-118742000D01*
X128035685Y-118674961D01*
X128088489Y-118629206D01*
X128140000Y-118618000D01*
X133474500Y-118618000D01*
X133541539Y-118637685D01*
G37*
G04 #@! TD.AperFunction*
G04 #@! TA.AperFunction,Conductor*
G36*
X143521091Y-104549581D02*
G01*
X143588034Y-104569583D01*
X143633538Y-104622603D01*
X143644500Y-104673579D01*
X143644500Y-123228276D01*
X143624815Y-123295315D01*
X143572011Y-123341070D01*
X143522323Y-123352263D01*
X140567923Y-123395710D01*
X140500602Y-123377013D01*
X140454075Y-123324887D01*
X140442100Y-123271723D01*
X140442100Y-110029459D01*
X140430515Y-109921012D01*
X140430513Y-109921006D01*
X140430513Y-109920997D01*
X140419447Y-109869791D01*
X140385204Y-109766204D01*
X140340269Y-109695866D01*
X140320769Y-109629929D01*
X140309600Y-107929416D01*
X140309599Y-107929416D01*
X116456590Y-107929416D01*
X116433600Y-104825800D01*
X114528600Y-104825800D01*
X110464600Y-104825800D01*
X106400600Y-104825800D01*
X106400600Y-104498006D01*
X106420285Y-104430967D01*
X106473089Y-104385212D01*
X106525186Y-104374007D01*
X143521091Y-104549581D01*
G37*
G04 #@! TD.AperFunction*
M02*
