G04 #@! TF.GenerationSoftware,KiCad,Pcbnew,7.0.1*
G04 #@! TF.CreationDate,2023-11-10T14:13:51-08:00*
G04 #@! TF.ProjectId,AtInverter_v1,4174496e-7665-4727-9465-725f76312e6b,v1*
G04 #@! TF.SameCoordinates,Original*
G04 #@! TF.FileFunction,Copper,L1,Top*
G04 #@! TF.FilePolarity,Positive*
%FSLAX46Y46*%
G04 Gerber Fmt 4.6, Leading zero omitted, Abs format (unit mm)*
G04 Created by KiCad (PCBNEW 7.0.1) date 2023-11-10 14:13:51*
%MOMM*%
%LPD*%
G01*
G04 APERTURE LIST*
G04 Aperture macros list*
%AMRoundRect*
0 Rectangle with rounded corners*
0 $1 Rounding radius*
0 $2 $3 $4 $5 $6 $7 $8 $9 X,Y pos of 4 corners*
0 Add a 4 corners polygon primitive as box body*
4,1,4,$2,$3,$4,$5,$6,$7,$8,$9,$2,$3,0*
0 Add four circle primitives for the rounded corners*
1,1,$1+$1,$2,$3*
1,1,$1+$1,$4,$5*
1,1,$1+$1,$6,$7*
1,1,$1+$1,$8,$9*
0 Add four rect primitives between the rounded corners*
20,1,$1+$1,$2,$3,$4,$5,0*
20,1,$1+$1,$4,$5,$6,$7,0*
20,1,$1+$1,$6,$7,$8,$9,0*
20,1,$1+$1,$8,$9,$2,$3,0*%
G04 Aperture macros list end*
G04 #@! TA.AperFunction,ComponentPad*
%ADD10C,1.371600*%
G04 #@! TD*
G04 #@! TA.AperFunction,ComponentPad*
%ADD11R,1.700000X1.700000*%
G04 #@! TD*
G04 #@! TA.AperFunction,ComponentPad*
%ADD12C,1.600000*%
G04 #@! TD*
G04 #@! TA.AperFunction,ComponentPad*
%ADD13O,1.600000X1.600000*%
G04 #@! TD*
G04 #@! TA.AperFunction,ComponentPad*
%ADD14C,2.565400*%
G04 #@! TD*
G04 #@! TA.AperFunction,ComponentPad*
%ADD15R,1.905000X2.000000*%
G04 #@! TD*
G04 #@! TA.AperFunction,ComponentPad*
%ADD16O,1.905000X2.000000*%
G04 #@! TD*
G04 #@! TA.AperFunction,ComponentPad*
%ADD17O,1.700000X1.700000*%
G04 #@! TD*
G04 #@! TA.AperFunction,ComponentPad*
%ADD18R,1.600000X1.600000*%
G04 #@! TD*
G04 #@! TA.AperFunction,SMDPad,CuDef*
%ADD19RoundRect,0.150000X1.100000X0.150000X-1.100000X0.150000X-1.100000X-0.150000X1.100000X-0.150000X0*%
G04 #@! TD*
G04 #@! TA.AperFunction,ComponentPad*
%ADD20C,2.100000*%
G04 #@! TD*
G04 #@! TA.AperFunction,ComponentPad*
%ADD21R,1.600000X2.400000*%
G04 #@! TD*
G04 #@! TA.AperFunction,ComponentPad*
%ADD22O,1.600000X2.400000*%
G04 #@! TD*
G04 #@! TA.AperFunction,ComponentPad*
%ADD23R,2.400000X1.600000*%
G04 #@! TD*
G04 #@! TA.AperFunction,ComponentPad*
%ADD24O,2.400000X1.600000*%
G04 #@! TD*
G04 #@! TA.AperFunction,ComponentPad*
%ADD25C,1.500000*%
G04 #@! TD*
G04 #@! TA.AperFunction,ComponentPad*
%ADD26R,2.500000X2.500000*%
G04 #@! TD*
G04 #@! TA.AperFunction,ComponentPad*
%ADD27C,2.500000*%
G04 #@! TD*
G04 #@! TA.AperFunction,ComponentPad*
%ADD28R,2.000000X1.905000*%
G04 #@! TD*
G04 #@! TA.AperFunction,ComponentPad*
%ADD29O,2.000000X1.905000*%
G04 #@! TD*
G04 #@! TA.AperFunction,ViaPad*
%ADD30C,0.600000*%
G04 #@! TD*
G04 #@! TA.AperFunction,Conductor*
%ADD31C,1.000000*%
G04 #@! TD*
G04 #@! TA.AperFunction,Conductor*
%ADD32C,2.000000*%
G04 #@! TD*
G04 #@! TA.AperFunction,Conductor*
%ADD33C,0.400000*%
G04 #@! TD*
G04 #@! TA.AperFunction,Conductor*
%ADD34C,0.600000*%
G04 #@! TD*
G04 #@! TA.AperFunction,Conductor*
%ADD35C,0.200000*%
G04 #@! TD*
G04 #@! TA.AperFunction,Conductor*
%ADD36C,4.000000*%
G04 #@! TD*
G04 APERTURE END LIST*
D10*
X70851000Y-63042000D03*
X70851000Y-68042000D03*
D11*
X117094000Y-116332000D03*
D12*
X74295000Y-107950000D03*
D13*
X74295000Y-115570000D03*
D14*
X138430000Y-106172000D03*
X119380000Y-106172000D03*
D15*
X114808000Y-89662000D03*
D16*
X117348000Y-89662000D03*
X119888000Y-89662000D03*
D13*
X127254000Y-69596000D03*
D12*
X119634000Y-69596000D03*
D11*
X131318000Y-120396000D03*
X144780000Y-68590000D03*
D17*
X144780000Y-71130000D03*
X144780000Y-73670000D03*
X144780000Y-76210000D03*
D18*
X115062000Y-56388000D03*
D13*
X107442000Y-56388000D03*
D19*
X139104000Y-73152000D03*
X139104000Y-71882000D03*
X139104000Y-70612000D03*
X139104000Y-69342000D03*
X133604000Y-69342000D03*
X133604000Y-70612000D03*
X133604000Y-71882000D03*
X133604000Y-73152000D03*
D11*
X127000000Y-66040000D03*
D10*
X103901000Y-61000000D03*
X103901000Y-66000000D03*
D18*
X89916000Y-119380000D03*
D13*
X89916000Y-116840000D03*
X89916000Y-114300000D03*
X89916000Y-111760000D03*
X89916000Y-109220000D03*
X89916000Y-106680000D03*
X89916000Y-104140000D03*
X89916000Y-101600000D03*
X89916000Y-99060000D03*
X89916000Y-96520000D03*
X89916000Y-93980000D03*
X89916000Y-91440000D03*
X89916000Y-88900000D03*
X89916000Y-86360000D03*
X82296000Y-86360000D03*
X82296000Y-88900000D03*
X82296000Y-91440000D03*
X82296000Y-93980000D03*
X82296000Y-96520000D03*
X82296000Y-99060000D03*
X82296000Y-101600000D03*
X82296000Y-104140000D03*
X82296000Y-106680000D03*
X82296000Y-109220000D03*
X82296000Y-111760000D03*
X82296000Y-114300000D03*
X82296000Y-116840000D03*
X82296000Y-119380000D03*
D12*
X74295000Y-124460000D03*
X74295000Y-119460000D03*
D18*
X78486000Y-107315000D03*
D13*
X78486000Y-104775000D03*
X78486000Y-102235000D03*
X78486000Y-99695000D03*
X78486000Y-97155000D03*
X78486000Y-94615000D03*
X78486000Y-92075000D03*
X78486000Y-89535000D03*
X120904000Y-77216000D03*
D12*
X113284000Y-77216000D03*
D20*
X74295000Y-104775000D03*
X74295000Y-102235000D03*
X74295000Y-99695000D03*
D15*
X109728000Y-103053000D03*
D16*
X112268000Y-103053000D03*
X114808000Y-103053000D03*
D21*
X67310000Y-52070000D03*
D22*
X69850000Y-52070000D03*
X72390000Y-52070000D03*
X74930000Y-52070000D03*
X77470000Y-52070000D03*
X80010000Y-52070000D03*
X82550000Y-52070000D03*
X82550000Y-44450000D03*
X80010000Y-44450000D03*
X77470000Y-44450000D03*
X74930000Y-44450000D03*
X72390000Y-44450000D03*
X69850000Y-44450000D03*
X67310000Y-44450000D03*
D20*
X74422000Y-92710000D03*
X74422000Y-90170000D03*
X74422000Y-87630000D03*
D15*
X97790000Y-103124000D03*
D16*
X100330000Y-103124000D03*
X102870000Y-103124000D03*
D11*
X93726000Y-66040000D03*
D12*
X86106000Y-69596000D03*
D13*
X93726000Y-69596000D03*
D12*
X83820000Y-81494000D03*
X83820000Y-76494000D03*
D11*
X139573000Y-90678000D03*
D17*
X139573000Y-88138000D03*
X142113000Y-90678000D03*
X142113000Y-88138000D03*
X144653000Y-90678000D03*
X144653000Y-88138000D03*
D21*
X114564000Y-52085000D03*
D22*
X117104000Y-52085000D03*
X119644000Y-52085000D03*
X122184000Y-52085000D03*
X122184000Y-44465000D03*
X119644000Y-44465000D03*
X117104000Y-44465000D03*
X114564000Y-44465000D03*
D13*
X127000000Y-56134000D03*
D12*
X119380000Y-56134000D03*
D23*
X107442000Y-59944000D03*
D24*
X107442000Y-62484000D03*
X107442000Y-65024000D03*
X107442000Y-67564000D03*
X115062000Y-67564000D03*
X115062000Y-65024000D03*
X115062000Y-62484000D03*
X115062000Y-59944000D03*
D12*
X103632000Y-51816000D03*
D13*
X111252000Y-51816000D03*
D25*
X95758000Y-90130000D03*
X95758000Y-85130000D03*
D13*
X104775000Y-45720000D03*
X102235000Y-45720000D03*
X99695000Y-45720000D03*
X97155000Y-45720000D03*
X94615000Y-45720000D03*
D18*
X92075000Y-45720000D03*
D11*
X113792000Y-108966000D03*
D12*
X132548000Y-91186000D03*
X127548000Y-91186000D03*
D11*
X142494000Y-82550000D03*
D18*
X82027000Y-58430000D03*
D13*
X74407000Y-58430000D03*
D10*
X124968000Y-123190000D03*
X119968000Y-123190000D03*
D14*
X112776000Y-117856000D03*
X93726000Y-117856000D03*
D10*
X138129000Y-118110000D03*
X143129000Y-118110000D03*
D19*
X127210000Y-134493000D03*
X127210000Y-133223000D03*
X127210000Y-131953000D03*
X127210000Y-130683000D03*
X121710000Y-130683000D03*
X121710000Y-131953000D03*
X121710000Y-133223000D03*
X121710000Y-134493000D03*
D23*
X74407000Y-61986000D03*
D24*
X74407000Y-64526000D03*
X74407000Y-67066000D03*
X74407000Y-69606000D03*
X82027000Y-69606000D03*
X82027000Y-67066000D03*
X82027000Y-64526000D03*
X82027000Y-61986000D03*
D12*
X86106000Y-55880000D03*
D13*
X93726000Y-55880000D03*
D26*
X138136000Y-59690000D03*
D27*
X133136000Y-59690000D03*
D11*
X144526000Y-103632000D03*
D17*
X144526000Y-106172000D03*
X144526000Y-108712000D03*
D12*
X87361000Y-59984000D03*
X87361000Y-64984000D03*
X120396000Y-59984000D03*
X120396000Y-64984000D03*
D11*
X111506000Y-94742000D03*
X86995000Y-129540000D03*
D17*
X84455000Y-129540000D03*
X81915000Y-129540000D03*
X79375000Y-129540000D03*
X76835000Y-129540000D03*
X74295000Y-129540000D03*
D11*
X143510000Y-125730000D03*
D17*
X143510000Y-128270000D03*
X143510000Y-130810000D03*
X143510000Y-133350000D03*
D11*
X93711000Y-60960000D03*
X102870000Y-132842000D03*
D17*
X105410000Y-132842000D03*
X107950000Y-132842000D03*
X110490000Y-132842000D03*
D11*
X144780000Y-55890000D03*
D17*
X144780000Y-58430000D03*
X144780000Y-60970000D03*
X144780000Y-63510000D03*
D15*
X102870000Y-89662000D03*
D16*
X105410000Y-89662000D03*
X107950000Y-89662000D03*
D28*
X130048000Y-80010000D03*
D29*
X130048000Y-82550000D03*
X130048000Y-85090000D03*
D26*
X131906000Y-128524000D03*
D27*
X136906000Y-128524000D03*
D18*
X100330000Y-51816000D03*
D13*
X97790000Y-51816000D03*
X95250000Y-51816000D03*
X92710000Y-51816000D03*
X90170000Y-51816000D03*
X87630000Y-51816000D03*
D11*
X127000000Y-60960000D03*
D12*
X88900000Y-76494000D03*
X88900000Y-81494000D03*
D11*
X74168000Y-83820000D03*
D13*
X109474000Y-77216000D03*
D12*
X101854000Y-77216000D03*
D11*
X69710000Y-125940000D03*
D17*
X67170000Y-125940000D03*
X69710000Y-123400000D03*
X67170000Y-123400000D03*
X69710000Y-120860000D03*
X67170000Y-120860000D03*
X69710000Y-118320000D03*
X67170000Y-118320000D03*
X69710000Y-115780000D03*
X67170000Y-115780000D03*
X69710000Y-113240000D03*
X67170000Y-113240000D03*
X69710000Y-110700000D03*
X67170000Y-110700000D03*
X69710000Y-108160000D03*
X67170000Y-108160000D03*
X69710000Y-105620000D03*
X67170000Y-105620000D03*
X69710000Y-103080000D03*
X67170000Y-103080000D03*
X69710000Y-100540000D03*
X67170000Y-100540000D03*
X69710000Y-98000000D03*
X67170000Y-98000000D03*
X69710000Y-95460000D03*
X67170000Y-95460000D03*
X69710000Y-92920000D03*
X67170000Y-92920000D03*
X69710000Y-90380000D03*
X67170000Y-90380000D03*
X69710000Y-87840000D03*
X67170000Y-87840000D03*
X69710000Y-85300000D03*
X67170000Y-85300000D03*
X69710000Y-82760000D03*
X67170000Y-82760000D03*
X69710000Y-80220000D03*
X67170000Y-80220000D03*
X69710000Y-77680000D03*
X67170000Y-77680000D03*
D30*
X129794000Y-126492000D03*
X136652000Y-124460000D03*
X131445000Y-69850000D03*
X123952000Y-130556000D03*
X109855000Y-56515000D03*
X127000000Y-100965000D03*
X107442000Y-51308000D03*
X112395000Y-56515000D03*
X135255000Y-64770000D03*
X118745000Y-120650000D03*
X122555000Y-116840000D03*
X136525000Y-69850000D03*
X68707000Y-57150000D03*
X114935000Y-97663000D03*
X102616000Y-96520000D03*
X80518000Y-103886000D03*
X108966000Y-97663000D03*
X130810000Y-107950000D03*
X123190000Y-97663000D03*
X83947000Y-123063000D03*
X86106000Y-120904000D03*
X81407000Y-123063000D03*
X83820000Y-120650000D03*
X107823000Y-82042000D03*
X106807000Y-77470000D03*
X117856000Y-80010000D03*
X119761000Y-83947000D03*
X101219000Y-94615000D03*
X98806000Y-98171000D03*
X76962000Y-95885000D03*
X74330000Y-95920000D03*
X74676000Y-98044000D03*
X71247000Y-98000000D03*
X106045000Y-71374000D03*
X94107000Y-97536000D03*
X94107000Y-102616000D03*
X95758000Y-82169000D03*
X139065000Y-76200000D03*
X134620000Y-79756000D03*
X93472000Y-113030000D03*
X108585000Y-125095000D03*
X103886000Y-101346000D03*
X117729000Y-101092000D03*
X125349000Y-95377000D03*
X98679000Y-101346000D03*
X98298000Y-85979000D03*
X108458000Y-73787000D03*
X96393000Y-50165000D03*
X83312000Y-54864000D03*
X81915000Y-49530000D03*
X98552000Y-48133000D03*
X78232000Y-53848000D03*
X91567000Y-61849000D03*
X90932000Y-65659000D03*
X122301000Y-72644000D03*
X114300000Y-82042000D03*
X119570500Y-74676000D03*
X114300000Y-87376000D03*
X95123000Y-74422000D03*
X98298000Y-94996000D03*
X95123000Y-79121000D03*
X122174000Y-81153000D03*
X121666000Y-93472000D03*
X114300000Y-100076000D03*
X117983000Y-93599000D03*
X122047000Y-75819000D03*
X110109000Y-100711000D03*
D31*
X127508000Y-133521000D02*
X127210000Y-133223000D01*
X127508000Y-134112000D02*
X127508000Y-133521000D01*
D32*
X127508000Y-134112000D02*
X128016000Y-134620000D01*
X131906000Y-132254000D02*
X131906000Y-128524000D01*
X128016000Y-134620000D02*
X129540000Y-134620000D01*
X129540000Y-134620000D02*
X131906000Y-132254000D01*
D33*
X114300000Y-80073500D02*
X114300000Y-82042000D01*
X119570500Y-74803000D02*
X114300000Y-80073500D01*
X119570500Y-74676000D02*
X119570500Y-74803000D01*
D34*
X113284000Y-77216000D02*
X109474000Y-77216000D01*
D32*
X101854000Y-78206600D02*
X101854000Y-77216000D01*
X103657400Y-80010000D02*
X101854000Y-78206600D01*
X105918000Y-80010000D02*
X103657400Y-80010000D01*
D31*
X113660000Y-43561000D02*
X114564000Y-44465000D01*
X68834000Y-46863000D02*
X84709000Y-46863000D01*
X67310000Y-45339000D02*
X68834000Y-46863000D01*
X84709000Y-46863000D02*
X88011000Y-43561000D01*
X67310000Y-44450000D02*
X67310000Y-45339000D01*
X88011000Y-43561000D02*
X113660000Y-43561000D01*
D32*
X144780000Y-63510000D02*
X141488000Y-63510000D01*
X141488000Y-63510000D02*
X141033500Y-63055500D01*
X131826000Y-128524000D02*
X129794000Y-126492000D01*
X131906000Y-128524000D02*
X131826000Y-128524000D01*
X143510000Y-128270000D02*
X143510000Y-125730000D01*
X136652000Y-124460000D02*
X142240000Y-124460000D01*
X142240000Y-124460000D02*
X143510000Y-125730000D01*
X127210000Y-129750000D02*
X123444000Y-125984000D01*
X117094000Y-116332000D02*
X118110000Y-116332000D01*
D31*
X127210000Y-130683000D02*
X127210000Y-131953000D01*
D32*
X117094000Y-116332000D02*
X114300000Y-116332000D01*
X127210000Y-130683000D02*
X127210000Y-129750000D01*
X118110000Y-116332000D02*
X124968000Y-123190000D01*
X123444000Y-125984000D02*
X123444000Y-124714000D01*
X114300000Y-116332000D02*
X112776000Y-117856000D01*
X123444000Y-124714000D02*
X124968000Y-123190000D01*
X138129000Y-106473000D02*
X138430000Y-106172000D01*
X141732000Y-133350000D02*
X143510000Y-133350000D01*
X131318000Y-122936000D02*
X136906000Y-128524000D01*
X139192000Y-130810000D02*
X141732000Y-133350000D01*
X131318000Y-120396000D02*
X131318000Y-122936000D01*
X131318000Y-120396000D02*
X135843000Y-120396000D01*
X138129000Y-118110000D02*
X138129000Y-106473000D01*
X135843000Y-120396000D02*
X138129000Y-118110000D01*
X136906000Y-128524000D02*
X139192000Y-130810000D01*
X139192000Y-130810000D02*
X143510000Y-130810000D01*
D33*
X74295000Y-124460000D02*
X74295000Y-129540000D01*
X121710000Y-130683000D02*
X123825000Y-130683000D01*
X131953000Y-69342000D02*
X131445000Y-69850000D01*
X123825000Y-130683000D02*
X123952000Y-130556000D01*
X133604000Y-69342000D02*
X131953000Y-69342000D01*
D31*
X69987000Y-58430000D02*
X68707000Y-57150000D01*
X100330000Y-51816000D02*
X100330000Y-52777000D01*
D32*
X132548000Y-91186000D02*
X126071000Y-97663000D01*
D31*
X104929500Y-59971500D02*
X103901000Y-61000000D01*
X104929500Y-59971500D02*
X104929500Y-57376500D01*
D32*
X142113000Y-88138000D02*
X142113000Y-82931000D01*
D31*
X107442000Y-59944000D02*
X104957000Y-59944000D01*
D34*
X107442000Y-59944000D02*
X107442000Y-58928000D01*
D31*
X71907000Y-61986000D02*
X70851000Y-63042000D01*
X72644000Y-58430000D02*
X74407000Y-58430000D01*
D34*
X131445000Y-63500000D02*
X134620000Y-63500000D01*
X136525000Y-69850000D02*
X136525000Y-72390000D01*
X113665000Y-54610000D02*
X128905000Y-54610000D01*
D31*
X104929500Y-57376500D02*
X105918000Y-56388000D01*
D34*
X127000000Y-98592000D02*
X126071000Y-97663000D01*
D33*
X75692000Y-109347000D02*
X74295000Y-107950000D01*
D34*
X121583000Y-134620000D02*
X116205000Y-134620000D01*
X134620000Y-63500000D02*
X135255000Y-64135000D01*
X127000000Y-100965000D02*
X127000000Y-98592000D01*
X128905000Y-54610000D02*
X130175000Y-55880000D01*
D33*
X80518000Y-103886000D02*
X80518000Y-108712000D01*
D34*
X136525000Y-72390000D02*
X135763000Y-73152000D01*
D32*
X142113000Y-82931000D02*
X142494000Y-82550000D01*
D34*
X121710000Y-134493000D02*
X121583000Y-134620000D01*
X122555000Y-116840000D02*
X130810000Y-108585000D01*
D33*
X79883000Y-109347000D02*
X75692000Y-109347000D01*
D34*
X130175000Y-62230000D02*
X131445000Y-63500000D01*
X116205000Y-134620000D02*
X107315000Y-125730000D01*
D31*
X133604000Y-74930000D02*
X133604000Y-73533000D01*
D32*
X141224000Y-82550000D02*
X133604000Y-74930000D01*
X96774000Y-97663000D02*
X90297000Y-104140000D01*
D34*
X107315000Y-125730000D02*
X107315000Y-123190000D01*
X135255000Y-64135000D02*
X135255000Y-64770000D01*
X107315000Y-123190000D02*
X108427800Y-122077200D01*
X108427800Y-122077200D02*
X117317800Y-122077200D01*
D32*
X123190000Y-97663000D02*
X126071000Y-97663000D01*
D31*
X71907000Y-61986000D02*
X71907000Y-59167000D01*
D34*
X130175000Y-55880000D02*
X130175000Y-56515000D01*
D33*
X80518000Y-108712000D02*
X79883000Y-109347000D01*
D31*
X100330000Y-52777000D02*
X104929500Y-57376500D01*
D32*
X90297000Y-104140000D02*
X89916000Y-104140000D01*
X142113000Y-88138000D02*
X139573000Y-88138000D01*
X132548000Y-91186000D02*
X135596000Y-88138000D01*
X108966000Y-97663000D02*
X114935000Y-97663000D01*
D34*
X130175000Y-56515000D02*
X130175000Y-62230000D01*
X112395000Y-56515000D02*
X112395000Y-55880000D01*
D31*
X104957000Y-59944000D02*
X104929500Y-59971500D01*
X72644000Y-58430000D02*
X69987000Y-58430000D01*
X105918000Y-56388000D02*
X107442000Y-56388000D01*
D32*
X142113000Y-88138000D02*
X144653000Y-88138000D01*
D31*
X71907000Y-59167000D02*
X72644000Y-58430000D01*
D34*
X130810000Y-108585000D02*
X130810000Y-107950000D01*
D32*
X135596000Y-88138000D02*
X139573000Y-88138000D01*
D34*
X112395000Y-55880000D02*
X113665000Y-54610000D01*
D31*
X107442000Y-56388000D02*
X107442000Y-51308000D01*
D32*
X96774000Y-97663000D02*
X97917000Y-96520000D01*
D34*
X117317800Y-122077200D02*
X118745000Y-120650000D01*
D31*
X74407000Y-61986000D02*
X71907000Y-61986000D01*
D32*
X142494000Y-82550000D02*
X141224000Y-82550000D01*
D34*
X107442000Y-58928000D02*
X109855000Y-56515000D01*
D32*
X97917000Y-96520000D02*
X102616000Y-96520000D01*
D34*
X135763000Y-73152000D02*
X133604000Y-73152000D01*
D31*
X82027000Y-61986000D02*
X85359000Y-61986000D01*
X82027000Y-58430000D02*
X82027000Y-61986000D01*
X85359000Y-61986000D02*
X87361000Y-59984000D01*
D32*
X139573000Y-91059000D02*
X119126000Y-111506000D01*
X94488000Y-125222000D02*
X85030919Y-125222000D01*
X139573000Y-90678000D02*
X139573000Y-91059000D01*
X85030919Y-125222000D02*
X81915000Y-128337919D01*
X81915000Y-128337919D02*
X81915000Y-129540000D01*
X108204000Y-111506000D02*
X94488000Y-125222000D01*
X119126000Y-111506000D02*
X108204000Y-111506000D01*
D33*
X79375000Y-129540000D02*
X79375000Y-127635000D01*
X79375000Y-127635000D02*
X83947000Y-123063000D01*
X89916000Y-117094000D02*
X89916000Y-116840000D01*
X86106000Y-120904000D02*
X89916000Y-117094000D01*
X83820000Y-120650000D02*
X89916000Y-114554000D01*
X89916000Y-114554000D02*
X89916000Y-114300000D01*
X76835000Y-129540000D02*
X76835000Y-127635000D01*
X76835000Y-127635000D02*
X81407000Y-123063000D01*
D31*
X87361000Y-64984000D02*
X88845000Y-63500000D01*
D32*
X100330000Y-111252000D02*
X100330000Y-103124000D01*
D31*
X95758000Y-63500000D02*
X103759000Y-71501000D01*
X85279000Y-67066000D02*
X87361000Y-64984000D01*
X106807000Y-74589976D02*
X106807000Y-77470000D01*
D32*
X100330000Y-102203707D02*
X107950000Y-94583707D01*
D31*
X88845000Y-63500000D02*
X95758000Y-63500000D01*
X107823000Y-89535000D02*
X107950000Y-89662000D01*
D32*
X100330000Y-103124000D02*
X100330000Y-102203707D01*
X107950000Y-90130032D02*
X107950000Y-89662000D01*
X93726000Y-117856000D02*
X100330000Y-111252000D01*
D31*
X107823000Y-82042000D02*
X107823000Y-89535000D01*
D32*
X107950000Y-90130032D02*
X107950000Y-91186000D01*
D31*
X103759000Y-71541976D02*
X106807000Y-74589976D01*
X103759000Y-71501000D02*
X103759000Y-71541976D01*
X82027000Y-67066000D02*
X85279000Y-67066000D01*
D32*
X107950000Y-94583707D02*
X107950000Y-89662000D01*
X107950000Y-91186000D02*
X111506000Y-94742000D01*
D31*
X115062000Y-59944000D02*
X120356000Y-59944000D01*
X115062000Y-56388000D02*
X115062000Y-59944000D01*
X120356000Y-59944000D02*
X120396000Y-59984000D01*
D32*
X119888000Y-94996000D02*
X119888000Y-103505000D01*
D31*
X121204000Y-74884000D02*
X117856000Y-78232000D01*
D32*
X112268000Y-103053000D02*
X112268000Y-107442000D01*
X116586000Y-108966000D02*
X119380000Y-106172000D01*
X119888000Y-105664000D02*
X119380000Y-106172000D01*
D31*
X121920000Y-70612000D02*
X121204000Y-71328000D01*
D32*
X119888000Y-103505000D02*
X119888000Y-105664000D01*
D31*
X121920000Y-66508000D02*
X121920000Y-70612000D01*
X121204000Y-71328000D02*
X121204000Y-74884000D01*
D32*
X113792000Y-108966000D02*
X116586000Y-108966000D01*
D31*
X120396000Y-64984000D02*
X121920000Y-66508000D01*
D32*
X112268000Y-107442000D02*
X113792000Y-108966000D01*
D31*
X120396000Y-64984000D02*
X115102000Y-64984000D01*
X117856000Y-78232000D02*
X117856000Y-80010000D01*
X119761000Y-89535000D02*
X119888000Y-89662000D01*
D32*
X119888000Y-89662000D02*
X119888000Y-94996000D01*
D31*
X119761000Y-83947000D02*
X119761000Y-89535000D01*
X115102000Y-64984000D02*
X115062000Y-65024000D01*
D33*
X97536000Y-90932000D02*
X89916000Y-98552000D01*
X95758000Y-85130000D02*
X92122000Y-81494000D01*
X89916000Y-98552000D02*
X89916000Y-99060000D01*
X95758000Y-85130000D02*
X95758000Y-86614000D01*
X92122000Y-81494000D02*
X88900000Y-81494000D01*
X95758000Y-86614000D02*
X97536000Y-88392000D01*
X97536000Y-88392000D02*
X97536000Y-90932000D01*
X76755000Y-121920000D02*
X88392000Y-121920000D01*
X69710000Y-118320000D02*
X73155000Y-118320000D01*
X74295000Y-115570000D02*
X74295000Y-119460000D01*
X74295000Y-119460000D02*
X76755000Y-121920000D01*
X73155000Y-118320000D02*
X74295000Y-119460000D01*
X89916000Y-120396000D02*
X89916000Y-119380000D01*
X88392000Y-121920000D02*
X89916000Y-120396000D01*
X85090000Y-84074000D02*
X83820000Y-82804000D01*
X90297000Y-96520000D02*
X89916000Y-96520000D01*
X83820000Y-82804000D02*
X83820000Y-81494000D01*
X95758000Y-90130000D02*
X95758000Y-91059000D01*
X93218000Y-89154000D02*
X92202000Y-88138000D01*
X90932000Y-84074000D02*
X85090000Y-84074000D01*
X92202000Y-88138000D02*
X92202000Y-85344000D01*
X95758000Y-91059000D02*
X90297000Y-96520000D01*
X92202000Y-85344000D02*
X90932000Y-84074000D01*
X94782000Y-89154000D02*
X93218000Y-89154000D01*
X95758000Y-90130000D02*
X94782000Y-89154000D01*
X101219000Y-94615000D02*
X101219000Y-83058000D01*
X92796000Y-74635000D02*
X84516000Y-74635000D01*
X95250000Y-101727000D02*
X95250000Y-103251000D01*
X98806000Y-98171000D02*
X95250000Y-101727000D01*
X95250000Y-103251000D02*
X89916000Y-108585000D01*
X101219000Y-83058000D02*
X92796000Y-74635000D01*
X89916000Y-108585000D02*
X89916000Y-109220000D01*
X84516000Y-74635000D02*
X74407000Y-64526000D01*
X71649000Y-109495000D02*
X72517000Y-110363000D01*
X72898000Y-106553000D02*
X71649000Y-107802000D01*
X77724000Y-106553000D02*
X72898000Y-106553000D01*
X72517000Y-110363000D02*
X84963000Y-110363000D01*
X86360000Y-111760000D02*
X89916000Y-111760000D01*
X78486000Y-107315000D02*
X77724000Y-106553000D01*
X71649000Y-107802000D02*
X71649000Y-109495000D01*
X84963000Y-110363000D02*
X86360000Y-111760000D01*
D35*
X90678000Y-95250000D02*
X91186000Y-94742000D01*
X82385001Y-103034999D02*
X88392000Y-97028000D01*
X91186000Y-94742000D02*
X91186000Y-92710000D01*
X79285999Y-103034999D02*
X82385001Y-103034999D01*
X91186000Y-92710000D02*
X89916000Y-91440000D01*
X78486000Y-102235000D02*
X79285999Y-103034999D01*
X88392000Y-96266000D02*
X89408000Y-95250000D01*
X88392000Y-97028000D02*
X88392000Y-96266000D01*
X89408000Y-95250000D02*
X90678000Y-95250000D01*
D33*
X82027000Y-69606000D02*
X86096000Y-69606000D01*
X86096000Y-69606000D02*
X86106000Y-69596000D01*
X66580000Y-50292000D02*
X78486000Y-50292000D01*
X80010000Y-52070000D02*
X80010000Y-50038000D01*
X74168000Y-81788000D02*
X74168000Y-75438000D01*
X73660000Y-74930000D02*
X66548000Y-74930000D01*
X66548000Y-74930000D02*
X66040000Y-74422000D01*
X75565000Y-83185000D02*
X74930000Y-83820000D01*
X66040000Y-74422000D02*
X66040000Y-50832000D01*
X74168000Y-75438000D02*
X73660000Y-74930000D01*
X80010000Y-51816000D02*
X80010000Y-52070000D01*
X75565000Y-83185000D02*
X78740000Y-86360000D01*
X81661000Y-48387000D02*
X94488000Y-48387000D01*
X75565000Y-83185000D02*
X74168000Y-81788000D01*
X66040000Y-50832000D02*
X66580000Y-50292000D01*
X74930000Y-83820000D02*
X74168000Y-83820000D01*
X94488000Y-48387000D02*
X97155000Y-45720000D01*
X78486000Y-50292000D02*
X80010000Y-51816000D01*
X80010000Y-50038000D02*
X81661000Y-48387000D01*
X78740000Y-86360000D02*
X82296000Y-86360000D01*
D35*
X88646000Y-95250000D02*
X89916000Y-93980000D01*
X80391000Y-95250000D02*
X88646000Y-95250000D01*
X78486000Y-97155000D02*
X80391000Y-95250000D01*
D33*
X86614000Y-58166000D02*
X86106000Y-57658000D01*
X90424000Y-60960000D02*
X90424000Y-58928000D01*
X85334000Y-64526000D02*
X87376000Y-62484000D01*
X82027000Y-64526000D02*
X85334000Y-64526000D01*
X88900000Y-62484000D02*
X90424000Y-60960000D01*
X86106000Y-57658000D02*
X86106000Y-55880000D01*
X89662000Y-58166000D02*
X86614000Y-58166000D01*
X90424000Y-58928000D02*
X89662000Y-58166000D01*
X87376000Y-62484000D02*
X88900000Y-62484000D01*
X82296000Y-91440000D02*
X80248000Y-93488000D01*
X80248000Y-93488000D02*
X77708000Y-93488000D01*
X72517000Y-98679000D02*
X72517000Y-100273000D01*
X77708000Y-93488000D02*
X72517000Y-98679000D01*
X72517000Y-100273000D02*
X69710000Y-103080000D01*
X78867000Y-95885000D02*
X80772000Y-93980000D01*
X76962000Y-95885000D02*
X78867000Y-95885000D01*
X74330000Y-95920000D02*
X69710000Y-100540000D01*
X80772000Y-93980000D02*
X82296000Y-93980000D01*
X74676000Y-98044000D02*
X77343000Y-98044000D01*
X71247000Y-98000000D02*
X69710000Y-98000000D01*
X77343000Y-98044000D02*
X77581000Y-98282000D01*
X77581000Y-98282000D02*
X80534000Y-98282000D01*
X80534000Y-98282000D02*
X82296000Y-96520000D01*
X93980000Y-102616000D02*
X94107000Y-102616000D01*
X89916000Y-106680000D02*
X93980000Y-102616000D01*
X99441000Y-85852000D02*
X99441000Y-91948000D01*
X99441000Y-91948000D02*
X94107000Y-97282000D01*
X109093000Y-64135000D02*
X107442000Y-62484000D01*
X109093000Y-68326000D02*
X109093000Y-64135000D01*
X94107000Y-97282000D02*
X94107000Y-97536000D01*
X109093000Y-68326000D02*
X106045000Y-71374000D01*
X95758000Y-82169000D02*
X99441000Y-85852000D01*
X117348000Y-67564000D02*
X119380000Y-69596000D01*
X115062000Y-67564000D02*
X117348000Y-67564000D01*
D32*
X141481000Y-66932000D02*
X140970000Y-66421000D01*
X141481000Y-72514000D02*
X141481000Y-66932000D01*
X130302000Y-79756000D02*
X130048000Y-80010000D01*
X139104000Y-73152000D02*
X139104000Y-76161000D01*
D36*
X141033500Y-63055500D02*
X141033500Y-66357500D01*
X141033500Y-66357500D02*
X140970000Y-66421000D01*
D32*
X134620000Y-79756000D02*
X130302000Y-79756000D01*
X140843000Y-73152000D02*
X141481000Y-72514000D01*
X144780000Y-58430000D02*
X144780000Y-60970000D01*
D36*
X138136000Y-60158000D02*
X141033500Y-63055500D01*
D32*
X139104000Y-73152000D02*
X140843000Y-73152000D01*
X139104000Y-76161000D02*
X139065000Y-76200000D01*
X144780000Y-60970000D02*
X144780000Y-63510000D01*
X144780000Y-55890000D02*
X144780000Y-58430000D01*
D36*
X138136000Y-59690000D02*
X138136000Y-60158000D01*
D33*
X108585000Y-125476000D02*
X116713000Y-133604000D01*
X108585000Y-125095000D02*
X108585000Y-125476000D01*
X93472000Y-113030000D02*
X83566000Y-113030000D01*
X121329000Y-133604000D02*
X121710000Y-133223000D01*
X116713000Y-133604000D02*
X121329000Y-133604000D01*
X83566000Y-113030000D02*
X82296000Y-114300000D01*
D32*
X142113000Y-90678000D02*
X142113000Y-92837000D01*
X113284000Y-113792000D02*
X94869000Y-132207000D01*
X142113000Y-92837000D02*
X121158000Y-113792000D01*
X121158000Y-113792000D02*
X113284000Y-113792000D01*
D33*
X139104000Y-69342000D02*
X139104000Y-70612000D01*
D32*
X105918000Y-80010000D02*
X105410000Y-80518000D01*
D33*
X111252000Y-72898000D02*
X114808000Y-76454000D01*
X138811000Y-69342000D02*
X137287000Y-67818000D01*
X139104000Y-69342000D02*
X138811000Y-69342000D01*
D32*
X129667000Y-71178190D02*
X129667000Y-68580000D01*
X114815750Y-85463250D02*
X111005750Y-81653250D01*
X114815750Y-85463250D02*
X115381940Y-85463250D01*
X131826000Y-66421000D02*
X135890000Y-66421000D01*
D33*
X111386750Y-81653250D02*
X111005750Y-81653250D01*
D32*
X117348000Y-89662000D02*
X117348000Y-87995500D01*
X117348000Y-87995500D02*
X114815750Y-85463250D01*
D33*
X114808000Y-78232000D02*
X111386750Y-81653250D01*
D32*
X105410000Y-80518000D02*
X105410000Y-89662000D01*
X135890000Y-66421000D02*
X137287000Y-67818000D01*
D33*
X114808000Y-76454000D02*
X114808000Y-78232000D01*
X111252000Y-51816000D02*
X111252000Y-72898000D01*
D32*
X109362500Y-80010000D02*
X105918000Y-80010000D01*
X115381940Y-85463250D02*
X129667000Y-71178190D01*
X111005750Y-81653250D02*
X109362500Y-80010000D01*
X129667000Y-68580000D02*
X131826000Y-66421000D01*
D33*
X86487000Y-110490000D02*
X85217000Y-109220000D01*
X85217000Y-109220000D02*
X82296000Y-109220000D01*
X96510500Y-101797000D02*
X96510500Y-104530500D01*
X113030000Y-101092000D02*
X117729000Y-101092000D01*
X96961500Y-101346000D02*
X96510500Y-101797000D01*
X111252000Y-99314000D02*
X113030000Y-101092000D01*
X105029000Y-101346000D02*
X107061000Y-99314000D01*
X98679000Y-101346000D02*
X96961500Y-101346000D01*
X125349000Y-95377000D02*
X125349000Y-79482420D01*
X132949420Y-71882000D02*
X133604000Y-71882000D01*
X125349000Y-79482420D02*
X132949420Y-71882000D01*
X96510500Y-104530500D02*
X90551000Y-110490000D01*
X103886000Y-101346000D02*
X105029000Y-101346000D01*
X90551000Y-110490000D02*
X86487000Y-110490000D01*
X107061000Y-99314000D02*
X111252000Y-99314000D01*
D35*
X74295000Y-104775000D02*
X78486000Y-104775000D01*
X74295000Y-99695000D02*
X78486000Y-99695000D01*
D33*
X76581000Y-87630000D02*
X78486000Y-89535000D01*
X74422000Y-87630000D02*
X76581000Y-87630000D01*
X88646000Y-100330000D02*
X82296000Y-106680000D01*
D34*
X109474000Y-74803000D02*
X109474000Y-77216000D01*
D33*
X90424000Y-100330000D02*
X88646000Y-100330000D01*
X98298000Y-85979000D02*
X98298000Y-91821000D01*
X91440000Y-98679000D02*
X91440000Y-99314000D01*
D34*
X108458000Y-73787000D02*
X109474000Y-74803000D01*
D33*
X91440000Y-99314000D02*
X90424000Y-100330000D01*
X98298000Y-91821000D02*
X91440000Y-98679000D01*
X77089000Y-86233000D02*
X79756000Y-88900000D01*
X71317000Y-86233000D02*
X77089000Y-86233000D01*
X69710000Y-87840000D02*
X71317000Y-86233000D01*
X79756000Y-88900000D02*
X82296000Y-88900000D01*
D35*
X78486000Y-92075000D02*
X80391000Y-90170000D01*
X80391000Y-90170000D02*
X88646000Y-90170000D01*
X88646000Y-90170000D02*
X89916000Y-88900000D01*
D33*
X89916000Y-86360000D02*
X84328000Y-86360000D01*
X67310000Y-68580000D02*
X67310000Y-52070000D01*
X75692000Y-81534000D02*
X75692000Y-71628000D01*
X68326000Y-54102000D02*
X76708000Y-54102000D01*
X76708000Y-54102000D02*
X77470000Y-53340000D01*
X76210000Y-71628000D02*
X75692000Y-71628000D01*
X76708000Y-54102000D02*
X77470000Y-54864000D01*
X96393000Y-50165000D02*
X96393000Y-61976000D01*
X82804000Y-84836000D02*
X78994000Y-84836000D01*
X78994000Y-84836000D02*
X75692000Y-81534000D01*
X106172000Y-63754000D02*
X107442000Y-65024000D01*
X77470000Y-54864000D02*
X83312000Y-54864000D01*
X76962000Y-70876000D02*
X76210000Y-71628000D01*
X84328000Y-86360000D02*
X82804000Y-84836000D01*
X68326000Y-54102000D02*
X67310000Y-53086000D01*
X96393000Y-61976000D02*
X98171000Y-63754000D01*
X98171000Y-63754000D02*
X106172000Y-63754000D01*
X77470000Y-53340000D02*
X77470000Y-52070000D01*
X75692000Y-71628000D02*
X70358000Y-71628000D01*
X74407000Y-67066000D02*
X75946000Y-67066000D01*
X76962000Y-68082000D02*
X76962000Y-70876000D01*
X70358000Y-71628000D02*
X67310000Y-68580000D01*
X67310000Y-53086000D02*
X67310000Y-52070000D01*
X75946000Y-67066000D02*
X76962000Y-68082000D01*
X92710000Y-49530000D02*
X81915000Y-49530000D01*
X92710000Y-49530000D02*
X92710000Y-51816000D01*
X114564000Y-52085000D02*
X111755000Y-49276000D01*
X92964000Y-49276000D02*
X92710000Y-49530000D01*
X111755000Y-49276000D02*
X92964000Y-49276000D01*
X99695000Y-46990000D02*
X98552000Y-48133000D01*
X99695000Y-45720000D02*
X99695000Y-46990000D01*
X101473000Y-47498000D02*
X99695000Y-45720000D01*
X112517000Y-47498000D02*
X101473000Y-47498000D01*
X117104000Y-52085000D02*
X112517000Y-47498000D01*
X113279000Y-45720000D02*
X119644000Y-52085000D01*
X104775000Y-45720000D02*
X102235000Y-45720000D01*
X104775000Y-45720000D02*
X113279000Y-45720000D01*
X94488000Y-53848000D02*
X78232000Y-53848000D01*
X95250000Y-51816000D02*
X95250000Y-53086000D01*
X72390000Y-52070000D02*
X74930000Y-52070000D01*
X95250000Y-53086000D02*
X94488000Y-53848000D01*
X90932000Y-69213060D02*
X93980000Y-72261060D01*
X93980000Y-72261060D02*
X93980000Y-74422000D01*
X93711000Y-60960000D02*
X92456000Y-60960000D01*
X93980000Y-74422000D02*
X102870000Y-83312000D01*
X93726000Y-55880000D02*
X93726000Y-60945000D01*
X92456000Y-60960000D02*
X91567000Y-61849000D01*
X102870000Y-83312000D02*
X102870000Y-89662000D01*
X93726000Y-60945000D02*
X93711000Y-60960000D01*
X90932000Y-65659000D02*
X90932000Y-69213060D01*
X114300000Y-87884000D02*
X114808000Y-88392000D01*
X114808000Y-88392000D02*
X114808000Y-89662000D01*
X122301000Y-72644000D02*
X123317000Y-71628000D01*
X127000000Y-56134000D02*
X127000000Y-60960000D01*
X123317000Y-71628000D02*
X123317000Y-64643000D01*
X114300000Y-87376000D02*
X114300000Y-87884000D01*
X123317000Y-64643000D02*
X127000000Y-60960000D01*
D34*
X95123000Y-70993000D02*
X93726000Y-69596000D01*
X95123000Y-74422000D02*
X95123000Y-70993000D01*
X100330000Y-84328000D02*
X95123000Y-79121000D01*
X98298000Y-94996000D02*
X100330000Y-92964000D01*
X100330000Y-92964000D02*
X100330000Y-84328000D01*
D33*
X93726000Y-69596000D02*
X93726000Y-66040000D01*
X127000000Y-69596000D02*
X127000000Y-66040000D01*
X122031000Y-74565000D02*
X122031000Y-75803000D01*
X122031000Y-75803000D02*
X122047000Y-75819000D01*
D34*
X109601000Y-102926000D02*
X109728000Y-103053000D01*
X114300000Y-100076000D02*
X116191083Y-100076000D01*
X109601000Y-101219000D02*
X109601000Y-102926000D01*
D33*
X122031000Y-74565000D02*
X127000000Y-69596000D01*
D34*
X122174000Y-92964000D02*
X121666000Y-93472000D01*
X116191083Y-100076000D02*
X117094000Y-99173083D01*
X122174000Y-81153000D02*
X122174000Y-92964000D01*
X110109000Y-100711000D02*
X109601000Y-101219000D01*
X117094000Y-99173083D02*
X117094000Y-94488000D01*
X117094000Y-94488000D02*
X117983000Y-93599000D01*
D33*
X121158000Y-58420000D02*
X120142000Y-58420000D01*
X122174000Y-60706000D02*
X122174000Y-59436000D01*
X115062000Y-62484000D02*
X120396000Y-62484000D01*
X120142000Y-58420000D02*
X119380000Y-57658000D01*
X122174000Y-59436000D02*
X121158000Y-58420000D01*
X120396000Y-62484000D02*
X122174000Y-60706000D01*
X119380000Y-57658000D02*
X119380000Y-56134000D01*
G04 #@! TA.AperFunction,Conductor*
G36*
X66317771Y-121926827D02*
G01*
X66354246Y-121946567D01*
X66424424Y-122001189D01*
X66458205Y-122019470D01*
X66506477Y-122065785D01*
X66524237Y-122130282D01*
X66506479Y-122194779D01*
X66458209Y-122241096D01*
X66424702Y-122259229D01*
X66247096Y-122397466D01*
X66094678Y-122563037D01*
X65971580Y-122751451D01*
X65881177Y-122957548D01*
X65833455Y-123145999D01*
X65833456Y-123146000D01*
X67298000Y-123146000D01*
X67361000Y-123162881D01*
X67407119Y-123209000D01*
X67424000Y-123272000D01*
X67424000Y-127274391D01*
X67504514Y-127260955D01*
X67717368Y-127187883D01*
X67915302Y-127080766D01*
X68092899Y-126942536D01*
X68154047Y-126876112D01*
X68207519Y-126841712D01*
X68270981Y-126837801D01*
X68328273Y-126865377D01*
X68364805Y-126917416D01*
X68409111Y-127036206D01*
X68496739Y-127153261D01*
X68529510Y-127177794D01*
X68566673Y-127222262D01*
X68580000Y-127278661D01*
X68580000Y-129058500D01*
X68563119Y-129121500D01*
X68517000Y-129167619D01*
X68454000Y-129184500D01*
X68376137Y-129184500D01*
X68325033Y-129188521D01*
X68184929Y-129199547D01*
X67936138Y-129259278D01*
X67699758Y-129357190D01*
X67481596Y-129490880D01*
X67287043Y-129657043D01*
X67120880Y-129851596D01*
X66987190Y-130069758D01*
X66889278Y-130306138D01*
X66829548Y-130554929D01*
X66817163Y-130712293D01*
X66809474Y-130810000D01*
X66829548Y-131065070D01*
X66889278Y-131313860D01*
X66987191Y-131550243D01*
X67120877Y-131768399D01*
X67120878Y-131768401D01*
X67120880Y-131768403D01*
X67287043Y-131962956D01*
X67481596Y-132129119D01*
X67481601Y-132129123D01*
X67699757Y-132262809D01*
X67936140Y-132360722D01*
X68106328Y-132401581D01*
X68184929Y-132420452D01*
X68216797Y-132422960D01*
X68376137Y-132435500D01*
X68503858Y-132435500D01*
X68503863Y-132435500D01*
X68695070Y-132420452D01*
X68943860Y-132360722D01*
X69180243Y-132262809D01*
X69398399Y-132129123D01*
X69592956Y-131962956D01*
X69759123Y-131768399D01*
X69892809Y-131550243D01*
X69990722Y-131313860D01*
X70050452Y-131065070D01*
X70061387Y-130926114D01*
X70081327Y-130867376D01*
X70126878Y-130825269D01*
X70187000Y-130810000D01*
X71120000Y-130810000D01*
X73789488Y-130810000D01*
X73830400Y-130816827D01*
X73960365Y-130861444D01*
X74182431Y-130898500D01*
X74407566Y-130898500D01*
X74407569Y-130898500D01*
X74629635Y-130861444D01*
X74759599Y-130816827D01*
X74800512Y-130810000D01*
X76329488Y-130810000D01*
X76370400Y-130816827D01*
X76500365Y-130861444D01*
X76722431Y-130898500D01*
X76947566Y-130898500D01*
X76947569Y-130898500D01*
X77169635Y-130861444D01*
X77299599Y-130816827D01*
X77340512Y-130810000D01*
X78869488Y-130810000D01*
X78910400Y-130816827D01*
X79040365Y-130861444D01*
X79262431Y-130898500D01*
X79487566Y-130898500D01*
X79487569Y-130898500D01*
X79709635Y-130861444D01*
X79839599Y-130816827D01*
X79880512Y-130810000D01*
X81063943Y-130810000D01*
X81126942Y-130826880D01*
X81266213Y-130907289D01*
X81493943Y-130993656D01*
X81732579Y-131042374D01*
X81975939Y-131052181D01*
X82217720Y-131022823D01*
X82451662Y-130955061D01*
X82671704Y-130850650D01*
X82698281Y-130832304D01*
X82732374Y-130815705D01*
X82769859Y-130810000D01*
X83949488Y-130810000D01*
X83990400Y-130816827D01*
X84120365Y-130861444D01*
X84342431Y-130898500D01*
X84567566Y-130898500D01*
X84567569Y-130898500D01*
X84789635Y-130861444D01*
X84919599Y-130816827D01*
X84960512Y-130810000D01*
X85815596Y-130810000D01*
X85855386Y-130816448D01*
X85891104Y-130835131D01*
X85898796Y-130840889D01*
X86035799Y-130891989D01*
X86096362Y-130898500D01*
X87893638Y-130898500D01*
X87954201Y-130891989D01*
X88091204Y-130840889D01*
X88098895Y-130835131D01*
X88134614Y-130816448D01*
X88174404Y-130810000D01*
X89693000Y-130810000D01*
X89753122Y-130825269D01*
X89798673Y-130867376D01*
X89818612Y-130926114D01*
X89829548Y-131065070D01*
X89889278Y-131313860D01*
X89987191Y-131550243D01*
X90120877Y-131768399D01*
X90120878Y-131768401D01*
X90120880Y-131768403D01*
X90287043Y-131962956D01*
X90481596Y-132129119D01*
X90481601Y-132129123D01*
X90699757Y-132262809D01*
X90936140Y-132360722D01*
X91106328Y-132401581D01*
X91184929Y-132420452D01*
X91216797Y-132422960D01*
X91376137Y-132435500D01*
X91503858Y-132435500D01*
X91503863Y-132435500D01*
X91695070Y-132420452D01*
X91943860Y-132360722D01*
X92180243Y-132262809D01*
X92398399Y-132129123D01*
X92592956Y-131962956D01*
X92759123Y-131768399D01*
X92892809Y-131550243D01*
X92990722Y-131313860D01*
X93050452Y-131065070D01*
X93061387Y-130926114D01*
X93081327Y-130867376D01*
X93126878Y-130825269D01*
X93187000Y-130810000D01*
X96394000Y-130810000D01*
X96457000Y-130826881D01*
X96503119Y-130873000D01*
X96520000Y-130936000D01*
X96520000Y-134494000D01*
X96503119Y-134557000D01*
X96457000Y-134603119D01*
X96394000Y-134620000D01*
X64896000Y-134620000D01*
X64833000Y-134603119D01*
X64786881Y-134557000D01*
X64770000Y-134494000D01*
X64770000Y-126194000D01*
X65833455Y-126194000D01*
X65881177Y-126382451D01*
X65971580Y-126588548D01*
X66094678Y-126776962D01*
X66247096Y-126942533D01*
X66424697Y-127080766D01*
X66622631Y-127187883D01*
X66835485Y-127260955D01*
X66916000Y-127274391D01*
X66916000Y-126194000D01*
X65833455Y-126194000D01*
X64770000Y-126194000D01*
X64770000Y-123654000D01*
X65833455Y-123654000D01*
X65881177Y-123842451D01*
X65971580Y-124048548D01*
X66094678Y-124236962D01*
X66247096Y-124402533D01*
X66424697Y-124540766D01*
X66458734Y-124559186D01*
X66507005Y-124605503D01*
X66524764Y-124670000D01*
X66507005Y-124734497D01*
X66458734Y-124780814D01*
X66424697Y-124799233D01*
X66247096Y-124937466D01*
X66094678Y-125103037D01*
X65971580Y-125291451D01*
X65881177Y-125497548D01*
X65833455Y-125685999D01*
X65833456Y-125686000D01*
X66916000Y-125686000D01*
X66916000Y-123654000D01*
X65833455Y-123654000D01*
X64770000Y-123654000D01*
X64770000Y-122046000D01*
X64786881Y-121983000D01*
X64833000Y-121936881D01*
X64896000Y-121920000D01*
X66276858Y-121920000D01*
X66317771Y-121926827D01*
G37*
G04 #@! TD.AperFunction*
M02*
