G04 #@! TF.GenerationSoftware,KiCad,Pcbnew,7.0.1*
G04 #@! TF.CreationDate,2023-11-10T14:13:51-08:00*
G04 #@! TF.ProjectId,AtInverter_v1,4174496e-7665-4727-9465-725f76312e6b,v1*
G04 #@! TF.SameCoordinates,Original*
G04 #@! TF.FileFunction,Soldermask,Bot*
G04 #@! TF.FilePolarity,Negative*
%FSLAX46Y46*%
G04 Gerber Fmt 4.6, Leading zero omitted, Abs format (unit mm)*
G04 Created by KiCad (PCBNEW 7.0.1) date 2023-11-10 14:13:51*
%MOMM*%
%LPD*%
G01*
G04 APERTURE LIST*
%ADD10C,1.371600*%
%ADD11R,1.700000X1.700000*%
%ADD12C,1.600000*%
%ADD13O,1.600000X1.600000*%
%ADD14C,2.565400*%
%ADD15R,1.905000X2.000000*%
%ADD16O,1.905000X2.000000*%
%ADD17O,1.700000X1.700000*%
%ADD18R,1.600000X1.600000*%
%ADD19C,2.100000*%
%ADD20R,1.600000X2.400000*%
%ADD21O,1.600000X2.400000*%
%ADD22R,2.400000X1.600000*%
%ADD23O,2.400000X1.600000*%
%ADD24C,1.500000*%
%ADD25R,2.500000X2.500000*%
%ADD26C,2.500000*%
%ADD27R,2.000000X1.905000*%
%ADD28O,2.000000X1.905000*%
G04 APERTURE END LIST*
D10*
X70851000Y-63042000D03*
X70851000Y-68042000D03*
D11*
X117094000Y-116332000D03*
D12*
X74295000Y-107950000D03*
D13*
X74295000Y-115570000D03*
D14*
X138430000Y-106172000D03*
X119380000Y-106172000D03*
D15*
X114808000Y-89662000D03*
D16*
X117348000Y-89662000D03*
X119888000Y-89662000D03*
D13*
X127254000Y-69596000D03*
D12*
X119634000Y-69596000D03*
D11*
X131318000Y-120396000D03*
X144780000Y-68590000D03*
D17*
X144780000Y-71130000D03*
X144780000Y-73670000D03*
X144780000Y-76210000D03*
D18*
X115062000Y-56388000D03*
D13*
X107442000Y-56388000D03*
D11*
X127000000Y-66040000D03*
D10*
X103901000Y-61000000D03*
X103901000Y-66000000D03*
D18*
X89916000Y-119380000D03*
D13*
X89916000Y-116840000D03*
X89916000Y-114300000D03*
X89916000Y-111760000D03*
X89916000Y-109220000D03*
X89916000Y-106680000D03*
X89916000Y-104140000D03*
X89916000Y-101600000D03*
X89916000Y-99060000D03*
X89916000Y-96520000D03*
X89916000Y-93980000D03*
X89916000Y-91440000D03*
X89916000Y-88900000D03*
X89916000Y-86360000D03*
X82296000Y-86360000D03*
X82296000Y-88900000D03*
X82296000Y-91440000D03*
X82296000Y-93980000D03*
X82296000Y-96520000D03*
X82296000Y-99060000D03*
X82296000Y-101600000D03*
X82296000Y-104140000D03*
X82296000Y-106680000D03*
X82296000Y-109220000D03*
X82296000Y-111760000D03*
X82296000Y-114300000D03*
X82296000Y-116840000D03*
X82296000Y-119380000D03*
D12*
X74295000Y-124460000D03*
X74295000Y-119460000D03*
D18*
X78486000Y-107315000D03*
D13*
X78486000Y-104775000D03*
X78486000Y-102235000D03*
X78486000Y-99695000D03*
X78486000Y-97155000D03*
X78486000Y-94615000D03*
X78486000Y-92075000D03*
X78486000Y-89535000D03*
X120904000Y-77216000D03*
D12*
X113284000Y-77216000D03*
D19*
X74295000Y-104775000D03*
X74295000Y-102235000D03*
X74295000Y-99695000D03*
D15*
X109728000Y-103053000D03*
D16*
X112268000Y-103053000D03*
X114808000Y-103053000D03*
D20*
X67310000Y-52070000D03*
D21*
X69850000Y-52070000D03*
X72390000Y-52070000D03*
X74930000Y-52070000D03*
X77470000Y-52070000D03*
X80010000Y-52070000D03*
X82550000Y-52070000D03*
X82550000Y-44450000D03*
X80010000Y-44450000D03*
X77470000Y-44450000D03*
X74930000Y-44450000D03*
X72390000Y-44450000D03*
X69850000Y-44450000D03*
X67310000Y-44450000D03*
D19*
X74422000Y-92710000D03*
X74422000Y-90170000D03*
X74422000Y-87630000D03*
D15*
X97790000Y-103124000D03*
D16*
X100330000Y-103124000D03*
X102870000Y-103124000D03*
D11*
X93726000Y-66040000D03*
D12*
X86106000Y-69596000D03*
D13*
X93726000Y-69596000D03*
D12*
X83820000Y-81494000D03*
X83820000Y-76494000D03*
D11*
X139573000Y-90678000D03*
D17*
X139573000Y-88138000D03*
X142113000Y-90678000D03*
X142113000Y-88138000D03*
X144653000Y-90678000D03*
X144653000Y-88138000D03*
D20*
X114564000Y-52085000D03*
D21*
X117104000Y-52085000D03*
X119644000Y-52085000D03*
X122184000Y-52085000D03*
X122184000Y-44465000D03*
X119644000Y-44465000D03*
X117104000Y-44465000D03*
X114564000Y-44465000D03*
D13*
X127000000Y-56134000D03*
D12*
X119380000Y-56134000D03*
D22*
X107442000Y-59944000D03*
D23*
X107442000Y-62484000D03*
X107442000Y-65024000D03*
X107442000Y-67564000D03*
X115062000Y-67564000D03*
X115062000Y-65024000D03*
X115062000Y-62484000D03*
X115062000Y-59944000D03*
D12*
X103632000Y-51816000D03*
D13*
X111252000Y-51816000D03*
D24*
X95758000Y-90130000D03*
X95758000Y-85130000D03*
D13*
X104775000Y-45720000D03*
X102235000Y-45720000D03*
X99695000Y-45720000D03*
X97155000Y-45720000D03*
X94615000Y-45720000D03*
D18*
X92075000Y-45720000D03*
D11*
X113792000Y-108966000D03*
D12*
X132548000Y-91186000D03*
X127548000Y-91186000D03*
D11*
X142494000Y-82550000D03*
D18*
X82027000Y-58430000D03*
D13*
X74407000Y-58430000D03*
D10*
X124968000Y-123190000D03*
X119968000Y-123190000D03*
D14*
X112776000Y-117856000D03*
X93726000Y-117856000D03*
D10*
X138129000Y-118110000D03*
X143129000Y-118110000D03*
D22*
X74407000Y-61986000D03*
D23*
X74407000Y-64526000D03*
X74407000Y-67066000D03*
X74407000Y-69606000D03*
X82027000Y-69606000D03*
X82027000Y-67066000D03*
X82027000Y-64526000D03*
X82027000Y-61986000D03*
D12*
X86106000Y-55880000D03*
D13*
X93726000Y-55880000D03*
D25*
X138136000Y-59690000D03*
D26*
X133136000Y-59690000D03*
D11*
X144526000Y-103632000D03*
D17*
X144526000Y-106172000D03*
X144526000Y-108712000D03*
D12*
X87361000Y-59984000D03*
X87361000Y-64984000D03*
X120396000Y-59984000D03*
X120396000Y-64984000D03*
D11*
X111506000Y-94742000D03*
X86995000Y-129540000D03*
D17*
X84455000Y-129540000D03*
X81915000Y-129540000D03*
X79375000Y-129540000D03*
X76835000Y-129540000D03*
X74295000Y-129540000D03*
D11*
X143510000Y-125730000D03*
D17*
X143510000Y-128270000D03*
X143510000Y-130810000D03*
X143510000Y-133350000D03*
D11*
X93711000Y-60960000D03*
X102870000Y-132842000D03*
D17*
X105410000Y-132842000D03*
X107950000Y-132842000D03*
X110490000Y-132842000D03*
D11*
X144780000Y-55890000D03*
D17*
X144780000Y-58430000D03*
X144780000Y-60970000D03*
X144780000Y-63510000D03*
D15*
X102870000Y-89662000D03*
D16*
X105410000Y-89662000D03*
X107950000Y-89662000D03*
D27*
X130048000Y-80010000D03*
D28*
X130048000Y-82550000D03*
X130048000Y-85090000D03*
D25*
X131906000Y-128524000D03*
D26*
X136906000Y-128524000D03*
D18*
X100330000Y-51816000D03*
D13*
X97790000Y-51816000D03*
X95250000Y-51816000D03*
X92710000Y-51816000D03*
X90170000Y-51816000D03*
X87630000Y-51816000D03*
D11*
X127000000Y-60960000D03*
D12*
X88900000Y-76494000D03*
X88900000Y-81494000D03*
D11*
X74168000Y-83820000D03*
D13*
X109474000Y-77216000D03*
D12*
X101854000Y-77216000D03*
D11*
X69710000Y-125940000D03*
D17*
X67170000Y-125940000D03*
X69710000Y-123400000D03*
X67170000Y-123400000D03*
X69710000Y-120860000D03*
X67170000Y-120860000D03*
X69710000Y-118320000D03*
X67170000Y-118320000D03*
X69710000Y-115780000D03*
X67170000Y-115780000D03*
X69710000Y-113240000D03*
X67170000Y-113240000D03*
X69710000Y-110700000D03*
X67170000Y-110700000D03*
X69710000Y-108160000D03*
X67170000Y-108160000D03*
X69710000Y-105620000D03*
X67170000Y-105620000D03*
X69710000Y-103080000D03*
X67170000Y-103080000D03*
X69710000Y-100540000D03*
X67170000Y-100540000D03*
X69710000Y-98000000D03*
X67170000Y-98000000D03*
X69710000Y-95460000D03*
X67170000Y-95460000D03*
X69710000Y-92920000D03*
X67170000Y-92920000D03*
X69710000Y-90380000D03*
X67170000Y-90380000D03*
X69710000Y-87840000D03*
X67170000Y-87840000D03*
X69710000Y-85300000D03*
X67170000Y-85300000D03*
X69710000Y-82760000D03*
X67170000Y-82760000D03*
X69710000Y-80220000D03*
X67170000Y-80220000D03*
X69710000Y-77680000D03*
X67170000Y-77680000D03*
M02*
