M48
; DRILL file {KiCad 7.0.1} date Fri Nov 10 14:14:18 2023
; FORMAT={-:-/ absolute / metric / decimal}
; #@! TF.CreationDate,2023-11-10T14:14:18-08:00
; #@! TF.GenerationSoftware,Kicad,Pcbnew,7.0.1
; #@! TF.FileFunction,Plated,1,2,PTH
FMAT,2
METRIC
; #@! TA.AperFunction,Plated,PTH,ViaDrill
T1C0.300
; #@! TA.AperFunction,Plated,PTH,ComponentDrill
T2C0.800
; #@! TA.AperFunction,Plated,PTH,ComponentDrill
T3C0.864
; #@! TA.AperFunction,Plated,PTH,ComponentDrill
T4C1.000
; #@! TA.AperFunction,Plated,PTH,ComponentDrill
T5C1.100
; #@! TA.AperFunction,Plated,PTH,ComponentDrill
T6C1.300
; #@! TA.AperFunction,Plated,PTH,ComponentDrill
T7C2.057
%
G90
G05
T1
X68.707Y-57.15
X71.247Y-98.0
X74.33Y-95.92
X74.676Y-98.044
X76.962Y-95.885
X78.232Y-53.848
X80.518Y-103.886
X81.407Y-123.063
X81.915Y-49.53
X83.312Y-54.864
X83.82Y-120.65
X83.947Y-123.063
X86.106Y-120.904
X90.932Y-65.659
X91.567Y-61.849
X93.472Y-113.03
X94.107Y-97.536
X94.107Y-102.616
X95.123Y-74.422
X95.123Y-79.121
X95.758Y-82.169
X96.393Y-50.165
X98.298Y-85.979
X98.298Y-94.996
X98.552Y-48.133
X98.679Y-101.346
X98.806Y-98.171
X101.219Y-94.615
X102.616Y-96.52
X103.886Y-101.346
X106.045Y-71.374
X106.807Y-77.47
X107.442Y-51.308
X107.823Y-82.042
X108.458Y-73.787
X108.585Y-125.095
X108.966Y-97.663
X109.855Y-56.515
X110.109Y-100.711
X112.395Y-56.515
X114.3Y-82.042
X114.3Y-87.376
X114.3Y-100.076
X114.935Y-97.663
X117.729Y-101.092
X117.856Y-80.01
X117.983Y-93.599
X118.745Y-120.65
X119.57Y-74.676
X119.761Y-83.947
X121.666Y-93.472
X122.047Y-75.819
X122.174Y-81.153
X122.301Y-72.644
X122.555Y-116.84
X123.19Y-97.663
X123.952Y-130.556
X125.349Y-95.377
X127.0Y-100.965
X129.794Y-126.492
X130.81Y-107.95
X131.445Y-69.85
X134.62Y-79.756
X135.255Y-64.77
X136.525Y-69.85
X136.652Y-124.46
X139.065Y-76.2
T2
X67.31Y-44.45
X67.31Y-52.07
X69.85Y-44.45
X69.85Y-52.07
X72.39Y-44.45
X72.39Y-52.07
X74.295Y-107.95
X74.295Y-115.57
X74.295Y-119.46
X74.295Y-124.46
X74.407Y-58.43
X74.407Y-61.986
X74.407Y-64.526
X74.407Y-67.066
X74.407Y-69.606
X74.93Y-44.45
X74.93Y-52.07
X77.47Y-44.45
X77.47Y-52.07
X78.486Y-89.535
X78.486Y-92.075
X78.486Y-94.615
X78.486Y-97.155
X78.486Y-99.695
X78.486Y-102.235
X78.486Y-104.775
X78.486Y-107.315
X80.01Y-44.45
X80.01Y-52.07
X82.027Y-58.43
X82.027Y-61.986
X82.027Y-64.526
X82.027Y-67.066
X82.027Y-69.606
X82.296Y-86.36
X82.296Y-88.9
X82.296Y-91.44
X82.296Y-93.98
X82.296Y-96.52
X82.296Y-99.06
X82.296Y-101.6
X82.296Y-104.14
X82.296Y-106.68
X82.296Y-109.22
X82.296Y-111.76
X82.296Y-114.3
X82.296Y-116.84
X82.296Y-119.38
X82.55Y-44.45
X82.55Y-52.07
X83.82Y-76.494
X83.82Y-81.494
X86.106Y-55.88
X86.106Y-69.596
X87.361Y-59.984
X87.361Y-64.984
X87.63Y-51.816
X88.9Y-76.494
X88.9Y-81.494
X89.916Y-86.36
X89.916Y-88.9
X89.916Y-91.44
X89.916Y-93.98
X89.916Y-96.52
X89.916Y-99.06
X89.916Y-101.6
X89.916Y-104.14
X89.916Y-106.68
X89.916Y-109.22
X89.916Y-111.76
X89.916Y-114.3
X89.916Y-116.84
X89.916Y-119.38
X90.17Y-51.816
X92.075Y-45.72
X92.71Y-51.816
X93.726Y-55.88
X93.726Y-69.596
X94.615Y-45.72
X95.25Y-51.816
X95.758Y-85.13
X95.758Y-90.13
X97.155Y-45.72
X97.79Y-51.816
X99.695Y-45.72
X100.33Y-51.816
X101.854Y-77.216
X102.235Y-45.72
X103.632Y-51.816
X104.775Y-45.72
X107.442Y-56.388
X107.442Y-59.944
X107.442Y-62.484
X107.442Y-65.024
X107.442Y-67.564
X109.474Y-77.216
X111.252Y-51.816
X113.284Y-77.216
X114.564Y-44.465
X114.564Y-52.085
X115.062Y-56.388
X115.062Y-59.944
X115.062Y-62.484
X115.062Y-65.024
X115.062Y-67.564
X117.104Y-44.465
X117.104Y-52.085
X119.38Y-56.134
X119.634Y-69.596
X119.644Y-44.465
X119.644Y-52.085
X120.396Y-59.984
X120.396Y-64.984
X120.904Y-77.216
X122.184Y-44.465
X122.184Y-52.085
X127.0Y-56.134
X127.254Y-69.596
X127.548Y-91.186
X132.548Y-91.186
T3
X70.851Y-63.042
X70.851Y-68.042
X103.901Y-61.0
X103.901Y-66.0
X119.968Y-123.19
X124.968Y-123.19
X138.129Y-118.11
X143.129Y-118.11
T4
X67.17Y-77.68
X67.17Y-80.22
X67.17Y-82.76
X67.17Y-85.3
X67.17Y-87.84
X67.17Y-90.38
X67.17Y-92.92
X67.17Y-95.46
X67.17Y-98.0
X67.17Y-100.54
X67.17Y-103.08
X67.17Y-105.62
X67.17Y-108.16
X67.17Y-110.7
X67.17Y-113.24
X67.17Y-115.78
X67.17Y-118.32
X67.17Y-120.86
X67.17Y-123.4
X67.17Y-125.94
X69.71Y-77.68
X69.71Y-80.22
X69.71Y-82.76
X69.71Y-85.3
X69.71Y-87.84
X69.71Y-90.38
X69.71Y-92.92
X69.71Y-95.46
X69.71Y-98.0
X69.71Y-100.54
X69.71Y-103.08
X69.71Y-105.62
X69.71Y-108.16
X69.71Y-110.7
X69.71Y-113.24
X69.71Y-115.78
X69.71Y-118.32
X69.71Y-120.86
X69.71Y-123.4
X69.71Y-125.94
X74.168Y-83.82
X74.295Y-129.54
X76.835Y-129.54
X79.375Y-129.54
X81.915Y-129.54
X84.455Y-129.54
X86.995Y-129.54
X93.711Y-60.96
X93.726Y-66.04
X102.87Y-132.842
X105.41Y-132.842
X107.95Y-132.842
X110.49Y-132.842
X111.506Y-94.742
X113.792Y-108.966
X117.094Y-116.332
X127.0Y-60.96
X127.0Y-66.04
X131.318Y-120.396
X139.573Y-88.138
X139.573Y-90.678
X142.113Y-88.138
X142.113Y-90.678
X142.494Y-82.55
X143.51Y-125.73
X143.51Y-128.27
X143.51Y-130.81
X143.51Y-133.35
X144.526Y-103.632
X144.526Y-106.172
X144.526Y-108.712
X144.653Y-88.138
X144.653Y-90.678
X144.78Y-55.89
X144.78Y-58.43
X144.78Y-60.97
X144.78Y-63.51
X144.78Y-68.59
X144.78Y-71.13
X144.78Y-73.67
X144.78Y-76.21
T5
X74.295Y-99.695
X74.295Y-102.235
X74.295Y-104.775
X74.422Y-87.63
X74.422Y-90.17
X74.422Y-92.71
X97.79Y-103.124
X100.33Y-103.124
X102.87Y-89.662
X102.87Y-103.124
X105.41Y-89.662
X107.95Y-89.662
X109.728Y-103.053
X112.268Y-103.053
X114.808Y-89.662
X114.808Y-103.053
X117.348Y-89.662
X119.888Y-89.662
X130.048Y-80.01
X130.048Y-82.55
X130.048Y-85.09
T6
X131.906Y-128.524
X133.136Y-59.69
X136.906Y-128.524
X138.136Y-59.69
T7
X93.726Y-117.856
X112.776Y-117.856
X119.38Y-106.172
X138.43Y-106.172
T0
M30
