G04 #@! TF.GenerationSoftware,KiCad,Pcbnew,7.0.1*
G04 #@! TF.CreationDate,2023-11-10T14:13:51-08:00*
G04 #@! TF.ProjectId,AtInverter_v1,4174496e-7665-4727-9465-725f76312e6b,v1*
G04 #@! TF.SameCoordinates,Original*
G04 #@! TF.FileFunction,Legend,Bot*
G04 #@! TF.FilePolarity,Positive*
%FSLAX46Y46*%
G04 Gerber Fmt 4.6, Leading zero omitted, Abs format (unit mm)*
G04 Created by KiCad (PCBNEW 7.0.1) date 2023-11-10 14:13:51*
%MOMM*%
%LPD*%
G01*
G04 APERTURE LIST*
%ADD10C,0.150000*%
%ADD11C,0.120000*%
%ADD12C,1.371600*%
%ADD13R,1.700000X1.700000*%
%ADD14C,1.600000*%
%ADD15O,1.600000X1.600000*%
%ADD16C,2.565400*%
%ADD17R,1.905000X2.000000*%
%ADD18O,1.905000X2.000000*%
%ADD19O,1.700000X1.700000*%
%ADD20R,1.600000X1.600000*%
%ADD21C,2.100000*%
%ADD22R,1.600000X2.400000*%
%ADD23O,1.600000X2.400000*%
%ADD24R,2.400000X1.600000*%
%ADD25O,2.400000X1.600000*%
%ADD26C,1.500000*%
%ADD27R,2.500000X2.500000*%
%ADD28C,2.500000*%
%ADD29R,2.000000X1.905000*%
%ADD30O,2.000000X1.905000*%
G04 APERTURE END LIST*
D10*
X64724619Y-97071904D02*
X63724619Y-97071904D01*
X63724619Y-97071904D02*
X63724619Y-97452856D01*
X63724619Y-97452856D02*
X63772238Y-97548094D01*
X63772238Y-97548094D02*
X63819857Y-97595713D01*
X63819857Y-97595713D02*
X63915095Y-97643332D01*
X63915095Y-97643332D02*
X64057952Y-97643332D01*
X64057952Y-97643332D02*
X64153190Y-97595713D01*
X64153190Y-97595713D02*
X64200809Y-97548094D01*
X64200809Y-97548094D02*
X64248428Y-97452856D01*
X64248428Y-97452856D02*
X64248428Y-97071904D01*
X64724619Y-98071904D02*
X64057952Y-98071904D01*
X63724619Y-98071904D02*
X63772238Y-98024285D01*
X63772238Y-98024285D02*
X63819857Y-98071904D01*
X63819857Y-98071904D02*
X63772238Y-98119523D01*
X63772238Y-98119523D02*
X63724619Y-98071904D01*
X63724619Y-98071904D02*
X63819857Y-98071904D01*
X64629380Y-99119522D02*
X64677000Y-99071903D01*
X64677000Y-99071903D02*
X64724619Y-98929046D01*
X64724619Y-98929046D02*
X64724619Y-98833808D01*
X64724619Y-98833808D02*
X64677000Y-98690951D01*
X64677000Y-98690951D02*
X64581761Y-98595713D01*
X64581761Y-98595713D02*
X64486523Y-98548094D01*
X64486523Y-98548094D02*
X64296047Y-98500475D01*
X64296047Y-98500475D02*
X64153190Y-98500475D01*
X64153190Y-98500475D02*
X63962714Y-98548094D01*
X63962714Y-98548094D02*
X63867476Y-98595713D01*
X63867476Y-98595713D02*
X63772238Y-98690951D01*
X63772238Y-98690951D02*
X63724619Y-98833808D01*
X63724619Y-98833808D02*
X63724619Y-98929046D01*
X63724619Y-98929046D02*
X63772238Y-99071903D01*
X63772238Y-99071903D02*
X63819857Y-99119522D01*
X64724619Y-99690951D02*
X64677000Y-99595713D01*
X64677000Y-99595713D02*
X64629380Y-99548094D01*
X64629380Y-99548094D02*
X64534142Y-99500475D01*
X64534142Y-99500475D02*
X64248428Y-99500475D01*
X64248428Y-99500475D02*
X64153190Y-99548094D01*
X64153190Y-99548094D02*
X64105571Y-99595713D01*
X64105571Y-99595713D02*
X64057952Y-99690951D01*
X64057952Y-99690951D02*
X64057952Y-99833808D01*
X64057952Y-99833808D02*
X64105571Y-99929046D01*
X64105571Y-99929046D02*
X64153190Y-99976665D01*
X64153190Y-99976665D02*
X64248428Y-100024284D01*
X64248428Y-100024284D02*
X64534142Y-100024284D01*
X64534142Y-100024284D02*
X64629380Y-99976665D01*
X64629380Y-99976665D02*
X64677000Y-99929046D01*
X64677000Y-99929046D02*
X64724619Y-99833808D01*
X64724619Y-99833808D02*
X64724619Y-99690951D01*
X64057952Y-100452856D02*
X64724619Y-100452856D01*
X64153190Y-100452856D02*
X64105571Y-100500475D01*
X64105571Y-100500475D02*
X64057952Y-100595713D01*
X64057952Y-100595713D02*
X64057952Y-100738570D01*
X64057952Y-100738570D02*
X64105571Y-100833808D01*
X64105571Y-100833808D02*
X64200809Y-100881427D01*
X64200809Y-100881427D02*
X64724619Y-100881427D01*
X64057952Y-101357618D02*
X64724619Y-101357618D01*
X64153190Y-101357618D02*
X64105571Y-101405237D01*
X64105571Y-101405237D02*
X64057952Y-101500475D01*
X64057952Y-101500475D02*
X64057952Y-101643332D01*
X64057952Y-101643332D02*
X64105571Y-101738570D01*
X64105571Y-101738570D02*
X64200809Y-101786189D01*
X64200809Y-101786189D02*
X64724619Y-101786189D01*
X64677000Y-102643332D02*
X64724619Y-102548094D01*
X64724619Y-102548094D02*
X64724619Y-102357618D01*
X64724619Y-102357618D02*
X64677000Y-102262380D01*
X64677000Y-102262380D02*
X64581761Y-102214761D01*
X64581761Y-102214761D02*
X64200809Y-102214761D01*
X64200809Y-102214761D02*
X64105571Y-102262380D01*
X64105571Y-102262380D02*
X64057952Y-102357618D01*
X64057952Y-102357618D02*
X64057952Y-102548094D01*
X64057952Y-102548094D02*
X64105571Y-102643332D01*
X64105571Y-102643332D02*
X64200809Y-102690951D01*
X64200809Y-102690951D02*
X64296047Y-102690951D01*
X64296047Y-102690951D02*
X64391285Y-102214761D01*
X64677000Y-103548094D02*
X64724619Y-103452856D01*
X64724619Y-103452856D02*
X64724619Y-103262380D01*
X64724619Y-103262380D02*
X64677000Y-103167142D01*
X64677000Y-103167142D02*
X64629380Y-103119523D01*
X64629380Y-103119523D02*
X64534142Y-103071904D01*
X64534142Y-103071904D02*
X64248428Y-103071904D01*
X64248428Y-103071904D02*
X64153190Y-103119523D01*
X64153190Y-103119523D02*
X64105571Y-103167142D01*
X64105571Y-103167142D02*
X64057952Y-103262380D01*
X64057952Y-103262380D02*
X64057952Y-103452856D01*
X64057952Y-103452856D02*
X64105571Y-103548094D01*
X64057952Y-103833809D02*
X64057952Y-104214761D01*
X63724619Y-103976666D02*
X64581761Y-103976666D01*
X64581761Y-103976666D02*
X64677000Y-104024285D01*
X64677000Y-104024285D02*
X64724619Y-104119523D01*
X64724619Y-104119523D02*
X64724619Y-104214761D01*
X64724619Y-104690952D02*
X64677000Y-104595714D01*
X64677000Y-104595714D02*
X64629380Y-104548095D01*
X64629380Y-104548095D02*
X64534142Y-104500476D01*
X64534142Y-104500476D02*
X64248428Y-104500476D01*
X64248428Y-104500476D02*
X64153190Y-104548095D01*
X64153190Y-104548095D02*
X64105571Y-104595714D01*
X64105571Y-104595714D02*
X64057952Y-104690952D01*
X64057952Y-104690952D02*
X64057952Y-104833809D01*
X64057952Y-104833809D02*
X64105571Y-104929047D01*
X64105571Y-104929047D02*
X64153190Y-104976666D01*
X64153190Y-104976666D02*
X64248428Y-105024285D01*
X64248428Y-105024285D02*
X64534142Y-105024285D01*
X64534142Y-105024285D02*
X64629380Y-104976666D01*
X64629380Y-104976666D02*
X64677000Y-104929047D01*
X64677000Y-104929047D02*
X64724619Y-104833809D01*
X64724619Y-104833809D02*
X64724619Y-104690952D01*
X64724619Y-105452857D02*
X64057952Y-105452857D01*
X64248428Y-105452857D02*
X64153190Y-105500476D01*
X64153190Y-105500476D02*
X64105571Y-105548095D01*
X64105571Y-105548095D02*
X64057952Y-105643333D01*
X64057952Y-105643333D02*
X64057952Y-105738571D01*
X64724619Y-106595714D02*
X64724619Y-106024286D01*
X64724619Y-106310000D02*
X63724619Y-106310000D01*
X63724619Y-106310000D02*
X63867476Y-106214762D01*
X63867476Y-106214762D02*
X63962714Y-106119524D01*
X63962714Y-106119524D02*
X64010333Y-106024286D01*
D11*
X64880000Y-72310000D02*
X64880000Y-131310000D01*
X65840000Y-76350000D02*
X71040000Y-76350000D01*
X65840000Y-127270000D02*
X65840000Y-76350000D01*
X65840000Y-127270000D02*
X68440000Y-127270000D01*
X67940000Y-134370000D02*
X91940000Y-134370000D01*
X68440000Y-124670000D02*
X71040000Y-124670000D01*
X68440000Y-127270000D02*
X68440000Y-124670000D01*
X69710000Y-127270000D02*
X71040000Y-127270000D01*
X71040000Y-124670000D02*
X71040000Y-76350000D01*
X71040000Y-127270000D02*
X71040000Y-125940000D01*
X71380000Y-68050000D02*
X88500000Y-68050000D01*
X71380000Y-69250000D02*
X67940000Y-69250000D01*
X71380000Y-69250000D02*
X71380000Y-68050000D01*
X88500000Y-68050000D02*
X88500000Y-69250000D01*
X88500000Y-69250000D02*
X91940000Y-69250000D01*
X95000000Y-72310000D02*
X95000000Y-76250000D01*
X95000000Y-76250000D02*
X96800000Y-76250000D01*
X95000000Y-84370000D02*
X95000000Y-88850000D01*
X95000000Y-88850000D02*
X96800000Y-88850000D01*
X95000000Y-96970000D02*
X95000000Y-116200000D01*
X95000000Y-116200000D02*
X95700000Y-116200000D01*
X95000000Y-127620000D02*
X95000000Y-131310000D01*
X95700000Y-116200000D02*
X95700000Y-127620000D01*
X95700000Y-127620000D02*
X95000000Y-127620000D01*
X96800000Y-76250000D02*
X96800000Y-84370000D01*
X96800000Y-84370000D02*
X95000000Y-84370000D01*
X96800000Y-88850000D02*
X96800000Y-96970000D01*
X96800000Y-96970000D02*
X95000000Y-96970000D01*
X67940000Y-69250000D02*
G75*
G03*
X64880000Y-72310000I-1J-3059999D01*
G01*
X64880000Y-131310000D02*
G75*
G03*
X67940000Y-134370000I3059999J-1D01*
G01*
X95000000Y-72310000D02*
G75*
G03*
X91940000Y-69250000I-3060000J0D01*
G01*
X91940000Y-134370000D02*
G75*
G03*
X95000000Y-131310000I0J3060000D01*
G01*
%LPC*%
D12*
X70851000Y-63042000D03*
X70851000Y-68042000D03*
D13*
X117094000Y-116332000D03*
D14*
X74295000Y-107950000D03*
D15*
X74295000Y-115570000D03*
D16*
X138430000Y-106172000D03*
X119380000Y-106172000D03*
D17*
X114808000Y-89662000D03*
D18*
X117348000Y-89662000D03*
X119888000Y-89662000D03*
D15*
X127254000Y-69596000D03*
D14*
X119634000Y-69596000D03*
D13*
X131318000Y-120396000D03*
X144780000Y-68590000D03*
D19*
X144780000Y-71130000D03*
X144780000Y-73670000D03*
X144780000Y-76210000D03*
D20*
X115062000Y-56388000D03*
D15*
X107442000Y-56388000D03*
D13*
X127000000Y-66040000D03*
D12*
X103901000Y-61000000D03*
X103901000Y-66000000D03*
D20*
X89916000Y-119380000D03*
D15*
X89916000Y-116840000D03*
X89916000Y-114300000D03*
X89916000Y-111760000D03*
X89916000Y-109220000D03*
X89916000Y-106680000D03*
X89916000Y-104140000D03*
X89916000Y-101600000D03*
X89916000Y-99060000D03*
X89916000Y-96520000D03*
X89916000Y-93980000D03*
X89916000Y-91440000D03*
X89916000Y-88900000D03*
X89916000Y-86360000D03*
X82296000Y-86360000D03*
X82296000Y-88900000D03*
X82296000Y-91440000D03*
X82296000Y-93980000D03*
X82296000Y-96520000D03*
X82296000Y-99060000D03*
X82296000Y-101600000D03*
X82296000Y-104140000D03*
X82296000Y-106680000D03*
X82296000Y-109220000D03*
X82296000Y-111760000D03*
X82296000Y-114300000D03*
X82296000Y-116840000D03*
X82296000Y-119380000D03*
D14*
X74295000Y-124460000D03*
X74295000Y-119460000D03*
D20*
X78486000Y-107315000D03*
D15*
X78486000Y-104775000D03*
X78486000Y-102235000D03*
X78486000Y-99695000D03*
X78486000Y-97155000D03*
X78486000Y-94615000D03*
X78486000Y-92075000D03*
X78486000Y-89535000D03*
X120904000Y-77216000D03*
D14*
X113284000Y-77216000D03*
D21*
X74295000Y-104775000D03*
X74295000Y-102235000D03*
X74295000Y-99695000D03*
D17*
X109728000Y-103053000D03*
D18*
X112268000Y-103053000D03*
X114808000Y-103053000D03*
D22*
X67310000Y-52070000D03*
D23*
X69850000Y-52070000D03*
X72390000Y-52070000D03*
X74930000Y-52070000D03*
X77470000Y-52070000D03*
X80010000Y-52070000D03*
X82550000Y-52070000D03*
X82550000Y-44450000D03*
X80010000Y-44450000D03*
X77470000Y-44450000D03*
X74930000Y-44450000D03*
X72390000Y-44450000D03*
X69850000Y-44450000D03*
X67310000Y-44450000D03*
D21*
X74422000Y-92710000D03*
X74422000Y-90170000D03*
X74422000Y-87630000D03*
D17*
X97790000Y-103124000D03*
D18*
X100330000Y-103124000D03*
X102870000Y-103124000D03*
D13*
X93726000Y-66040000D03*
D14*
X86106000Y-69596000D03*
D15*
X93726000Y-69596000D03*
D14*
X83820000Y-81494000D03*
X83820000Y-76494000D03*
D13*
X139573000Y-90678000D03*
D19*
X139573000Y-88138000D03*
X142113000Y-90678000D03*
X142113000Y-88138000D03*
X144653000Y-90678000D03*
X144653000Y-88138000D03*
D22*
X114564000Y-52085000D03*
D23*
X117104000Y-52085000D03*
X119644000Y-52085000D03*
X122184000Y-52085000D03*
X122184000Y-44465000D03*
X119644000Y-44465000D03*
X117104000Y-44465000D03*
X114564000Y-44465000D03*
D15*
X127000000Y-56134000D03*
D14*
X119380000Y-56134000D03*
D24*
X107442000Y-59944000D03*
D25*
X107442000Y-62484000D03*
X107442000Y-65024000D03*
X107442000Y-67564000D03*
X115062000Y-67564000D03*
X115062000Y-65024000D03*
X115062000Y-62484000D03*
X115062000Y-59944000D03*
D14*
X103632000Y-51816000D03*
D15*
X111252000Y-51816000D03*
D26*
X95758000Y-90130000D03*
X95758000Y-85130000D03*
D15*
X104775000Y-45720000D03*
X102235000Y-45720000D03*
X99695000Y-45720000D03*
X97155000Y-45720000D03*
X94615000Y-45720000D03*
D20*
X92075000Y-45720000D03*
D13*
X113792000Y-108966000D03*
D14*
X132548000Y-91186000D03*
X127548000Y-91186000D03*
D13*
X142494000Y-82550000D03*
D20*
X82027000Y-58430000D03*
D15*
X74407000Y-58430000D03*
D12*
X124968000Y-123190000D03*
X119968000Y-123190000D03*
D16*
X112776000Y-117856000D03*
X93726000Y-117856000D03*
D12*
X138129000Y-118110000D03*
X143129000Y-118110000D03*
D24*
X74407000Y-61986000D03*
D25*
X74407000Y-64526000D03*
X74407000Y-67066000D03*
X74407000Y-69606000D03*
X82027000Y-69606000D03*
X82027000Y-67066000D03*
X82027000Y-64526000D03*
X82027000Y-61986000D03*
D14*
X86106000Y-55880000D03*
D15*
X93726000Y-55880000D03*
D27*
X138136000Y-59690000D03*
D28*
X133136000Y-59690000D03*
D13*
X144526000Y-103632000D03*
D19*
X144526000Y-106172000D03*
X144526000Y-108712000D03*
D14*
X87361000Y-59984000D03*
X87361000Y-64984000D03*
X120396000Y-59984000D03*
X120396000Y-64984000D03*
D13*
X111506000Y-94742000D03*
X86995000Y-129540000D03*
D19*
X84455000Y-129540000D03*
X81915000Y-129540000D03*
X79375000Y-129540000D03*
X76835000Y-129540000D03*
X74295000Y-129540000D03*
D13*
X143510000Y-125730000D03*
D19*
X143510000Y-128270000D03*
X143510000Y-130810000D03*
X143510000Y-133350000D03*
D13*
X93711000Y-60960000D03*
X102870000Y-132842000D03*
D19*
X105410000Y-132842000D03*
X107950000Y-132842000D03*
X110490000Y-132842000D03*
D13*
X144780000Y-55890000D03*
D19*
X144780000Y-58430000D03*
X144780000Y-60970000D03*
X144780000Y-63510000D03*
D17*
X102870000Y-89662000D03*
D18*
X105410000Y-89662000D03*
X107950000Y-89662000D03*
D29*
X130048000Y-80010000D03*
D30*
X130048000Y-82550000D03*
X130048000Y-85090000D03*
D27*
X131906000Y-128524000D03*
D28*
X136906000Y-128524000D03*
D20*
X100330000Y-51816000D03*
D15*
X97790000Y-51816000D03*
X95250000Y-51816000D03*
X92710000Y-51816000D03*
X90170000Y-51816000D03*
X87630000Y-51816000D03*
D13*
X127000000Y-60960000D03*
D14*
X88900000Y-76494000D03*
X88900000Y-81494000D03*
D13*
X74168000Y-83820000D03*
D15*
X109474000Y-77216000D03*
D14*
X101854000Y-77216000D03*
D13*
X69710000Y-125940000D03*
D19*
X67170000Y-125940000D03*
X69710000Y-123400000D03*
X67170000Y-123400000D03*
X69710000Y-120860000D03*
X67170000Y-120860000D03*
X69710000Y-118320000D03*
X67170000Y-118320000D03*
X69710000Y-115780000D03*
X67170000Y-115780000D03*
X69710000Y-113240000D03*
X67170000Y-113240000D03*
X69710000Y-110700000D03*
X67170000Y-110700000D03*
X69710000Y-108160000D03*
X67170000Y-108160000D03*
X69710000Y-105620000D03*
X67170000Y-105620000D03*
X69710000Y-103080000D03*
X67170000Y-103080000D03*
X69710000Y-100540000D03*
X67170000Y-100540000D03*
X69710000Y-98000000D03*
X67170000Y-98000000D03*
X69710000Y-95460000D03*
X67170000Y-95460000D03*
X69710000Y-92920000D03*
X67170000Y-92920000D03*
X69710000Y-90380000D03*
X67170000Y-90380000D03*
X69710000Y-87840000D03*
X67170000Y-87840000D03*
X69710000Y-85300000D03*
X67170000Y-85300000D03*
X69710000Y-82760000D03*
X67170000Y-82760000D03*
X69710000Y-80220000D03*
X67170000Y-80220000D03*
X69710000Y-77680000D03*
X67170000Y-77680000D03*
M02*
